  0
SECTION
  2
HEADER
  9
$ACADVER
  1
AC1014
  9
$ACADMAINTVER
 70
     9
  9
$DWGCODEPAGE
  3
ANSI_1252
  9
$INSBASE
 10
0.0
 20
0.0
 30
0.0
  9
$EXTMIN
 10
1.000000000000000E+20
 20
1.000000000000000E+20
 30
1.000000000000000E+20
  9
$EXTMAX
 10
-1.000000000000000E+20
 20
-1.000000000000000E+20
 30
-1.000000000000000E+20
  9
$LIMMIN
 10
0.0
 20
0.0
  9
$LIMMAX
 10
12.0
 20
9.0
  9
$ORTHOMODE
 70
     0
  9
$REGENMODE
 70
     1
  9
$FILLMODE
 70
     1
  9
$QTEXTMODE
 70
     0
  9
$MIRRTEXT
 70
     1
  9
$DRAGMODE
 70
     2
  9
$LTSCALE
 40
12.7
  9
$OSMODE
 70
    23
  9
$ATTMODE
 70
     1
  9
$TEXTSIZE
 40
3.5
  9
$TRACEWID
 40
0.05
  9
$TEXTSTYLE
  7
ONSHAPE-STANDARD
  9
$CLAYER
  8
0
  9
$CELTYPE
  6
BYLAYER
  9
$CECOLOR
 62
   256
  9
$CELTSCALE
 40
1.0
  9
$DELOBJ
 70
     1
  9
$DISPSILH
 70
     0
  9
$DIMSCALE
 40
1.0
  9
$DIMASZ
 40
2.5
  9
$DIMEXO
 40
0.625
  9
$DIMDLI
 40
3.75
  9
$DIMRND
 40
0.0
  9
$DIMDLE
 40
0.0
  9
$DIMEXE
 40
1.25
  9
$DIMTP
 40
0.0
  9
$DIMTM
 40
0.0
  9
$DIMTXT
 40
3.5
  9
$DIMCEN
 40
2.5
  9
$DIMTSZ
 40
0.0
  9
$DIMTOL
 70
     0
  9
$DIMLIM
 70
     0
  9
$DIMTIH
 70
     0
  9
$DIMTOH
 70
     0
  9
$DIMSE1
 70
     0
  9
$DIMSE2
 70
     0
  9
$DIMTAD
 70
     1
  9
$DIMZIN
 70
     8
  9
$DIMBLK
  1

  9
$DIMASO
 70
     1
  9
$DIMSHO
 70
     1
  9
$DIMPOST
  1

  9
$DIMAPOST
  1

  9
$DIMALT
 70
     0
  9
$DIMALTD
 70
     3
  9
$DIMALTF
 40
25.4
  9
$DIMLFAC
 40
2.0
  9
$DIMTOFL
 70
     1
  9
$DIMTVP
 40
0.0
  9
$DIMTIX
 70
     0
  9
$DIMSOXD
 70
     0
  9
$DIMSAH
 70
     0
  9
$DIMBLK1
  1

  9
$DIMBLK2
  1

  9
$DIMSTYLE
  2
ONSHAPE-ISO-25
  9
$DIMCLRD
 70
     7
  9
$DIMCLRE
 70
     7
  9
$DIMCLRT
 70
     7
  9
$DIMTFAC
 40
1.0
  9
$DIMGAP
 40
0.625
  9
$DIMJUST
 70
     0
  9
$DIMSD1
 70
     0
  9
$DIMSD2
 70
     0
  9
$DIMTOLJ
 70
     0
  9
$DIMTZIN
 70
     8
  9
$DIMALTZ
 70
     8
  9
$DIMALTTZ
 70
     0
  9
$DIMFIT
 70
     3
  9
$DIMUPT
 70
     1
  9
$DIMUNIT
 70
     2
  9
$DIMDEC
 70
     2
  9
$DIMTDEC
 70
     2
  9
$DIMALTU
 70
     2
  9
$DIMALTTD
 70
     3
  9
$DIMTXSTY
  7
ONSHAPE-STANDARD-DIMENSION
  9
$DIMAUNIT
 70
     0
  9
$LUNITS
 70
     2
  9
$LUPREC
 70
     4
  9
$SKETCHINC
 40
0.1
  9
$FILLETRAD
 40
0.5
  9
$AUNITS
 70
     0
  9
$AUPREC
 70
     0
  9
$MENU
  1
.
  9
$ELEVATION
 40
0.0
  9
$PELEVATION
 40
0.0
  9
$THICKNESS
 40
0.0
  9
$LIMCHECK
 70
     0
  9
$CHAMFERA
 40
0.0
  9
$CHAMFERB
 40
0.0
  9
$CHAMFERC
 40
0.0
  9
$CHAMFERD
 40
0.0
  9
$SKPOLY
 70
     0
  9
$TDCREATE
 40
2459062.467848588
  9
$TDUPDATE
 40
2459062.467850023
  9
$TDINDWG
 40
0.0
  9
$TDUSRTIMER
 40
0.0
  9
$USRTIMER
 70
     1
  9
$ANGBASE
 50
0.0
  9
$ANGDIR
 70
     0
  9
$PDMODE
 70
    33
  9
$PDSIZE
 40
1.0
  9
$PLINEWID
 40
0.0
  9
$COORDS
 70
     1
  9
$SPLFRAME
 70
     0
  9
$SPLINETYPE
 70
     6
  9
$SPLINESEGS
 70
     8
  9
$ATTDIA
 70
     0
  9
$ATTREQ
 70
     1
  9
$HANDLING
 70
     1
  9
$HANDSEED
  5
314
  9
$SURFTAB1
 70
     6
  9
$SURFTAB2
 70
     6
  9
$SURFTYPE
 70
     6
  9
$SURFU
 70
     6
  9
$SURFV
 70
     6
  9
$UCSNAME
  2

  9
$UCSORG
 10
0.0
 20
0.0
 30
0.0
  9
$UCSXDIR
 10
1.0
 20
0.0
 30
0.0
  9
$UCSYDIR
 10
0.0
 20
1.0
 30
0.0
  9
$PUCSNAME
  2

  9
$PUCSORG
 10
0.0
 20
0.0
 30
0.0
  9
$PUCSXDIR
 10
1.0
 20
0.0
 30
0.0
  9
$PUCSYDIR
 10
0.0
 20
1.0
 30
0.0
  9
$USERI1
 70
     0
  9
$USERI2
 70
     0
  9
$USERI3
 70
     0
  9
$USERI4
 70
     0
  9
$USERI5
 70
     0
  9
$USERR1
 40
0.0
  9
$USERR2
 40
0.0
  9
$USERR3
 40
0.0
  9
$USERR4
 40
0.0
  9
$USERR5
 40
0.0
  9
$WORLDVIEW
 70
     1
  9
$SHADEDGE
 70
     3
  9
$SHADEDIF
 70
    70
  9
$TILEMODE
 70
     1
  9
$MAXACTVP
 70
    64
  9
$PINSBASE
 10
0.0
 20
0.0
 30
0.0
  9
$PLIMCHECK
 70
     0
  9
$PEXTMIN
 10
1.000000000000000E+20
 20
1.000000000000000E+20
 30
1.000000000000000E+20
  9
$PEXTMAX
 10
-1.000000000000000E+20
 20
-1.000000000000000E+20
 30
-1.000000000000000E+20
  9
$PLIMMIN
 10
0.0
 20
0.0
  9
$PLIMMAX
 10
12.0
 20
9.0
  9
$UNITMODE
 70
     0
  9
$VISRETAIN
 70
     1
  9
$PLINEGEN
 70
     0
  9
$PSLTSCALE
 70
     1
  9
$TREEDEPTH
 70
  3020
  9
$PICKSTYLE
 70
     1
  9
$CMLSTYLE
  2
STANDARD
  9
$CMLJUST
 70
     0
  9
$CMLSCALE
 40
1.0
  9
$PROXYGRAPHICS
 70
     1
  9
$MEASUREMENT
 70
     0
  0
ENDSEC
  0
SECTION
  2
CLASSES
  0
CLASS
  1
ACDBDICTIONARYWDFLT
  2
AcDbDictionaryWithDefault
  3
ObjectDBX Classes
 90
        0
280
     0
281
     0
  0
CLASS
  1
VISUALSTYLE
  2
AcDbVisualStyle
  3
ObjectDBX Classes
 90
     4095
280
     0
281
     0
  0
CLASS
  1
MATERIAL
  2
AcDbMaterial
  3
ObjectDBX Classes
 90
     1153
280
     0
281
     0
  0
CLASS
  1
SCALE
  2
AcDbScale
  3
ObjectDBX Classes
 90
     1153
280
     0
281
     0
  0
CLASS
  1
TABLESTYLE
  2
AcDbTableStyle
  3
ObjectDBX Classes
 90
     4095
280
     0
281
     0
  0
CLASS
  1
MLEADERSTYLE
  2
AcDbMLeaderStyle
  3
ACDB_MLEADERSTYLE_CLASS
 90
     4095
280
     0
281
     0
  0
CLASS
  1
SUN
  2
AcDbSun
  3
SCENEOE
 90
     1153
280
     0
281
     0
  0
CLASS
  1
DICTIONARYVAR
  2
AcDbDictionaryVar
  3
ObjectDBX Classes
 90
        0
280
     0
281
     0
  0
CLASS
  1
FIELD
  2
AcDbField
  3
ObjectDBX Classes
 90
     1152
280
     0
281
     0
  0
CLASS
  1
DIMASSOC
  2
AcDbDimAssoc
  3
"AcDbDimAssoc|Product Desc:     AcDim ARX App For Dimension|Company:          Autodesk, Inc.|WEB Address:      www.autodesk.com"
 90
        0
280
     0
281
     0
  0
CLASS
  1
FIELDLIST
  2
AcDbFieldList
  3
ObjectDBX Classes
 90
     1152
280
     0
281
     0
  0
CLASS
  1
XRECORD
  2
AcDbXrecord
  3
ObjectDBX Classes
 90
        0
280
     0
281
     0
  0
CLASS
  1
LWPOLYLINE
  2
AcDbPolyline
  3
ObjectDBX Classes
 90
        0
280
     0
281
     1
  0
CLASS
  1
HATCH
  2
AcDbHatch
  3
ObjectDBX Classes
 90
        0
280
     0
281
     1
  0
CLASS
  1
ACDBPLACEHOLDER
  2
AcDbPlaceHolder
  3
ObjectDBX Classes
 90
        0
280
     0
281
     0
  0
CLASS
  1
LAYOUT
  2
AcDbLayout
  3
ObjectDBX Classes
 90
        0
280
     0
281
     0
  0
ENDSEC
  0
SECTION
  2
TABLES
  0
TABLE
  2
VPORT
  5
8
102
{ACAD_XDICTIONARY
360
308
102
}
330
0
100
AcDbSymbolTable
 70
     1
  0
VPORT
  5
29
330
8
100
AcDbSymbolTableRecord
100
AcDbViewportTableRecord
  2
*ACTIVE
 70
     0
 10
0.0
 20
0.0
 11
1.0
 21
1.0
 12
151.194944
 22
111.0582122009631
 13
0.0
 23
0.0
 14
0.5
 24
0.5
 15
0.5
 25
0.5
 16
0.0
 26
0.0
 36
1.0
 17
0.0
 27
0.0
 37
0.0
 40
206.1587528899647
 41
1.377373901323315
 42
50.0
 43
0.0
 44
0.0
 50
0.0
 51
0.0
 71
     0
 72
   100
 73
     1
 74
     3
 75
     0
 76
     0
 77
     0
 78
     0
  0
ENDTAB
  0
TABLE
  2
LTYPE
  5
5
330
0
100
AcDbSymbolTable
 70
     2
  0
LTYPE
  5
14
330
5
100
AcDbSymbolTableRecord
100
AcDbLinetypeTableRecord
  2
BYBLOCK
 70
     0
  3

 72
    65
 73
     0
 40
0.0
  0
LTYPE
  5
15
330
5
100
AcDbSymbolTableRecord
100
AcDbLinetypeTableRecord
  2
BYLAYER
 70
     0
  3

 72
    65
 73
     0
 40
0.0
  0
LTYPE
  5
16
330
5
100
AcDbSymbolTableRecord
100
AcDbLinetypeTableRecord
  2
CONTINUOUS
 70
     0
  3
Solid line
 72
    65
 73
     0
 40
0.0
  0
LTYPE
  5
274
330
5
100
AcDbSymbolTableRecord
100
AcDbLinetypeTableRecord
  2
CENTER
 70
     0
  3
Center line ____ _ ____ _ ____ _
 72
    65
 73
     4
 40
0.7874015748031495
 49
0.4921259842519685
 74
     0
 49
-0.0984251968503937
 74
     0
 49
0.0984251968503937
 74
     0
 49
-0.0984251968503937
 74
     0
  0
ENDTAB
  0
TABLE
  2
LAYER
  5
2
330
0
100
AcDbSymbolTable
 70
     8
  0
LAYER
  5
10
330
2
100
AcDbSymbolTableRecord
100
AcDbLayerTableRecord
  2
0
 70
     0
 62
     7
  6
CONTINUOUS
  0
LAYER
  5
70
330
2
100
AcDbSymbolTableRecord
100
AcDbLayerTableRecord
  2
DEFPOINTS
 70
     0
 62
     7
  6
CONTINUOUS
  0
LAYER
  5
75
330
2
100
AcDbSymbolTableRecord
100
AcDbLayerTableRecord
  2
BORDER_FRAME
 70
     0
 62
     7
  6
CONTINUOUS
  0
LAYER
  5
7B
330
2
100
AcDbSymbolTableRecord
100
AcDbLayerTableRecord
  2
TITLE_BLOCK
 70
     0
 62
     7
  6
CONTINUOUS
  0
LAYER
  5
103
330
2
100
AcDbSymbolTableRecord
100
AcDbLayerTableRecord
  2
ANNOTATION_TEXT
 70
     0
 62
     7
  6
CONTINUOUS
  0
LAYER
  5
22C
330
2
100
AcDbSymbolTableRecord
100
AcDbLayerTableRecord
  2
VISIBLE
 70
     0
 62
     7
  6
CONTINUOUS
  0
LAYER
  5
22E
330
2
100
AcDbSymbolTableRecord
100
AcDbLayerTableRecord
  2
TANGENT_LINES
 70
     0
 62
     7
  6
CONTINUOUS
  0
LAYER
  5
272
330
2
100
AcDbSymbolTableRecord
100
AcDbLayerTableRecord
  2
SHEETMETAL_BEND_LINES_DOWN
 70
     0
 62
     7
  6
CENTER
  0
ENDTAB
  0
TABLE
  2
STYLE
  5
3
330
0
100
AcDbSymbolTable
 70
    27
  0
STYLE
  5
11
330
3
100
AcDbSymbolTableRecord
100
AcDbTextStyleTableRecord
  2
STANDARD
 70
     0
 40
0.0
 41
1.0
 50
0.0
 71
     0
 42
3.5
  3
txt
  4

  0
STYLE
  5
71
330
3
100
AcDbSymbolTableRecord
100
AcDbTextStyleTableRecord
  2
ONSHAPE-STANDARD
 70
     0
 40
0.0
 41
1.0
 50
0.0
 71
     0
 42
3.5
  3
NotoSans-Regular.ttf
  4

1001
ACAD
1000
Noto Sans
1071
        0
  0
STYLE
  5
73
330
3
100
AcDbSymbolTableRecord
100
AcDbTextStyleTableRecord
  2
ONSHAPE-STANDARD-DIMENSION
 70
     0
 40
0.0
 41
1.0
 50
0.0
 71
     0
 42
3.5
  3

  4

1001
ACAD
1000
Noto Sans
1071
        0
  0
STYLE
  5
B1
330
3
100
AcDbSymbolTableRecord
100
AcDbTextStyleTableRecord
  2
ONSHAPE-STANDARD-FIELDS
 70
     0
 40
0.0
 41
1.0
 50
0.0
 71
     0
 42
3.5
  3

  4

1001
ACAD
1000
Noto Sans
1071
        0
  0
STYLE
  5
104
330
3
100
AcDbSymbolTableRecord
100
AcDbTextStyleTableRecord
  2
ONSHAPE-STANDARD-VIEW-LABE
 70
     0
 40
3.5
 41
1.0
 50
0.0
 71
     0
 42
3.5
  3
NotoSans-Regular.ttf
  4

1001
ACAD
1000
Noto Sans
1071
        0
  0
STYLE
  5
132
330
3
100
AcDbSymbolTableRecord
100
AcDbTextStyleTableRecord
  2
ONSHAPE-STANDARD-NOTESTYLE
 70
     0
 40
3.5
 41
1.0
 50
0.0
 71
     0
 42
3.5
  3
Noto Sans
  4

1001
ACAD
1000
Noto Sans
1071
        0
  0
STYLE
  5
291
330
3
100
AcDbSymbolTableRecord
100
AcDbTextStyleTableRecord
  2
ONSHAPE-STANDARD-BOLD
 70
     0
 40
0.0
 41
1.0
 50
0.0
 71
     0
 42
3.5
  3
NotoSans-Bold.ttf
  4

1001
ACAD
1000
Noto Sans
1071
 33554432
  0
STYLE
  5
293
330
3
100
AcDbSymbolTableRecord
100
AcDbTextStyleTableRecord
  2
ONSHAPE-STANDARD-TCFIELDS
 70
     0
 40
0.0
 41
1.0
 50
0.0
 71
     0
 42
3.5
  3
NotoSansTC-Regular.otf
  4

1001
ACAD
1000
Noto Sans TC
1071
        0
  0
STYLE
  5
294
330
3
100
AcDbSymbolTableRecord
100
AcDbTextStyleTableRecord
  2
ONSHAPE-STANDARD-SCFIELDS
 70
     0
 40
0.0
 41
1.0
 50
0.0
 71
     0
 42
3.5
  3
NotoSansSC-Regular.otf
  4

1001
ACAD
1000
Noto Sans SC
1071
        0
  0
STYLE
  5
295
330
3
100
AcDbSymbolTableRecord
100
AcDbTextStyleTableRecord
  2
ONSHAPE-STANDARD-KOREANFIE
 70
     0
 40
0.0
 41
1.0
 50
0.0
 71
     0
 42
3.5
  3
NotoSansKR-Regular.otf
  4

1001
ACAD
1000
Noto Sans KR
1071
        0
  0
STYLE
  5
297
330
3
100
AcDbSymbolTableRecord
100
AcDbTextStyleTableRecord
  2
TTFSTYLE
 70
     0
 40
0.0
 41
1.0
 50
0.0
 71
     0
 42
3.5
  3
Verdana.ttf
  4

1001
ACAD
1000
Verdana
1071
       34
  0
STYLE
  5
298
330
3
100
AcDbSymbolTableRecord
100
AcDbTextStyleTableRecord
  2
ONSHAPE-STANDARD-GTOLERANC
 70
     0
 40
0.0
 41
1.0
 50
0.0
 71
     0
 42
3.5
  3

  4

1001
ACAD
1000
Noto Sans
1071
        0
  0
STYLE
  5
299
330
3
100
AcDbSymbolTableRecord
100
AcDbTextStyleTableRecord
  2
ONSHAPE-STANDARD-TABLE-DAT
 70
     0
 40
0.0
 41
1.0
 50
0.0
 71
     0
 42
3.5
  3
NotoSans-Regular.ttf
  4

1001
ACAD
1000
Noto Sans
1071
        0
  0
STYLE
  5
29A
330
3
100
AcDbSymbolTableRecord
100
AcDbTextStyleTableRecord
  2
ONSHAPE-STANDARD-TABLE-TIT
 70
     0
 40
0.0
 41
1.0
 50
0.0
 71
     0
 42
3.5
  3
NotoSans-Bold.ttf
  4

1001
ACAD
1000
Noto Sans
1071
 33554432
  0
STYLE
  5
29B
330
3
100
AcDbSymbolTableRecord
100
AcDbTextStyleTableRecord
  2
ONSHAPE-STANDARD-TABLE-HEA
 70
     0
 40
0.0
 41
1.0
 50
0.0
 71
     0
 42
3.5
  3
NotoSans-Bold.ttf
  4

1001
ACAD
1000
Noto Sans
1071
 33554432
  0
STYLE
  5
29C
330
3
100
AcDbSymbolTableRecord
100
AcDbTextStyleTableRecord
  2
ONSHAPE-STANDARD-BOMTABLE-
 70
     0
 40
0.0
 41
1.0
 50
0.0
 71
     0
 42
3.5
  3
NotoSans-Regular.ttf
  4

1001
ACAD
1000
Noto Sans
1071
        0
  0
STYLE
  5
29D
330
3
100
AcDbSymbolTableRecord
100
AcDbTextStyleTableRecord
  2
ONSHAPE-STANDARD-BOMTABLE0
 70
     0
 40
0.0
 41
1.0
 50
0.0
 71
     0
 42
3.5
  3
NotoSans-Bold.ttf
  4

1001
ACAD
1000
Noto Sans
1071
 33554432
  0
STYLE
  5
29E
330
3
100
AcDbSymbolTableRecord
100
AcDbTextStyleTableRecord
  2
ONSHAPE-STANDARD-BOMTABLE1
 70
     0
 40
0.0
 41
1.0
 50
0.0
 71
     0
 42
3.5
  3
NotoSans-Bold.ttf
  4

1001
ACAD
1000
Noto Sans
1071
 33554432
  0
STYLE
  5
2A1
330
3
100
AcDbSymbolTableRecord
100
AcDbTextStyleTableRecord
  2
ONSHAPE-STANDARD-HOLE-CALL
 70
     0
 40
3.5
 41
1.0
 50
0.0
 71
     0
 42
3.5
  3
Noto Sans
  4

1001
ACAD
1000
Noto Sans
1071
        0
  0
STYLE
  5
2A2
330
3
100
AcDbSymbolTableRecord
100
AcDbTextStyleTableRecord
  2
ONSHAPE-STANDARD-HOLETABLE
 70
     0
 40
0.0
 41
1.0
 50
0.0
 71
     0
 42
3.5
  3
NotoSans-Regular.ttf
  4

1001
ACAD
1000
Noto Sans
1071
        0
  0
STYLE
  5
2A3
330
3
100
AcDbSymbolTableRecord
100
AcDbTextStyleTableRecord
  2
ONSHAPE-STANDARD-HOLETABL0
 70
     0
 40
0.0
 41
1.0
 50
0.0
 71
     0
 42
3.5
  3
NotoSans-Bold.ttf
  4

1001
ACAD
1000
Noto Sans
1071
 33554432
  0
STYLE
  5
2A4
330
3
100
AcDbSymbolTableRecord
100
AcDbTextStyleTableRecord
  2
ONSHAPE-STANDARD-HOLETABL1
 70
     0
 40
0.0
 41
1.0
 50
0.0
 71
     0
 42
3.5
  3
NotoSans-Bold.ttf
  4

1001
ACAD
1000
Noto Sans
1071
 33554432
  0
STYLE
  5
2A5
330
3
100
AcDbSymbolTableRecord
100
AcDbTextStyleTableRecord
  2
ONSHAPE-STANDARD-HOLE-TAG
 70
     0
 40
3.5
 41
1.0
 50
0.0
 71
     0
 42
3.5
  3
Noto Sans
  4

1001
ACAD
1000
Noto Sans
1071
        0
  0
STYLE
  5
2A6
330
3
100
AcDbSymbolTableRecord
100
AcDbTextStyleTableRecord
  2
ONSHAPE-STANDARD-REVISIONT
 70
     0
 40
0.0
 41
1.0
 50
0.0
 71
     0
 42
3.5
  3
NotoSans-Regular.ttf
  4

1001
ACAD
1000
Noto Sans
1071
        0
  0
STYLE
  5
2A7
330
3
100
AcDbSymbolTableRecord
100
AcDbTextStyleTableRecord
  2
ONSHAPE-STANDARD-REVISION0
 70
     0
 40
0.0
 41
1.0
 50
0.0
 71
     0
 42
3.5
  3
NotoSans-Bold.ttf
  4

1001
ACAD
1000
Noto Sans
1071
 33554432
  0
STYLE
  5
2A8
330
3
100
AcDbSymbolTableRecord
100
AcDbTextStyleTableRecord
  2
ONSHAPE-STANDARD-REVISION1
 70
     0
 40
0.0
 41
1.0
 50
0.0
 71
     0
 42
3.5
  3
NotoSans-Bold.ttf
  4

1001
ACAD
1000
Noto Sans
1071
 33554432
  0
STYLE
  5
2A9
330
3
100
AcDbSymbolTableRecord
100
AcDbTextStyleTableRecord
  2
ONSHAPE-STANDARD-REVISION-
 70
     0
 40
3.5
 41
1.0
 50
0.0
 71
     0
 42
3.5
  3
Noto Sans
  4

1001
ACAD
1000
Noto Sans
1071
        0
  0
ENDTAB
  0
TABLE
  2
VIEW
  5
6
330
0
100
AcDbSymbolTable
 70
     0
  0
ENDTAB
  0
TABLE
  2
UCS
  5
7
330
0
100
AcDbSymbolTable
 70
     0
  0
ENDTAB
  0
TABLE
  2
APPID
  5
9
330
0
100
AcDbSymbolTable
 70
     9
  0
APPID
  5
12
330
9
100
AcDbSymbolTableRecord
100
AcDbRegAppTableRecord
  2
ACAD
 70
     0
  0
APPID
  5
11C
330
9
100
AcDbSymbolTableRecord
100
AcDbRegAppTableRecord
  2
ACAD_DIMASSOC_CALC_DIMLFAC
 70
     0
  0
APPID
  5
11D
330
9
100
AcDbSymbolTableRecord
100
AcDbRegAppTableRecord
  2
ACAD_DIMASSOC_DIMLFAC
 70
     0
  0
APPID
  5
11E
330
9
100
AcDbSymbolTableRecord
100
AcDbRegAppTableRecord
  2
ACAD_DIMASSOC_OVERRIDDEN_D
 70
     0
  0
APPID
  5
123
330
9
100
AcDbSymbolTableRecord
100
AcDbRegAppTableRecord
  2
ONSHAPE_DIMASSOC_ALT
 70
     0
  0
APPID
  5
146
330
9
100
AcDbSymbolTableRecord
100
AcDbRegAppTableRecord
  2
ACAD_DSTYLE_DIMRADIAL_EXTE
 70
     0
  0
APPID
  5
172
330
9
100
AcDbSymbolTableRecord
100
AcDbRegAppTableRecord
  2
ONSHAPE_DATA_CUSTOMASSOC
 70
     0
  0
APPID
  5
173
330
9
100
AcDbSymbolTableRecord
100
AcDbRegAppTableRecord
  2
KDIM_DIT_INFOIDS
 70
     0
  0
APPID
  5
312
330
9
100
AcDbSymbolTableRecord
100
AcDbRegAppTableRecord
  2
ACAD_MLEADERVER
 70
     0
  0
ENDTAB
  0
TABLE
  2
DIMSTYLE
  5
A
330
0
100
AcDbSymbolTable
 70
    19
  0
DIMSTYLE
105
27
330
A
100
AcDbSymbolTableRecord
100
AcDbDimStyleTableRecord
  2
STANDARD
 70
     0
  3

  4

  5

  6

  7

 40
1.0
 41
0.18
 42
0.0625
 43
0.38
 44
0.18
 45
0.0
 46
0.0
 47
0.0
 48
0.0
140
0.18
141
0.09
142
0.0
143
25.4
144
1.0
145
0.0
146
1.0
147
0.09
 71
     0
 72
     0
 73
     1
 74
     1
 75
     0
 76
     0
 77
     0
 78
     0
170
     0
171
     2
172
     0
173
     0
174
     0
175
     0
176
     0
177
     0
178
     0
270
     2
271
     4
272
     4
273
     2
274
     2
340
11
275
     0
280
     0
281
     0
282
     0
283
     1
284
     0
285
     0
286
     0
287
     3
288
     0
  0
DIMSTYLE
105
72
330
A
100
AcDbSymbolTableRecord
100
AcDbDimStyleTableRecord
  2
ONSHAPE-ISO-25
 70
     0
  3

  4

  5

  6

  7

 40
1.0
 41
2.5
 42
0.625
 43
3.75
 44
1.25
 45
0.0
 46
0.0
 47
0.0
 48
0.0
140
3.5
141
2.5
142
0.0
143
0.03937
144
1.0
145
0.0
146
1.0
147
0.625
 71
     0
 72
     0
 73
     0
 74
     0
 75
     0
 76
     0
 77
     1
 78
     8
170
     0
171
     3
172
     1
173
     0
174
     0
175
     0
176
     7
177
     7
178
     7
179
     1
270
     2
271
     2
272
     2
273
     2
274
     3
340
73
275
     0
280
     0
281
     0
282
     0
283
     0
284
     8
285
     8
286
     0
287
     3
288
     1
  0
DIMSTYLE
105
10D
102
{ACAD_REACTORS
330
108
330
11F
330
147
330
161
330
174
330
185
330
196
330
1A7
330
1B8
330
1D9
330
1EA
330
1FC
330
20E
102
}
330
A
100
AcDbSymbolTableRecord
100
AcDbDimStyleTableRecord
  2
ONSHAPE-ISO-25$0
 70
     0
  3

  4

  5

  6

  7

 40
1.0
 41
2.5
 42
0.625
 43
3.75
 44
1.25
 45
0.0
 46
0.0
 47
0.0
 48
0.0
140
3.5
141
2.5
142
0.0
143
0.03937
144
1.0
145
0.0
146
1.0
147
0.625
 71
     0
 72
     0
 73
     0
 74
     0
 75
     0
 76
     0
 77
     1
 78
     8
170
     0
171
     3
172
     1
173
     0
174
     0
175
     0
176
     7
177
     7
178
     7
179
     1
270
     2
271
     2
272
     2
273
     2
274
     3
340
73
275
     0
280
     0
281
     0
282
     0
283
     0
284
     8
285
     8
286
     0
287
     3
288
     1
  0
DIMSTYLE
105
13A
102
{ACAD_REACTORS
330
136
330
1CA
102
}
330
A
100
AcDbSymbolTableRecord
100
AcDbDimStyleTableRecord
  2
ONSHAPE-ISO-25$3
 70
     0
  3

  4

  5

  6

  7

 40
1.0
 41
2.5
 42
0.625
 43
3.75
 44
1.25
 45
0.0
 46
0.0
 47
0.0
 48
0.0
140
3.5
141
0.0
142
0.0
143
0.03937
144
1.0
145
0.0
146
1.0
147
0.625
 71
     0
 72
     0
 73
     0
 74
     0
 75
     0
 76
     0
 77
     1
 78
     8
170
     0
171
     3
172
     1
173
     0
174
     0
175
     0
176
     7
177
     7
178
     7
179
     1
270
     2
271
     2
272
     2
273
     2
274
     3
340
73
275
     0
280
     0
281
     0
282
     0
283
     0
284
     8
285
     8
286
     0
287
     3
288
     1
  0
DIMSTYLE
105
2AA
330
A
100
AcDbSymbolTableRecord
100
AcDbDimStyleTableRecord
  2
ISO-25
 70
     0
  3

  4

  5

  6

  7

 40
1.0
 41
2.5
 42
0.625
 43
3.75
 44
1.25
 45
0.0
 46
0.0
 47
0.0
 48
0.0
140
2.5
141
2.5
142
0.0
143
0.03937007874016
144
1.0
145
0.0
146
1.0
147
0.625
 71
     0
 72
     0
 73
     0
 74
     0
 75
     0
 76
     0
 77
     1
 78
     8
170
     0
171
     3
172
     1
173
     0
174
     0
175
     0
176
     7
177
     7
178
     7
270
     2
271
     2
272
     2
273
     2
274
     3
340
11
275
     0
280
     0
281
     0
282
     0
283
     0
284
     8
285
     0
286
     0
287
     3
288
     1
  0
DIMSTYLE
105
2AC
330
A
100
AcDbSymbolTableRecord
100
AcDbDimStyleTableRecord
  2
ISO
 70
     0
  3

  4
"
  5

  6

  7

 40
1.0
 41
3.5
 42
1.0
 43
10.0
 44
1.0
 45
0.0
 46
0.0
 47
0.1
 48
0.1
140
3.5
141
0.0
142
0.0
143
0.03937
144
1.0
145
0.0
146
0.71
147
1.5
 71
     0
 72
     0
 73
     0
 74
     0
 75
     0
 76
     0
 77
     1
 78
     8
170
     0
171
     3
172
     1
173
     0
174
     0
175
     0
176
     7
177
     7
178
     7
270
     2
271
     2
272
     3
273
     2
274
     3
340
11
275
     0
280
     0
281
     0
282
     0
283
     0
284
     8
285
     8
286
     0
287
     3
288
     1
  0
DIMSTYLE
105
2AD
330
A
100
AcDbSymbolTableRecord
100
AcDbDimStyleTableRecord
  2
ISO$3
 70
     0
  3

  4
"
  5

  6

  7

 40
1.0
 41
3.5
 42
1.0
 43
10.0
 44
1.0
 45
0.0
 46
0.0
 47
0.1
 48
0.1
140
3.5
141
0.0
142
0.0
143
0.03937
144
1.0
145
0.0
146
0.71
147
1.5
 71
     0
 72
     0
 73
     0
 74
     1
 75
     0
 76
     0
 77
     1
 78
     8
170
     0
171
     3
172
     0
173
     0
174
     0
175
     0
176
     7
177
     7
178
     7
270
     2
271
     2
272
     3
273
     2
274
     3
340
11
275
     0
280
     0
281
     0
282
     0
283
     0
284
     8
285
     8
286
     0
288
     1
  0
DIMSTYLE
105
2AE
330
A
100
AcDbSymbolTableRecord
100
AcDbDimStyleTableRecord
  2
ISO$4
 70
     0
  3

  4
"
  5

  6

  7

 40
1.0
 41
3.5
 42
1.0
 43
10.0
 44
1.0
 45
0.0
 46
0.0
 47
0.1
 48
0.1
140
3.5
141
0.0
142
0.0
143
0.03937
144
1.0
145
0.0
146
0.71
147
1.5
 71
     0
 72
     0
 73
     0
 74
     0
 75
     0
 76
     0
 77
     1
 78
     8
170
     0
171
     3
172
     1
173
     0
174
     0
175
     0
176
     7
177
     7
178
     7
270
     2
271
     2
272
     3
273
     2
274
     3
340
11
275
     0
280
     0
281
     0
282
     0
283
     0
284
     8
285
     8
286
     0
287
     3
288
     1
  0
DIMSTYLE
105
2AF
330
A
100
AcDbSymbolTableRecord
100
AcDbDimStyleTableRecord
  2
ISO$6
 70
     0
  3

  4
"
  5

  6

  7

 40
1.0
 41
0.5
 42
1.0
 43
10.0
 44
1.0
 45
0.0
 46
0.0
 47
0.1
 48
0.1
140
3.5
141
0.0
142
0.0
143
0.03937
144
1.0
145
0.0
146
0.71
147
1.5
 71
     0
 72
     0
 73
     0
 74
     0
 75
     0
 76
     0
 77
     0
 78
     8
170
     0
171
     3
172
     1
173
     0
174
     0
175
     0
176
     7
177
     7
178
     7
270
     2
271
     2
272
     3
273
     2
274
     3
340
11
275
     0
280
     0
281
     0
282
     0
283
     0
284
     8
285
     8
286
     0
287
     3
288
     1
  0
DIMSTYLE
105
2B0
330
A
100
AcDbSymbolTableRecord
100
AcDbDimStyleTableRecord
  2
ISO$7
 70
     0
  3

  4
"
  5

  6

  7

 40
1.0
 41
3.5
 42
1.0
 43
10.0
 44
1.0
 45
0.0
 46
0.0
 47
0.1
 48
0.1
140
3.5
141
0.0
142
0.0
143
0.03937
144
1.0
145
0.0
146
0.71
147
1.5
 71
     0
 72
     0
 73
     0
 74
     0
 75
     0
 76
     0
 77
     1
 78
     8
170
     0
171
     3
172
     1
173
     0
174
     0
175
     0
176
     7
177
     7
178
     7
270
     2
271
     2
272
     3
273
     2
274
     3
340
11
275
     0
280
     0
281
     0
282
     0
283
     0
284
     8
285
     8
286
     0
287
     3
288
     1
  0
DIMSTYLE
105
2B1
330
A
100
AcDbSymbolTableRecord
100
AcDbDimStyleTableRecord
  2
ISO$SF
 70
     0
  3

  4
"
  5

  6

  7

 40
1.0
 41
3.5
 42
1.0
 43
10.0
 44
1.0
 45
0.0
 46
0.0
 47
0.1
 48
0.1
140
3.5
141
0.0
142
0.0
143
0.03937
144
1.0
145
0.0
146
0.71
147
1.5
 71
     0
 72
     0
 73
     0
 74
     0
 75
     1
 76
     1
 77
     1
 78
     8
170
     0
171
     3
172
     1
173
     0
174
     0
175
     0
176
     7
177
     7
178
     7
270
     2
271
     2
272
     3
273
     2
274
     3
340
11
275
     0
280
     0
281
     0
282
     0
283
     0
284
     8
285
     8
286
     0
287
     3
288
     1
  0
DIMSTYLE
105
2B2
330
A
100
AcDbSymbolTableRecord
100
AcDbDimStyleTableRecord
  2
ISO$SH
 70
     0
  3

  4
"
  5

  6

  7

 40
1.0
 41
3.5
 42
1.0
 43
10.0
 44
1.0
 45
0.0
 46
0.0
 47
0.1
 48
0.1
140
3.5
141
0.0
142
0.0
143
0.03937
144
2.0
145
0.0
146
0.71
147
1.5
 71
     0
 72
     0
 73
     0
 74
     0
 75
     1
 76
     1
 77
     1
 78
     8
170
     0
171
     3
172
     1
173
     1
174
     0
175
     0
176
     7
177
     7
178
     7
270
     2
271
     2
272
     3
273
     2
274
     3
340
11
275
     0
280
     0
281
     0
282
     0
283
     0
284
     8
285
     8
286
     0
287
     3
288
     1
  0
DIMSTYLE
105
2B6
330
A
100
AcDbSymbolTableRecord
100
AcDbDimStyleTableRecord
  2
ONSHAPE-ISO-25$2
 70
     0
  3

  4

  5

  6

  7

 40
1.0
 41
2.5
 42
0.625
 43
3.75
 44
1.25
 45
0.0
 46
0.0
 47
0.0
 48
0.0
140
3.5
141
2.5
142
0.0
143
0.03937
144
1.0
145
0.0
146
1.0
147
0.625
 71
     0
 72
     0
 73
     0
 74
     0
 75
     0
 76
     0
 77
     1
 78
     8
170
     0
171
     3
172
     1
173
     0
174
     0
175
     0
176
     7
177
     7
178
     7
179
     1
270
     2
271
     2
272
     2
273
     2
274
     3
340
73
275
     0
280
     0
281
     0
282
     0
283
     0
284
     8
285
     8
286
     0
287
     3
288
     1
  0
DIMSTYLE
105
2B8
330
A
100
AcDbSymbolTableRecord
100
AcDbDimStyleTableRecord
  2
ONSHAPE-ISO-25$4
 70
     0
  3

  4

  5

  6

  7

 40
1.0
 41
2.5
 42
0.625
 43
3.75
 44
1.25
 45
0.0
 46
0.0
 47
0.0
 48
0.0
140
3.5
141
0.0
142
0.0
143
0.03937
144
1.0
145
0.0
146
1.0
147
0.625
 71
     0
 72
     0
 73
     0
 74
     0
 75
     0
 76
     0
 77
     1
 78
     8
170
     0
171
     3
172
     1
173
     0
174
     0
175
     0
176
     7
177
     7
178
     7
179
     1
270
     2
271
     2
272
     2
273
     2
274
     3
340
73
275
     0
280
     0
281
     0
282
     0
283
     0
284
     8
285
     8
286
     0
287
     3
288
     1
  0
DIMSTYLE
105
2B9
330
A
100
AcDbSymbolTableRecord
100
AcDbDimStyleTableRecord
  2
ONSHAPE-ISO-25$6
 70
     0
  3

  4

  5

  6

  7

 40
1.0
 41
0.5
 42
0.625
 43
3.75
 44
1.25
 45
0.0
 46
0.0
 47
0.0
 48
0.0
140
3.5
141
2.5
142
0.0
143
0.03937
144
1.0
145
0.0
146
1.0
147
0.625
 71
     0
 72
     0
 73
     0
 74
     0
 75
     0
 76
     0
 77
     1
 78
     8
170
     0
171
     3
172
     1
173
     0
174
     0
175
     0
176
     7
177
     7
178
     7
179
     1
270
     2
271
     2
272
     2
273
     2
274
     3
340
73
275
     0
280
     0
281
     0
282
     0
283
     0
284
     8
285
     8
286
     0
287
     3
288
     1
  0
DIMSTYLE
105
2BA
330
A
100
AcDbSymbolTableRecord
100
AcDbDimStyleTableRecord
  2
ONSHAPE-ISO-25$7
 70
     0
  3

  4

  5

  6

  7

 40
1.0
 41
2.5
 42
0.625
 43
3.75
 44
1.25
 45
0.0
 46
0.0
 47
0.0
 48
0.0
140
3.5
141
2.5
142
0.0
143
0.03937
144
1.0
145
0.0
146
1.0
147
0.625
 71
     0
 72
     0
 73
     0
 74
     0
 75
     0
 76
     0
 77
     1
 78
     8
170
     0
171
     3
172
     1
173
     0
174
     0
175
     0
176
     7
177
     7
178
     7
179
     1
270
     2
271
     2
272
     2
273
     2
274
     3
340
73
275
     0
280
     0
281
     0
282
     0
283
     0
284
     8
285
     8
286
     0
287
     3
288
     1
  0
DIMSTYLE
105
2BB
330
A
100
AcDbSymbolTableRecord
100
AcDbDimStyleTableRecord
  2
ONSHAPE-STANDARD-GTOLERANC
 70
     0
  3

  4

  5

  6

  7

 40
1.0
 41
2.5
 42
0.625
 43
3.75
 44
1.25
 45
0.0
 46
0.0
 47
0.0
 48
0.0
140
3.5
141
2.5
142
0.0
143
0.03937
144
1.0
145
0.0
146
1.0
147
0.625
 71
     0
 72
     0
 73
     0
 74
     0
 75
     0
 76
     0
 77
     1
 78
     8
170
     0
171
     3
172
     1
173
     0
174
     0
175
     0
176
     7
177
     7
178
     7
179
     1
270
     2
271
     2
272
     2
273
     2
274
     3
340
298
275
     0
280
     0
281
     0
282
     0
283
     0
284
     8
285
     8
286
     0
287
     3
288
     1
  0
DIMSTYLE
105
2BD
330
A
100
AcDbSymbolTableRecord
100
AcDbDimStyleTableRecord
  2
ONSHAPE-ORDINATESTYLE
 70
     0
  3

  4

  5

  6

  7

 40
1.0
 41
2.5
 42
0.625
 43
3.75
 44
1.25
 45
0.0
 46
0.0
 47
0.0
 48
0.0
140
3.5
141
2.5
142
0.0
143
0.03937
144
1.0
145
0.0
146
1.0
147
0.625
 71
     0
 72
     0
 73
     0
 74
     0
 75
     0
 76
     0
 77
     1
 78
     8
170
     0
171
     3
172
     1
173
     0
174
     0
175
     0
176
     7
177
     7
178
     7
179
     1
270
     2
271
     2
272
     2
273
     2
274
     3
340
73
275
     0
280
     0
281
     0
282
     0
283
     0
284
     8
285
     8
286
     0
287
     3
288
     1
  0
DIMSTYLE
105
2BE
330
A
100
AcDbSymbolTableRecord
100
AcDbDimStyleTableRecord
  2
ONSHAPE-CHAMFERDIMSTYLE
 70
     0
  3

  4

  5

  6

  7

 40
1.0
 41
2.5
 42
0.625
 43
3.75
 44
1.25
 45
0.0
 46
0.0
 47
0.0
 48
0.0
140
3.5
141
2.5
142
0.0
143
0.03937
144
1.0
145
0.0
146
1.0
147
0.625
 71
     0
 72
     0
 73
     0
 74
     0
 75
     0
 76
     0
 77
     1
 78
     8
170
     0
171
     3
172
     1
173
     0
174
     0
175
     0
176
     7
177
     7
178
     7
179
     1
270
     2
271
     2
272
     2
273
     2
274
     3
340
73
275
     0
280
     0
281
     0
282
     0
283
     0
284
     8
285
     8
286
     0
287
     3
288
     1
  0
ENDTAB
  0
TABLE
  2
BLOCK_RECORD
  5
1
330
0
100
AcDbSymbolTable
 70
    15
  0
BLOCK_RECORD
  5
1F
330
1
100
AcDbSymbolTableRecord
100
AcDbBlockTableRecord
  2
*MODEL_SPACE
  0
BLOCK_RECORD
  5
1B
330
1
100
AcDbSymbolTableRecord
100
AcDbBlockTableRecord
  2
*PAPER_SPACE
  0
BLOCK_RECORD
  5
10F
330
1
100
AcDbSymbolTableRecord
100
AcDbBlockTableRecord
  2
*D1
  0
BLOCK_RECORD
  5
125
330
1
100
AcDbSymbolTableRecord
100
AcDbBlockTableRecord
  2
*D2
  0
BLOCK_RECORD
  5
13B
330
1
100
AcDbSymbolTableRecord
100
AcDbBlockTableRecord
  2
*D3
  0
BLOCK_RECORD
  5
14C
330
1
100
AcDbSymbolTableRecord
100
AcDbBlockTableRecord
  2
*D4
  0
BLOCK_RECORD
  5
166
330
1
100
AcDbSymbolTableRecord
100
AcDbBlockTableRecord
  2
*D5
  0
BLOCK_RECORD
  5
179
330
1
100
AcDbSymbolTableRecord
100
AcDbBlockTableRecord
  2
*D6
  0
BLOCK_RECORD
  5
18A
330
1
100
AcDbSymbolTableRecord
100
AcDbBlockTableRecord
  2
*D7
  0
BLOCK_RECORD
  5
19B
330
1
100
AcDbSymbolTableRecord
100
AcDbBlockTableRecord
  2
*D8
  0
BLOCK_RECORD
  5
1AC
330
1
100
AcDbSymbolTableRecord
100
AcDbBlockTableRecord
  2
*D9
  0
BLOCK_RECORD
  5
1BD
330
1
100
AcDbSymbolTableRecord
100
AcDbBlockTableRecord
  2
*D10
  0
BLOCK_RECORD
  5
1CE
330
1
100
AcDbSymbolTableRecord
100
AcDbBlockTableRecord
  2
*D11
  0
BLOCK_RECORD
  5
1DE
330
1
100
AcDbSymbolTableRecord
100
AcDbBlockTableRecord
  2
*D12
  0
BLOCK_RECORD
  5
1EF
330
1
100
AcDbSymbolTableRecord
100
AcDbBlockTableRecord
  2
*D13
  0
BLOCK_RECORD
  5
201
330
1
100
AcDbSymbolTableRecord
100
AcDbBlockTableRecord
  2
*D14
  0
BLOCK_RECORD
  5
213
330
1
100
AcDbSymbolTableRecord
100
AcDbBlockTableRecord
  2
*D15
  0
ENDTAB
  0
ENDSEC
  0
SECTION
  2
BLOCKS
  0
BLOCK
  5
20
330
1F
100
AcDbEntity
  8
0
100
AcDbBlockBegin
  2
*MODEL_SPACE
 70
     0
 10
0.0
 20
0.0
 30
0.0
  3
*MODEL_SPACE
  1

  0
ENDBLK
  5
21
330
1F
100
AcDbEntity
  8
0
100
AcDbBlockEnd
  0
BLOCK
  5
1C
330
1B
100
AcDbEntity
 67
     1
  8
0
100
AcDbBlockBegin
  2
*PAPER_SPACE
 70
     0
 10
0.0
 20
0.0
 30
0.0
  3
*PAPER_SPACE
  1

  0
ENDBLK
  5
1D
330
1B
100
AcDbEntity
 67
     1
  8
0
100
AcDbBlockEnd
  0
BLOCK
  5
110
330
10F
100
AcDbEntity
  8
0
100
AcDbBlockBegin
  2
*D1
 70
     1
 10
0.0
 20
0.0
 30
0.0
  3
*D1
  1

  0
LINE
  5
111
330
10F
100
AcDbEntity
  8
ANNOTATION_TEXT
 62
     7
100
AcDbLine
 10
194.6533214984244
 20
104.8493174161769
 30
0.0
 11
203.9886711133325
 21
104.8493174161769
 31
0.0
  0
LINE
  5
113
330
10F
100
AcDbEntity
  8
ANNOTATION_TEXT
 62
     7
100
AcDbLine
 10
190.5033214984244
 20
67.34931741617689
 30
0.0
 11
203.9886711133325
 21
67.34931741617689
 31
0.0
  0
LINE
  5
114
330
10F
100
AcDbEntity
  8
ANNOTATION_TEXT
 62
     7
100
AcDbLine
 10
202.7386711133325
 20
102.3493174161769
 30
0.0
 11
202.7386711133325
 21
69.84931741617689
 31
0.0
  0
SOLID
  5
115
330
10F
100
AcDbEntity
  8
ANNOTATION_TEXT
 62
     7
100
AcDbTrace
 10
203.1553377799992
 20
102.3493174161769
 30
0.0
 11
202.3220044466659
 21
102.3493174161769
 31
0.0
 12
202.7386711133325
 22
104.8493174161769
 32
0.0
 13
202.7386711133325
 23
104.8493174161769
 33
0.0
  0
SOLID
  5
116
330
10F
100
AcDbEntity
  8
ANNOTATION_TEXT
 62
     7
100
AcDbTrace
 10
202.3220044466659
 20
69.84931741617689
 30
0.0
 11
203.1553377799992
 21
69.84931741617689
 31
0.0
 12
202.7386711133325
 22
67.34931741617689
 32
0.0
 13
202.7386711133325
 23
67.34931741617689
 33
0.0
  0
MTEXT
  5
117
330
10F
100
AcDbEntity
  8
ANNOTATION_TEXT
 62
     7
100
AcDbMText
 10
199.9774313313162
 20
86.84769003102855
 30
0.0
 40
3.5
 41
0.0
 71
     5
 72
     1
  1
(75)
  7
ONSHAPE-STANDARD-DIMENSION
 11
0.0
 21
1.0
 31
0.0
  0
POINT
  5
118
330
10F
100
AcDbEntity
  8
DEFPOINTS
 62
     0
100
AcDbPoint
 10
194.0283214984244
 20
104.8493174161769
 30
0.0
  0
POINT
  5
119
330
10F
100
AcDbEntity
  8
DEFPOINTS
 62
     0
100
AcDbPoint
 10
189.8783214984244
 20
67.34931741617689
 30
0.0
  0
POINT
  5
11A
330
10F
100
AcDbEntity
  8
DEFPOINTS
 62
     0
100
AcDbPoint
 10
202.7386711133325
 20
67.34931741617689
 30
0.0
  0
ENDBLK
  5
11B
330
10F
100
AcDbEntity
  8
0
100
AcDbBlockEnd
  0
BLOCK
  5
126
330
125
100
AcDbEntity
  8
0
100
AcDbBlockBegin
  2
*D2
 70
     1
 10
0.0
 20
0.0
 30
0.0
  3
*D2
  1

  0
LINE
  5
127
330
125
100
AcDbEntity
  8
ANNOTATION_TEXT
 62
     7
100
AcDbLine
 10
130.5283214984244
 20
70.8743174161769
 30
0.0
 11
130.5283214984244
 21
59.4526071400866
 31
0.0
  0
LINE
  5
128
330
125
100
AcDbEntity
  8
ANNOTATION_TEXT
 62
     7
100
AcDbLine
 10
191.0283214984244
 20
70.8743174161769
 30
0.0
 11
191.0283214984244
 21
59.4526071400866
 31
0.0
  0
LINE
  5
129
330
125
100
AcDbEntity
  8
ANNOTATION_TEXT
 62
     7
100
AcDbLine
 10
133.0283214984244
 20
60.7026071400866
 30
0.0
 11
188.5283214984244
 21
60.7026071400866
 31
0.0
  0
SOLID
  5
12A
330
125
100
AcDbEntity
  8
ANNOTATION_TEXT
 62
     7
100
AcDbTrace
 10
133.0283214984244
 20
61.11927380675326
 30
0.0
 11
133.0283214984244
 21
60.28594047341993
 31
0.0
 12
130.5283214984244
 22
60.7026071400866
 32
0.0
 13
130.5283214984244
 23
60.7026071400866
 33
0.0
  0
SOLID
  5
12B
330
125
100
AcDbEntity
  8
ANNOTATION_TEXT
 62
     7
100
AcDbTrace
 10
188.5283214984244
 20
60.28594047341993
 30
0.0
 11
188.5283214984244
 21
61.11927380675326
 31
0.0
 12
191.0283214984244
 22
60.7026071400866
 32
0.0
 13
191.0283214984244
 23
60.7026071400866
 33
0.0
  0
MTEXT
  5
12C
330
125
100
AcDbEntity
  8
ANNOTATION_TEXT
 62
     7
100
AcDbMText
 10
163.5043569564694
 20
63.4817283934926
 30
0.0
 40
3.5
 41
0.0
 71
     5
 72
     1
  1
(121)
  7
ONSHAPE-STANDARD-DIMENSION
  0
POINT
  5
12D
330
125
100
AcDbEntity
  8
DEFPOINTS
 62
     0
100
AcDbPoint
 10
130.5283214984244
 20
71.4993174161769
 30
0.0
  0
POINT
  5
12E
330
125
100
AcDbEntity
  8
DEFPOINTS
 62
     0
100
AcDbPoint
 10
191.0283214984244
 20
71.4993174161769
 30
0.0
  0
POINT
  5
12F
330
125
100
AcDbEntity
  8
DEFPOINTS
 62
     0
100
AcDbPoint
 10
191.0283214984244
 20
60.7026071400866
 30
0.0
  0
ENDBLK
  5
130
330
125
100
AcDbEntity
  8
0
100
AcDbBlockEnd
  0
BLOCK
  5
13C
330
13B
100
AcDbEntity
  8
0
100
AcDbBlockBegin
  2
*D3
 70
     1
 10
0.0
 20
0.0
 30
0.0
  3
*D3
  1

  0
LINE
  5
13D
330
13B
100
AcDbEntity
  8
ANNOTATION_TEXT
 62
     7
100
AcDbLine
 10
235.6755894658945
 20
102.3821379062404
 30
0.0
 11
252.3492779272063
 21
113.6751583643564
 31
0.0
  0
LINE
  5
13E
330
13B
100
AcDbEntity
  8
ANNOTATION_TEXT
 62
     7
100
AcDbLine
 10
229.6728348131778
 20
98.31649692611337
 30
0.0
 11
227.6029194156893
 21
96.91455176055233
 31
0.0
  0
MTEXT
  5
13F
330
13B
100
AcDbEntity
  8
ANNOTATION_TEXT
 62
     7
100
AcDbMText
 10
246.0993918227876
 20
112.7771032280878
 30
0.0
 40
3.5
 41
0.0
 71
     5
 72
     1
  1
%%c4,5
  7
ONSHAPE-STANDARD-DIMENSION
 11
0.8279661589954025
 21
0.5607780662244201
 31
0.0
  0
LINE
  5
140
330
13B
100
AcDbEntity
  8
ANNOTATION_TEXT
 62
     7
100
AcDbLine
 10
231.7427502106663
 20
99.71844209167442
 30
0.0
 11
233.605674068406
 21
100.9801927406794
 31
0.0
  0
SOLID
  5
141
330
13B
100
AcDbEntity
  8
ANNOTATION_TEXT
 62
     7
100
AcDbTrace
 10
229.9064923407714
 20
97.97151102653196
 30
0.0
 11
229.4391772855843
 21
98.66148282569479
 31
0.0
 12
231.7427502106663
 22
99.71844209167442
 32
0.0
 13
231.7427502106663
 23
99.71844209167442
 33
0.0
  0
SOLID
  5
142
330
13B
100
AcDbEntity
  8
ANNOTATION_TEXT
 62
     7
100
AcDbTrace
 10
235.441931938301
 20
102.7271238058218
 30
0.0
 11
235.909246993488
 21
102.037152006659
 31
0.0
 12
233.605674068406
 22
100.9801927406794
 32
0.0
 13
233.605674068406
 23
100.9801927406794
 33
0.0
  0
POINT
  5
143
330
13B
100
AcDbEntity
  8
DEFPOINTS
 62
     0
100
AcDbPoint
 10
233.605674068406
 20
100.9801927406794
 30
0.0
  0
POINT
  5
144
330
13B
100
AcDbEntity
  8
DEFPOINTS
 62
     0
100
AcDbPoint
 10
231.7427502106663
 20
99.71844209167442
 30
0.0
  0
ENDBLK
  5
145
330
13B
100
AcDbEntity
  8
0
100
AcDbBlockEnd
  0
BLOCK
  5
14D
330
14C
100
AcDbEntity
  8
0
100
AcDbBlockBegin
  2
*D4
 70
     1
 10
0.0
 20
0.0
 30
0.0
  3
*D4
  1

  0
LINE
  5
14E
330
14C
100
AcDbEntity
  8
ANNOTATION_TEXT
 62
     7
100
AcDbLine
 10
245.2992121395362
 20
104.8493174161769
 30
0.0
 11
231.4216400637273
 21
104.8493174161769
 31
0.0
  0
LINE
  5
14F
330
14C
100
AcDbEntity
  8
ANNOTATION_TEXT
 62
     7
100
AcDbLine
 10
232.0492121395362
 20
100.3493174161769
 30
0.0
 11
231.4216400637273
 21
100.3493174161769
 31
0.0
  0
LINE
  5
150
330
14C
100
AcDbEntity
  8
ANNOTATION_TEXT
 62
     7
100
AcDbLine
 10
232.6716400637273
 20
104.8493174161769
 30
0.0
 11
232.6716400637273
 21
115.433786081027
 31
0.0
  0
LINE
  5
151
330
14C
100
AcDbEntity
  8
ANNOTATION_TEXT
 62
     7
100
AcDbLine
 10
232.6716400637273
 20
104.8493174161769
 30
0.0
 11
232.6716400637273
 21
100.3493174161769
 31
0.0
  0
LINE
  5
152
330
14C
100
AcDbEntity
  8
ANNOTATION_TEXT
 62
     7
100
AcDbLine
 10
232.6716400637273
 20
107.3493174161769
 30
0.0
 11
232.6716400637273
 21
109.8493174161769
 31
0.0
  0
LINE
  5
153
330
14C
100
AcDbEntity
  8
ANNOTATION_TEXT
 62
     7
100
AcDbLine
 10
232.6716400637273
 20
97.84931741617689
 30
0.0
 11
232.6716400637273
 21
95.34931741617689
 31
0.0
  0
SOLID
  5
154
330
14C
100
AcDbEntity
  8
ANNOTATION_TEXT
 62
     7
100
AcDbTrace
 10
232.2549733970606
 20
107.3493174161769
 30
0.0
 11
233.0883067303939
 21
107.3493174161769
 31
0.0
 12
232.6716400637273
 22
104.8493174161769
 32
0.0
 13
232.6716400637273
 23
104.8493174161769
 33
0.0
  0
SOLID
  5
155
330
14C
100
AcDbEntity
  8
ANNOTATION_TEXT
 62
     7
100
AcDbTrace
 10
233.0883067303939
 20
97.84931741617689
 30
0.0
 11
232.2549733970606
 21
97.84931741617689
 31
0.0
 12
232.6716400637273
 22
100.3493174161769
 32
0.0
 13
232.6716400637273
 23
100.3493174161769
 33
0.0
  0
MTEXT
  5
156
330
14C
100
AcDbEntity
  8
ANNOTATION_TEXT
 62
     7
100
AcDbMText
 10
230.2549166304848
 20
113.6607956178118
 30
0.0
 40
3.5
 41
0.0
 71
     5
 72
     1
  1
9
  7
ONSHAPE-STANDARD-DIMENSION
 11
0.0
 21
1.0
 31
0.0
  0
POINT
  5
157
330
14C
100
AcDbEntity
  8
DEFPOINTS
 62
     0
100
AcDbPoint
 10
245.9242121395362
 20
104.8493174161769
 30
0.0
  0
POINT
  5
158
330
14C
100
AcDbEntity
  8
DEFPOINTS
 62
     0
100
AcDbPoint
 10
232.6742121395362
 20
100.3493174161769
 30
0.0
  0
POINT
  5
159
330
14C
100
AcDbEntity
  8
DEFPOINTS
 62
     0
100
AcDbPoint
 10
232.6716400637273
 20
100.3493174161769
 30
0.0
  0
ENDBLK
  5
15A
330
14C
100
AcDbEntity
  8
0
100
AcDbBlockEnd
  0
BLOCK
  5
167
330
166
100
AcDbEntity
  8
0
100
AcDbBlockBegin
  2
*D5
 70
     1
 10
0.0
 20
0.0
 30
0.0
  3
*D5
  1

  0
LINE
  5
168
330
166
100
AcDbEntity
  8
ANNOTATION_TEXT
 62
     7
100
AcDbLine
 10
17.55518792994911
 20
136.3812728251815
 30
0.0
 11
17.55518792994911
 21
125.5667017963032
 31
0.0
  0
LINE
  5
169
330
166
100
AcDbEntity
  8
ANNOTATION_TEXT
 62
     7
100
AcDbLine
 10
84.25518792994912
 20
136.3812728251815
 30
0.0
 11
84.25518792994912
 21
125.5667017963032
 31
0.0
  0
LINE
  5
16A
330
166
100
AcDbEntity
  8
ANNOTATION_TEXT
 62
     7
100
AcDbLine
 10
20.05518792994911
 20
126.8167017963032
 30
0.0
 11
81.75518792994912
 21
126.8167017963032
 31
0.0
  0
SOLID
  5
16B
330
166
100
AcDbEntity
  8
ANNOTATION_TEXT
 62
     7
100
AcDbTrace
 10
20.05518792994911
 20
127.2333684629699
 30
0.0
 11
20.05518792994911
 21
126.4000351296365
 31
0.0
 12
17.55518792994911
 22
126.8167017963032
 32
0.0
 13
17.55518792994911
 23
126.8167017963032
 33
0.0
  0
SOLID
  5
16C
330
166
100
AcDbEntity
  8
ANNOTATION_TEXT
 62
     7
100
AcDbTrace
 10
81.75518792994912
 20
126.4000351296365
 30
0.0
 11
81.75518792994912
 21
127.2333684629699
 31
0.0
 12
84.25518792994912
 22
126.8167017963032
 32
0.0
 13
84.25518792994912
 23
126.8167017963032
 33
0.0
  0
MTEXT
  5
16D
330
166
100
AcDbEntity
  8
ANNOTATION_TEXT
 62
     7
100
AcDbMText
 10
51.40518792994911
 20
129.5958230497092
 30
0.0
 40
3.5
 41
0.0
 71
     5
 72
     1
  1
(66,7)
  7
ONSHAPE-STANDARD-DIMENSION
  0
POINT
  5
16E
330
166
100
AcDbEntity
  8
DEFPOINTS
 62
     0
100
AcDbPoint
 10
17.55518792994911
 20
137.0062728251815
 30
0.0
  0
POINT
  5
16F
330
166
100
AcDbEntity
  8
DEFPOINTS
 62
     0
100
AcDbPoint
 10
84.25518792994912
 20
137.0062728251815
 30
0.0
  0
POINT
  5
170
330
166
100
AcDbEntity
  8
DEFPOINTS
 62
     0
100
AcDbPoint
 10
84.25518792994912
 20
126.8167017963032
 30
0.0
  0
ENDBLK
  5
171
330
166
100
AcDbEntity
  8
0
100
AcDbBlockEnd
  0
BLOCK
  5
17A
330
179
100
AcDbEntity
  8
0
100
AcDbBlockBegin
  2
*D6
 70
     1
 10
0.0
 20
0.0
 30
0.0
  3
*D6
  1

  0
LINE
  5
17B
330
179
100
AcDbEntity
  8
ANNOTATION_TEXT
 62
     7
100
AcDbLine
 10
92.10916956392361
 20
136.3812728251815
 30
0.0
 11
92.10916956392361
 21
125.5667017963032
 31
0.0
  0
LINE
  5
17C
330
179
100
AcDbEntity
  8
ANNOTATION_TEXT
 62
     7
100
AcDbLine
 10
208.5091695639236
 20
136.3812728251815
 30
0.0
 11
208.5091695639236
 21
125.5667017963032
 31
0.0
  0
LINE
  5
17D
330
179
100
AcDbEntity
  8
ANNOTATION_TEXT
 62
     7
100
AcDbLine
 10
94.60916956392361
 20
126.8167017963032
 30
0.0
 11
206.0091695639236
 21
126.8167017963032
 31
0.0
  0
SOLID
  5
17E
330
179
100
AcDbEntity
  8
ANNOTATION_TEXT
 62
     7
100
AcDbTrace
 10
94.60916956392361
 20
127.2333684629699
 30
0.0
 11
94.60916956392361
 21
126.4000351296365
 31
0.0
 12
92.10916956392361
 22
126.8167017963032
 32
0.0
 13
92.10916956392361
 23
126.8167017963032
 33
0.0
  0
SOLID
  5
17F
330
179
100
AcDbEntity
  8
ANNOTATION_TEXT
 62
     7
100
AcDbTrace
 10
206.0091695639236
 20
126.4000351296365
 30
0.0
 11
206.0091695639236
 21
127.2333684629699
 31
0.0
 12
208.5091695639236
 22
126.8167017963032
 32
0.0
 13
208.5091695639236
 23
126.8167017963032
 33
0.0
  0
MTEXT
  5
180
330
179
100
AcDbEntity
  8
ANNOTATION_TEXT
 62
     7
100
AcDbMText
 10
143.433009202257
 20
129.5958230497092
 30
0.0
 40
3.5
 41
0.0
 71
     5
 72
     1
  1
(116,4)
  7
ONSHAPE-STANDARD-DIMENSION
  0
POINT
  5
181
330
179
100
AcDbEntity
  8
DEFPOINTS
 62
     0
100
AcDbPoint
 10
92.10916956392361
 20
137.0062728251815
 30
0.0
  0
POINT
  5
182
330
179
100
AcDbEntity
  8
DEFPOINTS
 62
     0
100
AcDbPoint
 10
208.5091695639236
 20
137.0062728251815
 30
0.0
  0
POINT
  5
183
330
179
100
AcDbEntity
  8
DEFPOINTS
 62
     0
100
AcDbPoint
 10
208.5091695639236
 20
126.8167017963032
 30
0.0
  0
ENDBLK
  5
184
330
179
100
AcDbEntity
  8
0
100
AcDbBlockEnd
  0
BLOCK
  5
18B
330
18A
100
AcDbEntity
  8
0
100
AcDbBlockBegin
  2
*D7
 70
     1
 10
0.0
 20
0.0
 30
0.0
  3
*D7
  1

  0
LINE
  5
18C
330
18A
100
AcDbEntity
  8
ANNOTATION_TEXT
 62
     7
100
AcDbLine
 10
17.55518792994911
 20
136.3812728251815
 30
0.0
 11
17.55518792994911
 21
112.2232904638473
 31
0.0
  0
LINE
  5
18D
330
18A
100
AcDbEntity
  8
ANNOTATION_TEXT
 62
     7
100
AcDbLine
 10
88.18217874693632
 20
136.3812728251815
 30
0.0
 11
88.18217874693632
 21
112.2232904638473
 31
0.0
  0
LINE
  5
18E
330
18A
100
AcDbEntity
  8
ANNOTATION_TEXT
 62
     7
100
AcDbLine
 10
20.05518792994911
 20
113.4732904638473
 30
0.0
 11
85.68217874693632
 21
113.4732904638473
 31
0.0
  0
SOLID
  5
18F
330
18A
100
AcDbEntity
  8
ANNOTATION_TEXT
 62
     7
100
AcDbTrace
 10
20.05518792994911
 20
113.889957130514
 30
0.0
 11
20.05518792994911
 21
113.0566237971807
 31
0.0
 12
17.55518792994911
 22
113.4732904638473
 32
0.0
 13
17.55518792994911
 23
113.4732904638473
 33
0.0
  0
SOLID
  5
190
330
18A
100
AcDbEntity
  8
ANNOTATION_TEXT
 62
     7
100
AcDbTrace
 10
85.68217874693632
 20
113.0566237971807
 30
0.0
 11
85.68217874693632
 21
113.889957130514
 31
0.0
 12
88.18217874693632
 22
113.4732904638473
 32
0.0
 13
88.18217874693632
 23
113.4732904638473
 33
0.0
  0
MTEXT
  5
191
330
18A
100
AcDbEntity
  8
ANNOTATION_TEXT
 62
     7
100
AcDbMText
 10
73.58498088703769
 20
116.18327002788
 30
0.0
 40
3.5
 41
0.0
 71
     5
 72
     1
  1
70,63
  7
ONSHAPE-STANDARD-DIMENSION
  0
POINT
  5
192
330
18A
100
AcDbEntity
  8
DEFPOINTS
 62
     0
100
AcDbPoint
 10
17.55518792994911
 20
137.0062728251815
 30
0.0
  0
POINT
  5
193
330
18A
100
AcDbEntity
  8
DEFPOINTS
 62
     0
100
AcDbPoint
 10
88.18217874693632
 20
137.0062728251815
 30
0.0
  0
POINT
  5
194
330
18A
100
AcDbEntity
  8
DEFPOINTS
 62
     0
100
AcDbPoint
 10
88.18217874693632
 20
113.4732904638473
 30
0.0
  0
ENDBLK
  5
195
330
18A
100
AcDbEntity
  8
0
100
AcDbBlockEnd
  0
BLOCK
  5
19C
330
19B
100
AcDbEntity
  8
0
100
AcDbBlockBegin
  2
*D8
 70
     1
 10
0.0
 20
0.0
 30
0.0
  3
*D8
  1

  0
LINE
  5
19D
330
19B
100
AcDbEntity
  8
ANNOTATION_TEXT
 62
     7
100
AcDbLine
 10
17.55518792994911
 20
190.6312728251815
 30
0.0
 11
17.55518792994911
 21
194.1090883756718
 31
0.0
  0
LINE
  5
19E
330
19B
100
AcDbEntity
  8
ANNOTATION_TEXT
 62
     7
100
AcDbLine
 10
283.0631511978982
 20
190.6312728251816
 30
0.0
 11
283.0631511978982
 21
194.1090883756718
 31
0.0
  0
LINE
  5
19F
330
19B
100
AcDbEntity
  8
ANNOTATION_TEXT
 62
     7
100
AcDbLine
 10
20.05518792994911
 20
192.8590883756718
 30
0.0
 11
280.5631511978982
 21
192.8590883756718
 31
0.0
  0
SOLID
  5
1A0
330
19B
100
AcDbEntity
  8
ANNOTATION_TEXT
 62
     7
100
AcDbTrace
 10
20.05518792994911
 20
193.2757550423385
 30
0.0
 11
20.05518792994911
 21
192.4424217090052
 31
0.0
 12
17.55518792994911
 22
192.8590883756718
 32
0.0
 13
17.55518792994911
 23
192.8590883756718
 33
0.0
  0
SOLID
  5
1A1
330
19B
100
AcDbEntity
  8
ANNOTATION_TEXT
 62
     7
100
AcDbTrace
 10
280.5631511978982
 20
192.4424217090052
 30
0.0
 11
280.5631511978982
 21
193.2757550423385
 31
0.0
 12
283.0631511978982
 22
192.8590883756718
 32
0.0
 13
283.0631511978982
 23
192.8590883756718
 33
0.0
  0
MTEXT
  5
1A2
330
19B
100
AcDbEntity
  8
ANNOTATION_TEXT
 62
     7
100
AcDbMText
 10
182.9350721104365
 20
195.5666837435192
 30
0.0
 40
3.5
 41
0.0
 71
     5
 72
     1
  1
265,51
  7
ONSHAPE-STANDARD-DIMENSION
  0
POINT
  5
1A3
330
19B
100
AcDbEntity
  8
DEFPOINTS
 62
     0
100
AcDbPoint
 10
17.55518792994911
 20
190.0062728251815
 30
0.0
  0
POINT
  5
1A4
330
19B
100
AcDbEntity
  8
DEFPOINTS
 62
     0
100
AcDbPoint
 10
283.0631511978982
 20
190.0062728251816
 30
0.0
  0
POINT
  5
1A5
330
19B
100
AcDbEntity
  8
DEFPOINTS
 62
     0
100
AcDbPoint
 10
283.0631511978982
 20
192.8590883756718
 30
0.0
  0
ENDBLK
  5
1A6
330
19B
100
AcDbEntity
  8
0
100
AcDbBlockEnd
  0
BLOCK
  5
1AD
330
1AC
100
AcDbEntity
  8
0
100
AcDbBlockBegin
  2
*D9
 70
     1
 10
0.0
 20
0.0
 30
0.0
  3
*D9
  1

  0
LINE
  5
1AE
330
1AC
100
AcDbEntity
  8
ANNOTATION_TEXT
 62
     7
100
AcDbLine
 10
219.4242121395362
 20
66.72431741617689
 30
0.0
 11
219.4242121395362
 21
59.45260714008659
 31
0.0
  0
LINE
  5
1AF
330
1AC
100
AcDbEntity
  8
ANNOTATION_TEXT
 62
     7
100
AcDbLine
 10
245.9242121395362
 20
66.72431741617689
 30
0.0
 11
245.9242121395362
 21
59.45260714008659
 31
0.0
  0
LINE
  5
1B0
330
1AC
100
AcDbEntity
  8
ANNOTATION_TEXT
 62
     7
100
AcDbLine
 10
221.9242121395362
 20
60.70260714008659
 30
0.0
 11
243.4242121395362
 21
60.70260714008659
 31
0.0
  0
SOLID
  5
1B1
330
1AC
100
AcDbEntity
  8
ANNOTATION_TEXT
 62
     7
100
AcDbTrace
 10
221.9242121395362
 20
61.11927380675326
 30
0.0
 11
221.9242121395362
 21
60.28594047341993
 31
0.0
 12
219.4242121395362
 22
60.70260714008659
 32
0.0
 13
219.4242121395362
 23
60.70260714008659
 33
0.0
  0
SOLID
  5
1B2
330
1AC
100
AcDbEntity
  8
ANNOTATION_TEXT
 62
     7
100
AcDbTrace
 10
243.4242121395362
 20
60.28594047341993
 30
0.0
 11
243.4242121395362
 21
61.11927380675326
 31
0.0
 12
245.9242121395362
 22
60.70260714008659
 32
0.0
 13
245.9242121395362
 23
60.70260714008659
 33
0.0
  0
MTEXT
  5
1B3
330
1AC
100
AcDbEntity
  8
ANNOTATION_TEXT
 62
     7
100
AcDbMText
 10
233.4216400637273
 20
63.1193305733291
 30
0.0
 40
3.5
 41
0.0
 71
     5
 72
     1
  1
53
  7
ONSHAPE-STANDARD-DIMENSION
  0
POINT
  5
1B4
330
1AC
100
AcDbEntity
  8
DEFPOINTS
 62
     0
100
AcDbPoint
 10
219.4242121395362
 20
67.34931741617689
 30
0.0
  0
POINT
  5
1B5
330
1AC
100
AcDbEntity
  8
DEFPOINTS
 62
     0
100
AcDbPoint
 10
245.9242121395362
 20
67.34931741617689
 30
0.0
  0
POINT
  5
1B6
330
1AC
100
AcDbEntity
  8
DEFPOINTS
 62
     0
100
AcDbPoint
 10
245.9242121395362
 20
60.70260714008659
 30
0.0
  0
ENDBLK
  5
1B7
330
1AC
100
AcDbEntity
  8
0
100
AcDbBlockEnd
  0
BLOCK
  5
1BE
330
1BD
100
AcDbEntity
  8
0
100
AcDbBlockBegin
  2
*D10
 70
     1
 10
0.0
 20
0.0
 30
0.0
  3
*D10
  1

  0
LINE
  5
1BF
330
1BD
100
AcDbEntity
  8
ANNOTATION_TEXT
 62
     7
100
AcDbLine
 10
232.6742121395362
 20
100.9743174161769
 30
0.0
 11
232.6742121395362
 21
101.5993174161769
 31
0.0
  0
LINE
  5
1C0
330
1BD
100
AcDbEntity
  8
ANNOTATION_TEXT
 62
     7
100
AcDbLine
 10
245.9242121395362
 20
99.79078713552697
 30
0.0
 11
245.9242121395362
 21
99.09931741617689
 31
0.0
  0
LINE
  5
1C1
330
1BD
100
AcDbEntity
  8
ANNOTATION_TEXT
 62
     7
100
AcDbLine
 10
245.9242121395362
 20
100.3493174161769
 30
0.0
 11
259.5856844043162
 21
100.3493174161769
 31
0.0
  0
LINE
  5
1C2
330
1BD
100
AcDbEntity
  8
ANNOTATION_TEXT
 62
     7
100
AcDbLine
 10
235.1742121395362
 20
100.3493174161769
 30
0.0
 11
243.4242121395362
 21
100.3493174161769
 31
0.0
  0
SOLID
  5
1C3
330
1BD
100
AcDbEntity
  8
ANNOTATION_TEXT
 62
     7
100
AcDbTrace
 10
235.1742121395362
 20
100.7659840828436
 30
0.0
 11
235.1742121395362
 21
99.93265074951022
 31
0.0
 12
232.6742121395362
 22
100.3493174161769
 32
0.0
 13
232.6742121395362
 23
100.3493174161769
 33
0.0
  0
SOLID
  5
1C4
330
1BD
100
AcDbEntity
  8
ANNOTATION_TEXT
 62
     7
100
AcDbTrace
 10
243.4242121395362
 20
99.93265074951022
 30
0.0
 11
243.4242121395362
 21
100.7659840828436
 31
0.0
 12
245.9242121395362
 22
100.3493174161769
 32
0.0
 13
245.9242121395362
 23
100.3493174161769
 33
0.0
  0
MTEXT
  5
1C5
330
1BD
100
AcDbEntity
  8
ANNOTATION_TEXT
 62
     7
100
AcDbMText
 10
254.3734909438258
 20
103.0569127840243
 30
0.0
 40
3.5
 41
0.0
 71
     5
 72
     1
  1
26,5
  7
ONSHAPE-STANDARD-DIMENSION
  0
POINT
  5
1C6
330
1BD
100
AcDbEntity
  8
DEFPOINTS
 62
     0
100
AcDbPoint
 10
232.6742121395362
 20
100.3493174161769
 30
0.0
  0
POINT
  5
1C7
330
1BD
100
AcDbEntity
  8
DEFPOINTS
 62
     0
100
AcDbPoint
 10
245.9242121395362
 20
100.415787135527
 30
0.0
  0
POINT
  5
1C8
330
1BD
100
AcDbEntity
  8
DEFPOINTS
 62
     0
100
AcDbPoint
 10
245.9242121395362
 20
100.3493174161769
 30
0.0
  0
ENDBLK
  5
1C9
330
1BD
100
AcDbEntity
  8
0
100
AcDbBlockEnd
  0
BLOCK
  5
1CF
330
1CE
100
AcDbEntity
  8
0
100
AcDbBlockBegin
  2
*D11
 70
     1
 10
0.0
 20
0.0
 30
0.0
  3
*D11
  1

  0
LINE
  5
1D0
330
1CE
100
AcDbEntity
  8
ANNOTATION_TEXT
 62
     7
100
AcDbLine
 10
127.2511779231864
 20
179.5067981925424
 30
0.0
 11
152.0612382491829
 21
162.9349174094407
 31
0.0
  0
LINE
  5
1D1
330
1CE
100
AcDbEntity
  8
ANNOTATION_TEXT
 62
     7
100
AcDbLine
 10
119.7671612046606
 20
184.5057474578207
 30
0.0
 11
117.6882676717368
 21
185.8943444759535
 31
0.0
  0
MTEXT
  5
1D2
330
1CE
100
AcDbEntity
  8
ANNOTATION_TEXT
 62
     7
100
AcDbMText
 10
150.3607849428837
 20
167.1031513362171
 30
0.0
 40
3.5
 41
0.0
 71
     5
 72
     1
  1
%%c4
  7
ONSHAPE-STANDARD-DIMENSION
 11
0.8315574131695351
 21
-0.5554388072531402
 31
0.0
  0
LINE
  5
1D3
330
1CE
100
AcDbEntity
  8
ANNOTATION_TEXT
 62
     7
100
AcDbLine
 10
121.8460547375845
 20
183.1171504396878
 30
0.0
 11
125.1722843902626
 21
180.8953952106752
 31
0.0
  0
SOLID
  5
1D4
330
1CE
100
AcDbEntity
  8
ANNOTATION_TEXT
 62
     7
100
AcDbTrace
 10
119.5357283683051
 20
184.1592652023334
 30
0.0
 11
119.9985940410161
 21
184.852229713308
 31
0.0
 12
121.8460547375845
 22
183.1171504396878
 32
0.0
 13
121.8460547375845
 23
183.1171504396878
 33
0.0
  0
SOLID
  5
1D5
330
1CE
100
AcDbEntity
  8
ANNOTATION_TEXT
 62
     7
100
AcDbTrace
 10
127.4826107595419
 20
179.8532804480297
 30
0.0
 11
127.019745086831
 21
179.1603159370551
 31
0.0
 12
125.1722843902626
 22
180.8953952106752
 32
0.0
 13
125.1722843902626
 23
180.8953952106752
 33
0.0
  0
POINT
  5
1D6
330
1CE
100
AcDbEntity
  8
DEFPOINTS
 62
     0
100
AcDbPoint
 10
125.1722843902626
 20
180.8953952106752
 30
0.0
  0
POINT
  5
1D7
330
1CE
100
AcDbEntity
  8
DEFPOINTS
 62
     0
100
AcDbPoint
 10
121.8460547375845
 20
183.1171504396878
 30
0.0
  0
ENDBLK
  5
1D8
330
1CE
100
AcDbEntity
  8
0
100
AcDbBlockEnd
  0
BLOCK
  5
1DF
330
1DE
100
AcDbEntity
  8
0
100
AcDbBlockBegin
  2
*D12
 70
     1
 10
0.0
 20
0.0
 30
0.0
  3
*D12
  1

  0
LINE
  5
1E0
330
1DE
100
AcDbEntity
  8
ANNOTATION_TEXT
 62
     7
100
AcDbLine
 10
122.8841695639235
 20
145.0062728251815
 30
0.0
 11
114.5408402212482
 21
145.0062728251815
 31
0.0
  0
LINE
  5
1E1
330
1DE
100
AcDbEntity
  8
ANNOTATION_TEXT
 62
     7
100
AcDbLine
 10
92.73416956392361
 20
137.0062728251815
 30
0.0
 11
117.0408402212482
 21
137.0062728251815
 31
0.0
  0
LINE
  5
1E2
330
1DE
100
AcDbEntity
  8
ANNOTATION_TEXT
 62
     7
100
AcDbLine
 10
115.7908402212482
 20
142.5062728251815
 30
0.0
 11
115.7908402212482
 21
139.5062728251815
 31
0.0
  0
SOLID
  5
1E3
330
1DE
100
AcDbEntity
  8
ANNOTATION_TEXT
 62
     7
100
AcDbTrace
 10
116.2075068879148
 20
142.5062728251815
 30
0.0
 11
115.3741735545815
 21
142.5062728251815
 31
0.0
 12
115.7908402212482
 22
145.0062728251815
 32
0.0
 13
115.7908402212482
 23
145.0062728251815
 33
0.0
  0
SOLID
  5
1E4
330
1DE
100
AcDbEntity
  8
ANNOTATION_TEXT
 62
     7
100
AcDbTrace
 10
115.3741735545815
 20
139.5062728251815
 30
0.0
 11
116.2075068879148
 21
139.5062728251815
 31
0.0
 12
115.7908402212482
 22
137.0062728251815
 32
0.0
 13
115.7908402212482
 23
137.0062728251815
 33
0.0
  0
MTEXT
  5
1E5
330
1DE
100
AcDbEntity
  8
ANNOTATION_TEXT
 62
     7
100
AcDbMText
 10
113.3741167880057
 20
141.0062728251815
 30
0.0
 40
3.5
 41
0.0
 71
     5
 72
     1
  1
8
  7
ONSHAPE-STANDARD-DIMENSION
 11
0.0
 21
1.0
 31
0.0
  0
POINT
  5
1E6
330
1DE
100
AcDbEntity
  8
DEFPOINTS
 62
     0
100
AcDbPoint
 10
123.5091695639235
 20
145.0062728251815
 30
0.0
  0
POINT
  5
1E7
330
1DE
100
AcDbEntity
  8
DEFPOINTS
 62
     0
100
AcDbPoint
 10
92.10916956392361
 20
137.0062728251815
 30
0.0
  0
POINT
  5
1E8
330
1DE
100
AcDbEntity
  8
DEFPOINTS
 62
     0
100
AcDbPoint
 10
115.7908402212482
 20
137.0062728251815
 30
0.0
  0
ENDBLK
  5
1E9
330
1DE
100
AcDbEntity
  8
0
100
AcDbBlockEnd
  0
BLOCK
  5
1F0
330
1EF
100
AcDbEntity
  8
0
100
AcDbBlockBegin
  2
*D13
 70
     1
 10
0.0
 20
0.0
 30
0.0
  3
*D13
  1

  0
LINE
  5
1F1
330
1EF
100
AcDbEntity
  8
ANNOTATION_TEXT
 62
     7
100
AcDbLine
 10
177.1091695639236
 20
144.3812728251815
 30
0.0
 11
177.1091695639236
 21
139.7562728251816
 31
0.0
  0
LINE
  5
1F2
330
1EF
100
AcDbEntity
  8
ANNOTATION_TEXT
 62
     7
100
AcDbLine
 10
283.0631511978982
 20
137.6312728251816
 30
0.0
 11
283.0631511978982
 21
142.2562728251816
 31
0.0
  0
LINE
  5
1F3
330
1EF
100
AcDbEntity
  8
ANNOTATION_TEXT
 62
     7
100
AcDbLine
 10
177.1091695639236
 20
141.0062728251816
 30
0.0
 11
144.5657008045947
 21
141.0062728251816
 31
0.0
  0
LINE
  5
1F4
330
1EF
100
AcDbEntity
  8
ANNOTATION_TEXT
 62
     7
100
AcDbLine
 10
179.6091695639236
 20
141.0062728251816
 30
0.0
 11
280.5631511978982
 21
141.0062728251816
 31
0.0
  0
SOLID
  5
1F5
330
1EF
100
AcDbEntity
  8
ANNOTATION_TEXT
 62
     7
100
AcDbTrace
 10
179.6091695639236
 20
141.4229394918482
 30
0.0
 11
179.6091695639236
 21
140.5896061585149
 31
0.0
 12
177.1091695639236
 22
141.0062728251816
 32
0.0
 13
177.1091695639236
 23
141.0062728251816
 33
0.0
  0
SOLID
  5
1F6
330
1EF
100
AcDbEntity
  8
ANNOTATION_TEXT
 62
     7
100
AcDbTrace
 10
280.5631511978982
 20
140.5896061585149
 30
0.0
 11
280.5631511978982
 21
141.4229394918482
 31
0.0
 12
283.0631511978982
 22
141.0062728251816
 32
0.0
 13
283.0631511978982
 23
141.0062728251816
 33
0.0
  0
MTEXT
  5
1F7
330
1EF
100
AcDbEntity
  8
ANNOTATION_TEXT
 62
     7
100
AcDbMText
 10
152.4696517582732
 20
143.7162523892142
 30
0.0
 40
3.5
 41
0.0
 71
     5
 72
     1
  1
105,95
  7
ONSHAPE-STANDARD-DIMENSION
  0
POINT
  5
1F8
330
1EF
100
AcDbEntity
  8
DEFPOINTS
 62
     0
100
AcDbPoint
 10
177.1091695639236
 20
145.0062728251815
 30
0.0
  0
POINT
  5
1F9
330
1EF
100
AcDbEntity
  8
DEFPOINTS
 62
     0
100
AcDbPoint
 10
283.0631511978982
 20
137.0062728251816
 30
0.0
  0
POINT
  5
1FA
330
1EF
100
AcDbEntity
  8
DEFPOINTS
 62
     0
100
AcDbPoint
 10
283.0631511978982
 20
141.0062728251816
 30
0.0
  0
ENDBLK
  5
1FB
330
1EF
100
AcDbEntity
  8
0
100
AcDbBlockEnd
  0
BLOCK
  5
202
330
201
100
AcDbEntity
  8
0
100
AcDbBlockBegin
  2
*D14
 70
     1
 10
0.0
 20
0.0
 30
0.0
  3
*D14
  1

  0
LINE
  5
203
330
201
100
AcDbEntity
  8
ANNOTATION_TEXT
 62
     7
100
AcDbLine
 10
123.5091695639235
 20
181.3812728251815
 30
0.0
 11
123.5091695639235
 21
180.6429169759771
 31
0.0
  0
LINE
  5
204
330
201
100
AcDbEntity
  8
ANNOTATION_TEXT
 62
     7
100
AcDbLine
 10
177.1091695639236
 20
181.3812728251815
 30
0.0
 11
177.1091695639236
 21
180.6429169759771
 31
0.0
  0
LINE
  5
205
330
201
100
AcDbEntity
  8
ANNOTATION_TEXT
 62
     7
100
AcDbLine
 10
126.0091695639235
 20
181.8929169759771
 30
0.0
 11
174.6091695639236
 21
181.8929169759771
 31
0.0
  0
SOLID
  5
206
330
201
100
AcDbEntity
  8
ANNOTATION_TEXT
 62
     7
100
AcDbTrace
 10
126.0091695639235
 20
182.3095836426438
 30
0.0
 11
126.0091695639235
 21
181.4762503093105
 31
0.0
 12
123.5091695639235
 22
181.8929169759771
 32
0.0
 13
123.5091695639235
 23
181.8929169759771
 33
0.0
  0
SOLID
  5
207
330
201
100
AcDbEntity
  8
ANNOTATION_TEXT
 62
     7
100
AcDbTrace
 10
174.6091695639236
 20
181.4762503093105
 30
0.0
 11
174.6091695639236
 21
182.3095836426438
 31
0.0
 12
177.1091695639236
 22
181.8929169759771
 32
0.0
 13
177.1091695639236
 23
181.8929169759771
 33
0.0
  0
MTEXT
  5
208
330
201
100
AcDbEntity
  8
ANNOTATION_TEXT
 62
     7
100
AcDbMText
 10
150.3091695639236
 20
184.6005123438245
 30
0.0
 40
3.5
 41
0.0
 71
     5
 72
     1
  1
53,6
  7
ONSHAPE-STANDARD-DIMENSION
  0
POINT
  5
209
330
201
100
AcDbEntity
  8
DEFPOINTS
 62
     0
100
AcDbPoint
 10
123.5091695639235
 20
182.0062728251815
 30
0.0
  0
POINT
  5
20A
330
201
100
AcDbEntity
  8
DEFPOINTS
 62
     0
100
AcDbPoint
 10
177.1091695639236
 20
182.0062728251815
 30
0.0
  0
POINT
  5
20B
330
201
100
AcDbEntity
  8
DEFPOINTS
 62
     0
100
AcDbPoint
 10
177.1091695639236
 20
181.8929169759771
 30
0.0
  0
ENDBLK
  5
20C
330
201
100
AcDbEntity
  8
0
100
AcDbBlockEnd
  0
BLOCK
  5
214
330
213
100
AcDbEntity
  8
0
100
AcDbBlockBegin
  2
*D15
 70
     1
 10
0.0
 20
0.0
 30
0.0
  3
*D15
  1

  0
LINE
  5
215
330
213
100
AcDbEntity
  8
ANNOTATION_TEXT
 62
     7
100
AcDbLine
 10
127.5283214984244
 20
105.4743174161769
 30
0.0
 11
127.5283214984244
 21
109.0017964323791
 31
0.0
  0
LINE
  5
216
330
213
100
AcDbEntity
  8
ANNOTATION_TEXT
 62
     7
100
AcDbLine
 10
130.5283214984244
 20
105.4743174161769
 30
0.0
 11
130.5283214984244
 21
109.0017964323791
 31
0.0
  0
LINE
  5
217
330
213
100
AcDbEntity
  8
ANNOTATION_TEXT
 62
     7
100
AcDbLine
 10
127.5283214984244
 20
107.7517964323791
 30
0.0
 11
130.5283214984244
 21
107.7517964323791
 31
0.0
  0
LINE
  5
218
330
213
100
AcDbEntity
  8
ANNOTATION_TEXT
 62
     7
100
AcDbLine
 10
125.0283214984244
 20
107.7517964323791
 30
0.0
 11
122.5283214984244
 21
107.7517964323791
 31
0.0
  0
LINE
  5
219
330
213
100
AcDbEntity
  8
ANNOTATION_TEXT
 62
     7
100
AcDbLine
 10
133.0283214984244
 20
107.7517964323791
 30
0.0
 11
135.5283214984244
 21
107.7517964323791
 31
0.0
  0
SOLID
  5
21A
330
213
100
AcDbEntity
  8
ANNOTATION_TEXT
 62
     7
100
AcDbTrace
 10
125.0283214984244
 20
107.3351297657124
 30
0.0
 11
125.0283214984244
 21
108.1684630990458
 31
0.0
 12
127.5283214984244
 22
107.7517964323791
 32
0.0
 13
127.5283214984244
 23
107.7517964323791
 33
0.0
  0
SOLID
  5
21B
330
213
100
AcDbEntity
  8
ANNOTATION_TEXT
 62
     7
100
AcDbTrace
 10
133.0283214984244
 20
108.1684630990458
 30
0.0
 11
133.0283214984244
 21
107.3351297657124
 31
0.0
 12
130.5283214984244
 22
107.7517964323791
 32
0.0
 13
130.5283214984244
 23
107.7517964323791
 33
0.0
  0
MTEXT
  5
21C
330
213
100
AcDbEntity
  8
ANNOTATION_TEXT
 62
     7
100
AcDbMText
 10
129.0283214984244
 20
110.1685198656216
 30
0.0
 40
3.5
 41
0.0
 71
     5
 72
     1
  1
6
  7
ONSHAPE-STANDARD-DIMENSION
  0
POINT
  5
21D
330
213
100
AcDbEntity
  8
DEFPOINTS
 62
     0
100
AcDbPoint
 10
127.5283214984244
 20
104.8493174161769
 30
0.0
  0
POINT
  5
21E
330
213
100
AcDbEntity
  8
DEFPOINTS
 62
     0
100
AcDbPoint
 10
130.5283214984244
 20
104.8493174161769
 30
0.0
  0
POINT
  5
21F
330
213
100
AcDbEntity
  8
DEFPOINTS
 62
     0
100
AcDbPoint
 10
130.5283214984244
 20
107.7517964323791
 30
0.0
  0
ENDBLK
  5
220
330
213
100
AcDbEntity
  8
0
100
AcDbBlockEnd
  0
ENDSEC
  0
SECTION
  2
ENTITIES
  0
LINE
  5
74
330
1F
100
AcDbEntity
  8
BORDER_FRAME
100
AcDbLine
 10
12.0
 20
10.0
 30
0.0
 11
12.0
 21
200.0
 31
0.0
  0
LINE
  5
77
330
1F
100
AcDbEntity
  8
BORDER_FRAME
100
AcDbLine
 10
12.0
 20
200.0
 30
0.0
 11
289.0
 21
200.0
 31
0.0
  0
LINE
  5
78
330
1F
100
AcDbEntity
  8
BORDER_FRAME
100
AcDbLine
 10
289.0
 20
200.0
 30
0.0
 11
289.0
 21
10.0
 31
0.0
  0
LINE
  5
79
330
1F
100
AcDbEntity
  8
BORDER_FRAME
100
AcDbLine
 10
289.0
 20
10.0
 30
0.0
 11
12.0
 21
10.0
 31
0.0
  0
LINE
  5
7A
330
1F
100
AcDbEntity
  8
TITLE_BLOCK
100
AcDbLine
 10
127.075
 20
10.0
 30
0.0
 11
127.075
 21
48.09999999999999
 31
0.0
  0
LINE
  5
7C
330
1F
100
AcDbEntity
  8
TITLE_BLOCK
100
AcDbLine
 10
127.075
 20
10.0
 30
0.0
 11
157.555
 21
10.0
 31
0.0
  0
LINE
  5
7D
330
1F
100
AcDbEntity
  8
TITLE_BLOCK
100
AcDbLine
 10
127.075
 20
17.62
 30
0.0
 11
157.555
 21
17.62
 31
0.0
  0
LINE
  5
7E
330
1F
100
AcDbEntity
  8
TITLE_BLOCK
100
AcDbLine
 10
127.075
 20
20.668
 30
0.0
 11
157.555
 21
20.668
 31
0.0
  0
LINE
  5
7F
330
1F
100
AcDbEntity
  8
TITLE_BLOCK
100
AcDbLine
 10
127.075
 20
25.8496
 30
0.0
 11
157.555
 21
25.8496
 31
0.0
  0
LINE
  5
80
330
1F
100
AcDbEntity
  8
TITLE_BLOCK
100
AcDbLine
 10
127.075
 20
30.2692
 30
0.0
 11
157.555
 21
30.2692
 31
0.0
  0
LINE
  5
81
330
1F
100
AcDbEntity
  8
TITLE_BLOCK
100
AcDbLine
 10
127.075
 20
48.09999999999999
 30
0.0
 11
157.555
 21
48.09999999999999
 31
0.0
  0
MTEXT
  5
82
330
1F
100
AcDbEntity
  8
TITLE_BLOCK
100
AcDbMText
 10
127.74556
 20
47.00272
 30
0.0
 40
1.2192
 41
30.47999999999999
 71
     1
 72
     1
  1
UNLESS OTHERWISE SPECIFIED, DIMENSIONS ARE IN MILLIMETERS
  7
ONSHAPE-STANDARD
  0
MTEXT
  5
84
330
1F
100
AcDbEntity
  8
TITLE_BLOCK
100
AcDbMText
 10
142.918504
 20
42.540448
 30
0.0
 40
1.09728
 41
15.23999999999998
 71
     1
 72
     1
  1
^JANGULAR =  ^J
  7
ONSHAPE-STANDARD
  0
MTEXT
  5
85
330
1F
100
AcDbEntity
  8
TITLE_BLOCK
100
AcDbMText
 10
127.74556
 20
35.11552
 30
0.0
 40
1.2192
 41
15.24000000000001
 71
     1
 72
     1
  1
SURFACE FINISH
  7
ONSHAPE-STANDARD
  0
LINE
  5
86
330
1F
100
AcDbEntity
  8
TITLE_BLOCK
100
AcDbLine
 10
140.791
 20
33.3172
 30
0.0
 11
141.553
 21
31.99737728463252
 31
0.0
  0
LINE
  5
87
330
1F
100
AcDbEntity
  8
TITLE_BLOCK
100
AcDbLine
 10
141.553
 20
31.99737728463252
 30
0.0
 11
143.1532
 21
34.76900498690424
 31
0.0
  0
LINE
  5
88
330
1F
100
AcDbEntity
  8
TITLE_BLOCK
100
AcDbLine
 10
143.1532
 20
34.76900498690424
 30
0.0
 11
144.8296
 21
34.76900498690424
 31
0.0
  0
MTEXT
  5
89
330
1F
100
AcDbEntity
  8
TITLE_BLOCK
100
AcDbMText
 10
142.315
 20
28.842736
 30
0.0
 40
1.58496
 41
30.47999999999999
 71
     2
 72
     1
  1
DO NOT SCALE DRAWING
  7
ONSHAPE-STANDARD
  0
MTEXT
  5
8A
330
1F
100
AcDbEntity
  8
TITLE_BLOCK
100
AcDbMText
 10
142.315
 20
24.75232
 30
0.0
 40
1.2192
 41
30.47999999999999
 71
     2
 72
     1
  1
BREAK ALL SHARP EDGES AND REMOVE BURRS
  7
ONSHAPE-STANDARD
  0
CIRCLE
  5
8B
330
1F
100
AcDbEntity
  8
TITLE_BLOCK
100
AcDbCircle
 10
145.744
 20
13.77952
 30
0.0
 40
1.3716
  0
CIRCLE
  5
8C
330
1F
100
AcDbEntity
  8
TITLE_BLOCK
100
AcDbCircle
 10
145.744
 20
13.77952
 30
0.0
 40
2.743199999999999
  0
LINE
  5
8D
330
1F
100
AcDbEntity
  8
TITLE_BLOCK
100
AcDbLine
 10
146.4298
 20
13.77952
 30
0.0
 11
145.0582
 21
13.77952
 31
0.0
  0
LINE
  5
8E
330
1F
100
AcDbEntity
  8
TITLE_BLOCK
100
AcDbLine
 10
145.744
 20
14.46532
 30
0.0
 11
145.744
 21
13.09372
 31
0.0
  0
LINE
  5
8F
330
1F
100
AcDbEntity
  8
TITLE_BLOCK
100
AcDbLine
 10
147.1156
 20
13.77952
 30
0.0
 11
149.173
 21
13.77952
 31
0.0
  0
LINE
  5
90
330
1F
100
AcDbEntity
  8
TITLE_BLOCK
100
AcDbLine
 10
145.744
 20
15.15112
 30
0.0
 11
145.744
 21
17.20852
 31
0.0
  0
LINE
  5
91
330
1F
100
AcDbEntity
  8
TITLE_BLOCK
100
AcDbLine
 10
144.3724
 20
13.77952
 30
0.0
 11
142.315
 21
13.77952
 31
0.0
  0
LINE
  5
92
330
1F
100
AcDbEntity
  8
TITLE_BLOCK
100
AcDbLine
 10
145.744
 20
12.40792
 30
0.0
 11
145.744
 21
10.35052
 31
0.0
  0
LINE
  5
93
330
1F
100
AcDbEntity
  8
TITLE_BLOCK
100
AcDbLine
 10
141.6292
 20
11.03632
 30
0.0
 11
141.6292
 21
16.52272
 31
0.0
  0
LINE
  5
94
330
1F
100
AcDbEntity
  8
TITLE_BLOCK
100
AcDbLine
 10
141.6292
 20
16.52272
 30
0.0
 11
136.1428
 21
15.15112
 31
0.0
  0
LINE
  5
95
330
1F
100
AcDbEntity
  8
TITLE_BLOCK
100
AcDbLine
 10
136.1428
 20
15.15112
 30
0.0
 11
136.1428
 21
12.40792
 31
0.0
  0
LINE
  5
96
330
1F
100
AcDbEntity
  8
TITLE_BLOCK
100
AcDbLine
 10
136.1428
 20
12.40792
 30
0.0
 11
141.6292
 21
11.03632
 31
0.0
  0
LINE
  5
97
330
1F
100
AcDbEntity
  8
TITLE_BLOCK
100
AcDbLine
 10
139.5718
 20
13.77952
 30
0.0
 11
141.9721
 21
13.77952
 31
0.0
  0
LINE
  5
98
330
1F
100
AcDbEntity
  8
TITLE_BLOCK
100
AcDbLine
 10
139.16032
 20
13.77952
 30
0.0
 11
138.61168
 21
13.77952
 31
0.0
  0
LINE
  5
99
330
1F
100
AcDbEntity
  8
TITLE_BLOCK
100
AcDbLine
 10
138.2002
 20
13.77952
 30
0.0
 11
135.7999
 21
13.77952
 31
0.0
  0
MTEXT
  5
9A
330
1F
100
AcDbEntity
  8
TITLE_BLOCK
100
AcDbMText
 10
142.315
 20
19.57072
 30
0.0
 40
1.2192
 41
30.47999999999999
 71
     2
 72
     1
  1
FIRST ANGLE PROJECTION
  7
ONSHAPE-STANDARD
  0
LINE
  5
9B
330
1F
100
AcDbEntity
  8
TITLE_BLOCK
100
AcDbLine
 10
157.555
 20
10.0
 30
0.0
 11
157.555
 21
48.09999999999999
 31
0.0
  0
LINE
  5
9C
330
1F
100
AcDbEntity
  8
TITLE_BLOCK
100
AcDbLine
 10
170.89
 20
20.668
 30
0.0
 11
170.89
 21
48.09999999999999
 31
0.0
  0
LINE
  5
9D
330
1F
100
AcDbEntity
  8
TITLE_BLOCK
100
AcDbLine
 10
186.13
 20
20.668
 30
0.0
 11
186.13
 21
48.09999999999999
 31
0.0
  0
LINE
  5
9E
330
1F
100
AcDbEntity
  8
TITLE_BLOCK
100
AcDbLine
 10
184.225
 20
10.0
 30
0.0
 11
184.225
 21
20.668
 31
0.0
  0
MTEXT
  5
9F
330
1F
100
AcDbEntity
  8
TITLE_BLOCK
100
AcDbMText
 10
193.75
 20
47.00272
 30
0.0
 40
1.2192
 41
15.24000000000001
 71
     2
 72
     1
  1
SIGNATURE
  7
ONSHAPE-STANDARD
  0
LINE
  5
A0
330
1F
100
AcDbEntity
  8
TITLE_BLOCK
100
AcDbLine
 10
201.37
 20
20.668
 30
0.0
 11
201.37
 21
48.09999999999999
 31
0.0
  0
LINE
  5
A1
330
1F
100
AcDbEntity
  8
TITLE_BLOCK
100
AcDbLine
 10
157.555
 20
48.09999999999999
 30
0.0
 11
210.895
 21
48.09999999999999
 31
0.0
  0
LINE
  5
A2
330
1F
100
AcDbEntity
  8
TITLE_BLOCK
100
AcDbLine
 10
157.555
 20
43.528
 30
0.0
 11
210.895
 21
43.528
 31
0.0
  0
LINE
  5
A3
330
1F
100
AcDbEntity
  8
TITLE_BLOCK
100
AcDbLine
 10
157.555
 20
38.956
 30
0.0
 11
210.895
 21
38.956
 31
0.0
  0
LINE
  5
A4
330
1F
100
AcDbEntity
  8
TITLE_BLOCK
100
AcDbLine
 10
157.555
 20
34.384
 30
0.0
 11
210.895
 21
34.384
 31
0.0
  0
LINE
  5
A5
330
1F
100
AcDbEntity
  8
TITLE_BLOCK
100
AcDbLine
 10
157.555
 20
29.812
 30
0.0
 11
210.895
 21
29.812
 31
0.0
  0
LINE
  5
A6
330
1F
100
AcDbEntity
  8
TITLE_BLOCK
100
AcDbLine
 10
157.555
 20
25.24
 30
0.0
 11
210.895
 21
25.24
 31
0.0
  0
LINE
  5
A7
330
1F
100
AcDbEntity
  8
TITLE_BLOCK
100
AcDbLine
 10
157.555
 20
20.668
 30
0.0
 11
210.895
 21
20.668
 31
0.0
  0
MTEXT
  5
A8
330
1F
100
AcDbEntity
  8
TITLE_BLOCK
100
AcDbMText
 10
171.56056
 20
47.00272
 30
0.0
 40
1.2192
 41
15.23999999999998
 71
     1
 72
     1
  1
NAME
  7
ONSHAPE-STANDARD
  0
MTEXT
  5
A9
330
1F
100
AcDbEntity
  8
TITLE_BLOCK
100
AcDbMText
 10
206.1325
 20
47.00272
 30
0.0
 40
1.2192
 41
9.525000000000006
 71
     2
 72
     1
  1
DATE
  7
ONSHAPE-STANDARD
  0
MTEXT
  5
AA
330
1F
100
AcDbEntity
  8
TITLE_BLOCK
100
AcDbMText
 10
158.22556
 20
42.43072
 30
0.0
 40
1.2192
 41
13.33500000000001
 71
     1
 72
     1
  1
DRAWN
  7
ONSHAPE-STANDARD
  0
MTEXT
  5
AB
102
{ACAD_XDICTIONARY
360
AC
102
}
330
1F
100
AcDbEntity
  8
TITLE_BLOCK
100
AcDbMText
 10
178.51
 20
41.242
 30
0.0
 40
1.024128
 41
15.23999999999998
 71
     5
 72
     1
  1
TOBEY
  7
ONSHAPE-STANDARD-FIELDS
1001
ACAD
1000
ACAD_MTEXT_DEFINED_HEIGHT_BEGIN
1070
    46
1040
4.572000000000003
1000
ACAD_MTEXT_DEFINED_HEIGHT_END
  0
MTEXT
  5
B2
102
{ACAD_XDICTIONARY
360
B3
102
}
330
1F
100
AcDbEntity
  8
TITLE_BLOCK
100
AcDbMText
 10
206.1325
 20
41.242
 30
0.0
 40
1.024128
 41
9.524999999999977
 71
     5
 72
     1
  1
2020-02-24
  7
ONSHAPE-STANDARD-FIELDS
1001
ACAD
1000
ACAD_MTEXT_DEFINED_HEIGHT_BEGIN
1070
    46
1040
1.038080697547684
1000
ACAD_MTEXT_DEFINED_HEIGHT_END
  0
MTEXT
  5
B4
330
1F
100
AcDbEntity
  8
TITLE_BLOCK
100
AcDbMText
 10
158.22556
 20
37.85872
 30
0.0
 40
1.2192
 41
13.33500000000001
 71
     1
 72
     1
  1
CHECKED
  7
ONSHAPE-STANDARD
  0
MTEXT
  5
B5
330
1F
100
AcDbEntity
  8
TITLE_BLOCK
100
AcDbMText
 10
178.51
 20
36.67
 30
0.0
 40
1.024128
 41
15.23999999999998
 71
     5
 72
     1
  1
 
  7
ONSHAPE-STANDARD-FIELDS
1001
ACAD
1000
ACAD_MTEXT_DEFINED_HEIGHT_BEGIN
1070
    46
1040
4.571999999999996
1000
ACAD_MTEXT_DEFINED_HEIGHT_END
  0
MTEXT
  5
B6
330
1F
100
AcDbEntity
  8
TITLE_BLOCK
100
AcDbMText
 10
206.1325
 20
36.67
 30
0.0
 40
1.024128
 41
9.525000000000006
 71
     5
 72
     1
  1
 
  7
ONSHAPE-STANDARD-FIELDS
1001
ACAD
1000
ACAD_MTEXT_DEFINED_HEIGHT_BEGIN
1070
    46
1040
4.571999999999996
1000
ACAD_MTEXT_DEFINED_HEIGHT_END
  0
MTEXT
  5
B7
330
1F
100
AcDbEntity
  8
TITLE_BLOCK
100
AcDbMText
 10
158.22556
 20
33.28672
 30
0.0
 40
1.2192
 41
13.33500000000001
 71
     1
 72
     1
  1
APPROVED
  7
ONSHAPE-STANDARD
  0
MTEXT
  5
B8
102
{ACAD_XDICTIONARY
360
B9
102
}
330
1F
100
AcDbEntity
  8
TITLE_BLOCK
100
AcDbMText
 10
178.51
 20
32.098
 30
0.0
 40
1.024128
 41
15.23999999999998
 71
     5
 72
     1
  1
----
  7
ONSHAPE-STANDARD-FIELDS
1001
ACAD
1000
ACAD_MTEXT_DEFINED_HEIGHT_BEGIN
1070
    46
1040
4.572000000000003
1000
ACAD_MTEXT_DEFINED_HEIGHT_END
  0
MTEXT
  5
BE
102
{ACAD_XDICTIONARY
360
BF
102
}
330
1F
100
AcDbEntity
  8
TITLE_BLOCK
100
AcDbMText
 10
206.1325
 20
32.098
 30
0.0
 40
1.024128
 41
9.525000000000006
 71
     5
 72
     1
  1
----
  7
ONSHAPE-STANDARD-FIELDS
1001
ACAD
1000
ACAD_MTEXT_DEFINED_HEIGHT_BEGIN
1070
    46
1040
4.572000000000003
1000
ACAD_MTEXT_DEFINED_HEIGHT_END
  0
MTEXT
  5
C4
330
1F
100
AcDbEntity
  8
TITLE_BLOCK
100
AcDbMText
 10
164.2225
 20
27.526
 30
0.0
 40
1.8288
 41
13.33500000000001
 71
     5
 72
     1
  1
 
  7
ONSHAPE-STANDARD-FIELDS
1001
ACAD
1000
ACAD_MTEXT_DEFINED_HEIGHT_BEGIN
1070
    46
1040
4.571999999999999
1000
ACAD_MTEXT_DEFINED_HEIGHT_END
  0
MTEXT
  5
C5
330
1F
100
AcDbEntity
  8
TITLE_BLOCK
100
AcDbMText
 10
178.51
 20
27.526
 30
0.0
 40
1.024128
 41
15.23999999999998
 71
     5
 72
     1
  1
 
  7
ONSHAPE-STANDARD-FIELDS
1001
ACAD
1000
ACAD_MTEXT_DEFINED_HEIGHT_BEGIN
1070
    46
1040
4.571999999999999
1000
ACAD_MTEXT_DEFINED_HEIGHT_END
  0
MTEXT
  5
C6
330
1F
100
AcDbEntity
  8
TITLE_BLOCK
100
AcDbMText
 10
206.1325
 20
27.526
 30
0.0
 40
1.024128
 41
9.525000000000006
 71
     5
 72
     1
  1
 
  7
ONSHAPE-STANDARD-FIELDS
1001
ACAD
1000
ACAD_MTEXT_DEFINED_HEIGHT_BEGIN
1070
    46
1040
4.571999999999999
1000
ACAD_MTEXT_DEFINED_HEIGHT_END
  0
MTEXT
  5
C7
330
1F
100
AcDbEntity
  8
TITLE_BLOCK
100
AcDbMText
 10
164.2225
 20
22.954
 30
0.0
 40
1.8288
 41
13.33500000000001
 71
     5
 72
     1
  1
 
  7
ONSHAPE-STANDARD-FIELDS
1001
ACAD
1000
ACAD_MTEXT_DEFINED_HEIGHT_BEGIN
1070
    46
1040
4.571999999999999
1000
ACAD_MTEXT_DEFINED_HEIGHT_END
  0
MTEXT
  5
C8
330
1F
100
AcDbEntity
  8
TITLE_BLOCK
100
AcDbMText
 10
178.51
 20
22.954
 30
0.0
 40
1.024128
 41
15.23999999999998
 71
     5
 72
     1
  1
 
  7
ONSHAPE-STANDARD-FIELDS
1001
ACAD
1000
ACAD_MTEXT_DEFINED_HEIGHT_BEGIN
1070
    46
1040
4.571999999999999
1000
ACAD_MTEXT_DEFINED_HEIGHT_END
  0
MTEXT
  5
C9
330
1F
100
AcDbEntity
  8
TITLE_BLOCK
100
AcDbMText
 10
206.1325
 20
22.954
 30
0.0
 40
1.024128
 41
9.525000000000006
 71
     5
 72
     1
  1
 
  7
ONSHAPE-STANDARD-FIELDS
1001
ACAD
1000
ACAD_MTEXT_DEFINED_HEIGHT_BEGIN
1070
    46
1040
4.571999999999999
1000
ACAD_MTEXT_DEFINED_HEIGHT_END
  0
MTEXT
  5
CA
330
1F
100
AcDbEntity
  8
TITLE_BLOCK
100
AcDbMText
 10
158.22556
 20
19.57072
 30
0.0
 40
1.2192
 41
26.67000000000002
 71
     1
 72
     1
  1
MATERIAL
  7
ONSHAPE-STANDARD
  0
MTEXT
  5
CB
102
{ACAD_XDICTIONARY
360
2F9
102
}
330
1F
100
AcDbEntity
  8
TITLE_BLOCK
100
AcDbMText
 10
170.89
 20
14.30115192538324
 30
0.0
 40
1.8288
 41
26.67000000000002
 71
     5
 72
     1
  1
(blue) PVC or PMMA sheet 6mm 
  7
ONSHAPE-STANDARD-FIELDS
1001
ACAD
1000
ACAD_MTEXT_DEFINED_HEIGHT_BEGIN
1070
    46
1040
5.084429427792915
1000
ACAD_MTEXT_DEFINED_HEIGHT_END
  0
MTEXT
  5
CC
330
1F
100
AcDbEntity
  8
TITLE_BLOCK
100
AcDbMText
 10
184.89556
 20
19.57072
 30
0.0
 40
1.2192
 41
26.66999999999999
 71
     1
 72
     1
  1
FINISH
  7
ONSHAPE-STANDARD
  0
MTEXT
  5
CD
330
1F
100
AcDbEntity
  8
TITLE_BLOCK
100
AcDbMText
 10
197.56
 20
15.334
 30
0.0
 40
1.8288
 41
26.66999999999999
 71
     5
 72
     1
  1
 
  7
ONSHAPE-STANDARD-FIELDS
1001
ACAD
1000
ACAD_MTEXT_DEFINED_HEIGHT_BEGIN
1070
    46
1040
10.668
1000
ACAD_MTEXT_DEFINED_HEIGHT_END
  0
LINE
  5
CE
330
1F
100
AcDbEntity
  8
TITLE_BLOCK
100
AcDbLine
 10
210.895
 20
10.0
 30
0.0
 11
210.895
 21
48.09999999999999
 31
0.0
  0
LINE
  5
CF
330
1F
100
AcDbEntity
  8
TITLE_BLOCK
100
AcDbLine
 10
220.42
 20
14.953
 30
0.0
 11
220.42
 21
22.573
 31
0.0
  0
LINE
  5
D0
330
1F
100
AcDbEntity
  8
TITLE_BLOCK
100
AcDbLine
 10
227.659
 20
10.0
 30
0.0
 11
227.659
 21
14.953
 31
0.0
  0
LINE
  5
D1
330
1F
100
AcDbEntity
  8
TITLE_BLOCK
100
AcDbLine
 10
262.33
 20
10.0
 30
0.0
 11
262.33
 21
14.953
 31
0.0
  0
LINE
  5
D2
330
1F
100
AcDbEntity
  8
TITLE_BLOCK
100
AcDbLine
 10
281.38
 20
14.953
 30
0.0
 11
281.38
 21
22.573
 31
0.0
  0
LINE
  5
D3
330
1F
100
AcDbEntity
  8
TITLE_BLOCK
100
AcDbLine
 10
210.895
 20
14.953
 30
0.0
 11
289.0
 21
14.953
 31
0.0
  0
LINE
  5
D4
330
1F
100
AcDbEntity
  8
TITLE_BLOCK
100
AcDbLine
 10
210.895
 20
22.573
 30
0.0
 11
289.0
 21
22.573
 31
0.0
  0
LINE
  5
D5
330
1F
100
AcDbEntity
  8
TITLE_BLOCK
100
AcDbLine
 10
210.895
 20
38.575
 30
0.0
 11
289.0
 21
38.575
 31
0.0
  0
LINE
  5
D6
330
1F
100
AcDbEntity
  8
TITLE_BLOCK
100
AcDbLine
 10
210.895
 20
48.09999999999999
 30
0.0
 11
289.0
 21
48.09999999999999
 31
0.0
  0
MTEXT
  5
D7
330
1F
100
AcDbEntity
  8
TITLE_BLOCK
100
AcDbMText
 10
211.56556
 20
37.47772
 30
0.0
 40
1.2192
 41
9.525000000000006
 71
     1
 72
     1
  1
TITLE
  7
ONSHAPE-STANDARD
  0
MTEXT
  5
D8
102
{ACAD_XDICTIONARY
360
D9
102
}
330
1F
100
AcDbEntity
  8
TITLE_BLOCK
100
AcDbMText
 10
249.9475
 20
35.52699999999999
 30
0.0
 40
2.92608
 41
70.48500000000001
 71
     5
 72
     1
  1
Stand for 4x multiple_cap_holder
  7
ONSHAPE-STANDARD-FIELDS
1001
ACAD
1000
ACAD_MTEXT_DEFINED_HEIGHT_BEGIN
1070
    46
1040
2.96594485013624
1000
ACAD_MTEXT_DEFINED_HEIGHT_END
  0
MTEXT
  5
DA
102
{ACAD_XDICTIONARY
360
DB
102
}
330
1F
100
AcDbEntity
  8
TITLE_BLOCK
100
AcDbMText
 10
249.9475
 20
27.83442539107303
 30
0.0
 40
2.92608
 41
70.48500000000001
 71
     5
 72
     1
  1
to be cut, drilled (or laser cut) \P{\fNoto Sans|b0|i0|c0|p0;\W9.10996;  }and bent
  7
ONSHAPE-STANDARD-FIELDS
1001
ACAD
1000
ACAD_MTEXT_DEFINED_HEIGHT_BEGIN
1070
    46
1040
8.135087084468665
1000
ACAD_MTEXT_DEFINED_HEIGHT_END
  0
MTEXT
  5
DC
330
1F
100
AcDbEntity
  8
TITLE_BLOCK
100
AcDbMText
 10
211.431448
 20
21.695176
 30
0.0
 40
0.9753599999999999
 41
9.525000000000006
 71
     1
 72
     1
  1
SIZE
  7
ONSHAPE-STANDARD
  0
MTEXT
  5
DD
102
{ACAD_XDICTIONARY
360
DE
102
}
330
1F
100
AcDbEntity
  8
TITLE_BLOCK
100
AcDbMText
 10
215.6575
 20
18.763
 30
0.0
 40
3.6576
 41
9.525000000000006
 71
     5
 72
     1
  1
A4
  7
ONSHAPE-STANDARD-FIELDS
1001
ACAD
1000
ACAD_MTEXT_DEFINED_HEIGHT_BEGIN
1070
    46
1040
7.620000000000001
1000
ACAD_MTEXT_DEFINED_HEIGHT_END
  0
MTEXT
  5
E3
330
1F
100
AcDbEntity
  8
TITLE_BLOCK
100
AcDbMText
 10
220.956448
 20
21.695176
 30
0.0
 40
0.9753599999999999
 41
60.95999999999998
 71
     1
 72
     1
  1
DWG NO.
  7
ONSHAPE-STANDARD
  0
MTEXT
  5
E4
102
{ACAD_XDICTIONARY
360
E5
102
}
330
1F
100
AcDbEntity
  8
TITLE_BLOCK
100
AcDbMText
 10
250.9
 20
18.763
 30
0.0
 40
3.6576
 41
60.95999999999998
 71
     5
 72
     1
  1
----
  7
ONSHAPE-STANDARD-FIELDS
1001
ACAD
1000
ACAD_MTEXT_DEFINED_HEIGHT_BEGIN
1070
    46
1040
7.620000000000001
1000
ACAD_MTEXT_DEFINED_HEIGHT_END
  0
MTEXT
  5
EA
330
1F
100
AcDbEntity
  8
TITLE_BLOCK
100
AcDbMText
 10
281.916448
 20
21.695176
 30
0.0
 40
0.9753599999999999
 41
7.620000000000005
 71
     1
 72
     1
  1
REV.
  7
ONSHAPE-STANDARD
  0
MTEXT
  5
EB
102
{ACAD_XDICTIONARY
360
EC
102
}
330
1F
100
AcDbEntity
  8
TITLE_BLOCK
100
AcDbMText
 10
285.571
 20
18.763
 30
0.0
 40
3.6576
 41
6.858000000000004
 71
     5
 72
     1
  1
-
  7
ONSHAPE-STANDARD-FIELDS
1001
ACAD
1000
ACAD_MTEXT_DEFINED_HEIGHT_BEGIN
1070
    46
1040
7.620000000000001
1000
ACAD_MTEXT_DEFINED_HEIGHT_END
  0
MTEXT
  5
F1
330
1F
100
AcDbEntity
  8
TITLE_BLOCK
100
AcDbMText
 10
211.431448
 20
14.075176
 30
0.0
 40
0.9753599999999999
 41
16.76399999999998
 71
     1
 72
     1
  1
SCALE
  7
ONSHAPE-STANDARD
  0
MTEXT
  5
F2
102
{ACAD_XDICTIONARY
360
F3
102
}
330
1F
100
AcDbEntity
  8
TITLE_BLOCK
100
AcDbMText
 10
220.039
 20
12.4765
 30
0.0
 40
2.19456
 41
15.23999999999998
 71
     5
 72
     1
  1
1:2 [mm]
  7
ONSHAPE-STANDARD-FIELDS
1001
ACAD
1000
ACAD_MTEXT_DEFINED_HEIGHT_BEGIN
1070
    46
1040
2.678917929155313
1000
ACAD_MTEXT_DEFINED_HEIGHT_END
  0
MTEXT
  5
F7
330
1F
100
AcDbEntity
  8
TITLE_BLOCK
100
AcDbMText
 10
228.195448
 20
14.075176
 30
0.0
 40
0.9753599999999999
 41
34.67099999999999
 71
     1
 72
     1
  1
WEIGHT
  7
ONSHAPE-STANDARD
  0
MTEXT
  5
F8
330
1F
100
AcDbEntity
  8
TITLE_BLOCK
100
AcDbMText
 10
244.9945
 20
12.4765
 30
0.0
 40
2.19456
 41
34.67099999999999
 71
     5
 72
     1
  1
 
  7
ONSHAPE-STANDARD-FIELDS
1001
ACAD
1000
ACAD_MTEXT_DEFINED_HEIGHT_BEGIN
1070
    46
1040
4.952999999999999
1000
ACAD_MTEXT_DEFINED_HEIGHT_END
  0
MTEXT
  5
F9
330
1F
100
AcDbEntity
  8
TITLE_BLOCK
100
AcDbMText
 10
262.866448
 20
14.075176
 30
0.0
 40
0.9753599999999999
 41
26.67000000000002
 71
     1
 72
     1
  1
SHEET
  7
ONSHAPE-STANDARD
  0
MTEXT
  5
FA
102
{ACAD_XDICTIONARY
360
FB
102
}
330
1F
100
AcDbEntity
  8
TITLE_BLOCK
100
AcDbMText
 10
276.427
 20
12.4765
 30
0.0
 40
2.19456
 41
25.14600000000002
 71
     5
 72
     1
  1
1 of 1
  7
ONSHAPE-STANDARD-FIELDS
1001
ACAD
1000
ACAD_MTEXT_DEFINED_HEIGHT_BEGIN
1070
    46
1040
4.952999999999999
1000
ACAD_MTEXT_DEFINED_HEIGHT_END
  0
MTEXT
  5
100
102
{ACAD_XDICTIONARY
360
101
102
}
330
1F
100
AcDbEntity
  8
ANNOTATION_TEXT
 62
     7
 60
     1
100
AcDbMText
 10
160.7783214984244
 20
62.27431741617688
 30
0.0
 40
3.5
 41
0.0
 71
     2
 72
     1
  1

  7
ONSHAPE-STANDARD-VIEW-LABE
1001
ACAD
1000
ACAD_MTEXT_DEFINED_HEIGHT_BEGIN
1070
    46
1040
3.5
1000
ACAD_MTEXT_DEFINED_HEIGHT_END
  0
MTEXT
  5
105
102
{ACAD_XDICTIONARY
360
106
102
}
330
1F
100
AcDbEntity
  8
ANNOTATION_TEXT
 62
     7
 60
     1
100
AcDbMText
 10
66.01351944396012
 20
34.1175272771088
 30
0.0
 40
3.5
 41
0.0
 71
     2
 72
     1
  1

  7
ONSHAPE-STANDARD-VIEW-LABE
1001
ACAD
1000
ACAD_MTEXT_DEFINED_HEIGHT_BEGIN
1070
    46
1040
3.5
1000
ACAD_MTEXT_DEFINED_HEIGHT_END
  0
DIMENSION
  5
108
102
{ACAD_REACTORS
102
}
102
{ACAD_XDICTIONARY
360
109
102
}
330
1F
100
AcDbEntity
  8
ANNOTATION_TEXT
100
AcDbDimension
  2
*D1
 10
202.7386711133325
 20
67.34931741617689
 30
0.0
 11
202.7386711133325
 21
86.84769003102855
 31
0.0
 70
   160
  1
(<>)
  3
ONSHAPE-ISO-25$0
100
AcDbAlignedDimension
 13
194.0283214984244
 23
104.8493174161769
 33
0.0
 14
189.8783214984244
 24
67.34931741617689
 34
-0.0000000000000018
 50
90.0
100
AcDbRotatedDimension
1001
ACAD
1000
DSTYLE
1002
{
1070
     4
1000
[]
1070
   144
1040
2.0
1070
     3
1000

1070
   288
1070
     1
1002
}
1001
ACAD_DIMASSOC_CALC_DIMLFAC
1040
-2.0
1001
ACAD_DIMASSOC_DIMLFAC
1040
-2.0
1001
ACAD_DIMASSOC_OVERRIDDEN_D
1040
0.0
  0
DIMENSION
  5
11F
102
{ACAD_REACTORS
102
}
102
{ACAD_XDICTIONARY
360
120
102
}
330
1F
100
AcDbEntity
  8
ANNOTATION_TEXT
100
AcDbDimension
  2
*D2
 10
191.0283214984244
 20
60.7026071400866
 30
0.0
 11
163.5043569564694
 21
60.7026071400866
 31
0.0
 70
   160
  1
(<>)
  3
ONSHAPE-ISO-25$0
100
AcDbAlignedDimension
 13
130.5283214984244
 23
71.4993174161769
 33
-29.1
 14
191.0283214984244
 24
71.4993174161769
 34
-29.1
100
AcDbRotatedDimension
1001
ACAD
1000
DSTYLE
1002
{
1070
     4
1000
[]
1070
   144
1040
2.0
1070
     3
1000

1070
   288
1070
     1
1002
}
1001
ACAD_DIMASSOC_CALC_DIMLFAC
1040
-2.0
1001
ACAD_DIMASSOC_DIMLFAC
1040
-2.0
1001
ACAD_DIMASSOC_OVERRIDDEN_D
1040
0.0
  0
MTEXT
  5
131
102
{ACAD_XDICTIONARY
360
2FE
102
}
330
1F
100
AcDbEntity
  8
ANNOTATION_TEXT
100
AcDbMText
 10
137.8683551098355
 20
114.0150645759782
 30
0.0
 40
3.5
 41
56.70293704734888
 71
     1
 72
     5
  1
Front - after bending 1:2
  7
ONSHAPE-STANDARD-NOTESTYLE
1001
ACAD
1000
ACAD_MTEXT_DEFINED_HEIGHT_BEGIN
1070
    46
1040
9.795867393278838
1000
ACAD_MTEXT_DEFINED_HEIGHT_END
  0
MTEXT
  5
133
102
{ACAD_XDICTIONARY
360
134
102
}
330
1F
100
AcDbEntity
  8
ANNOTATION_TEXT
 62
     7
 60
     1
100
AcDbMText
 10
232.6742121395362
 20
63.72431741617689
 30
0.0
 40
3.5
 41
0.0
 71
     2
 72
     1
  1

  7
ONSHAPE-STANDARD-VIEW-LABE
1001
ACAD
1000
ACAD_MTEXT_DEFINED_HEIGHT_BEGIN
1070
    46
1040
3.5
1000
ACAD_MTEXT_DEFINED_HEIGHT_END
  0
DIMENSION
  5
136
102
{ACAD_REACTORS
102
}
102
{ACAD_XDICTIONARY
360
137
102
}
330
1F
100
AcDbEntity
  8
ANNOTATION_TEXT
100
AcDbDimension
  2
*D3
 10
231.7427502106663
 20
99.71844209167442
 30
31.75
 11
247.6478345281286
 21
110.4908901317064
 31
0.0
 70
   163
  3
ONSHAPE-ISO-25$3
100
AcDbDiametricDimension
 15
233.605674068406
 25
100.9801927406794
 35
31.75
 40
0.0
1001
ACAD
1000
DSTYLE
1002
{
1070
     4
1000
[]
1070
   144
1040
2.0
1070
     3
1000
%%c<>
1070
   288
1070
     1
1002
}
1001
ACAD_DSTYLE_DIMRADIAL_EXTE
1070
   387
1070
     1
1070
   388
1040
0.0
1070
   390
1040
6.283185307179586
1001
ACAD_DIMASSOC_CALC_DIMLFAC
1040
-2.0
1001
ACAD_DIMASSOC_DIMLFAC
1040
-2.0
1001
ACAD_DIMASSOC_OVERRIDDEN_D
1040
0.0
  0
DIMENSION
  5
147
102
{ACAD_REACTORS
102
}
102
{ACAD_XDICTIONARY
360
148
102
}
330
1F
100
AcDbEntity
  8
ANNOTATION_TEXT
100
AcDbDimension
  2
*D4
 10
232.6716400637273
 20
100.3493174161769
 30
0.0
 11
232.6716400637273
 21
113.6607956178118
 31
0.0
 70
   160
  3
ONSHAPE-ISO-25$0
100
AcDbAlignedDimension
 13
245.9242121395362
 23
104.8493174161769
 33
33.25
 14
232.6742121395362
 24
100.3493174161769
 34
33.25
 50
90.0
100
AcDbRotatedDimension
1001
ACAD
1000
DSTYLE
1002
{
1070
     4
1000
[]
1070
   144
1040
2.0
1070
     3
1000

1070
   288
1070
     1
1002
}
1001
ACAD_DIMASSOC_CALC_DIMLFAC
1040
-2.0
1001
ACAD_DIMASSOC_DIMLFAC
1040
-2.0
1001
ACAD_DIMASSOC_OVERRIDDEN_D
1040
0.0
  0
MTEXT
  5
15B
102
{ACAD_XDICTIONARY
360
300
102
}
330
1F
100
AcDbEntity
  8
ANNOTATION_TEXT
100
AcDbMText
 10
223.2922455834546
 20
124.26438654363
 30
0.0
 40
3.5
 41
26.67000000000002
 71
     1
 72
     5
  1
Side 1:2
  7
ONSHAPE-STANDARD-NOTESTYLE
1001
ACAD
1000
ACAD_MTEXT_DEFINED_HEIGHT_BEGIN
1070
    46
1040
3.569141689373297
1000
ACAD_MTEXT_DEFINED_HEIGHT_END
  0
MTEXT
  5
15C
102
{ACAD_XDICTIONARY
360
15D
102
}
330
1F
100
AcDbEntity
  8
ANNOTATION_TEXT
 62
     7
100
AcDbMText
 10
168.1746302242623
 20
205.1164244019262
 30
0.0
 40
3.5
 41
0.0
 71
     2
 72
     1
  1
 1:1
  7
ONSHAPE-STANDARD-VIEW-LABE
1001
ACAD
1000
ACAD_MTEXT_DEFINED_HEIGHT_BEGIN
1070
    46
1040
3.5
1000
ACAD_MTEXT_DEFINED_HEIGHT_END
  0
MTEXT
  5
15F
102
{ACAD_XDICTIONARY
360
302
102
}
330
1F
100
AcDbEntity
  8
ANNOTATION_TEXT
100
AcDbMText
 10
108.6408331731117
 20
198.6092119014377
 30
0.0
 40
3.5
 41
55.96982062742923
 71
     1
 72
     5
  1
Top view of Sheet, scale
  7
ONSHAPE-STANDARD-NOTESTYLE
1001
ACAD
1000
ACAD_MTEXT_DEFINED_HEIGHT_BEGIN
1070
    46
1040
9.774409627611263
1000
ACAD_MTEXT_DEFINED_HEIGHT_END
  0
MTEXT
  5
160
102
{ACAD_XDICTIONARY
360
304
102
}
330
1F
100
AcDbEntity
  8
ANNOTATION_TEXT
100
AcDbMText
 10
254.5567411858891
 20
124.6787335462079
 30
0.0
 40
3.5
 41
33.77738990182448
 71
     1
 72
     5
  1
Screw clearance\Phole
  7
ONSHAPE-STANDARD-NOTESTYLE
1001
ACAD
1000
ACAD_MTEXT_DEFINED_HEIGHT_BEGIN
1070
    46
1040
9.730699364214352
1000
ACAD_MTEXT_DEFINED_HEIGHT_END
  0
DIMENSION
  5
161
102
{ACAD_REACTORS
102
}
102
{ACAD_XDICTIONARY
360
162
102
}
330
1F
100
AcDbEntity
  8
ANNOTATION_TEXT
100
AcDbDimension
  2
*D5
 10
84.25518792994912
 20
126.8167017963032
 30
0.0
 11
51.40518792994911
 21
126.8167017963032
 31
0.0
 70
   161
  1
(<>)
  3
ONSHAPE-ISO-25$0
100
AcDbAlignedDimension
 13
17.55518792994911
 23
137.0062728251815
 33
0.0
 14
84.25518792994912
 24
137.0062728251815
 34
0.0
1001
ACAD
1000
DSTYLE
1002
{
1070
     4
1000
[]
1070
   144
1040
1.0
1070
     3
1000

1070
   288
1070
     1
1002
}
1001
ACAD_DIMASSOC_CALC_DIMLFAC
1040
-1.0
1001
ACAD_DIMASSOC_DIMLFAC
1040
-1.0
1001
ACAD_DIMASSOC_OVERRIDDEN_D
1040
0.0
1001
ONSHAPE_DATA_CUSTOMASSOC
1000
RvBl
1001
KDIM_DIT_INFOIDS
1071
        1
1071
        0
1000
7c16a4f893c59727774109a0
1000
f9cb2954096b3515ac6188b6
1000

1000
RvBD
1000
RnBD
1000
default
1000
default
  0
DIMENSION
  5
174
102
{ACAD_REACTORS
102
}
102
{ACAD_XDICTIONARY
360
175
102
}
330
1F
100
AcDbEntity
  8
ANNOTATION_TEXT
100
AcDbDimension
  2
*D6
 10
208.5091695639236
 20
126.8167017963032
 30
0.0
 11
143.433009202257
 21
126.8167017963032
 31
0.0
 70
   161
  1
(<>)
  3
ONSHAPE-ISO-25$0
100
AcDbAlignedDimension
 13
92.10916956392361
 23
137.0062728251815
 33
0.0
 14
208.5091695639236
 24
137.0062728251815
 34
0.0
1001
ACAD
1000
DSTYLE
1002
{
1070
     4
1000
[]
1070
   144
1040
1.0
1070
     3
1000

1070
   288
1070
     1
1002
}
1001
ACAD_DIMASSOC_CALC_DIMLFAC
1040
-1.0
1001
ACAD_DIMASSOC_DIMLFAC
1040
-1.0
1001
ACAD_DIMASSOC_OVERRIDDEN_D
1040
0.0
1001
ONSHAPE_DATA_CUSTOMASSOC
1000
SvBVB
1001
KDIM_DIT_INFOIDS
1071
        1
1071
        0
1000
7c16a4f893c59727774109a0
1000
f9cb2954096b3515ac6188b6
1000

1000
RvBD
1000
RnBD
1000
default
1000
default
  0
DIMENSION
  5
185
102
{ACAD_REACTORS
102
}
102
{ACAD_XDICTIONARY
360
186
102
}
330
1F
100
AcDbEntity
  8
ANNOTATION_TEXT
100
AcDbDimension
  2
*D7
 10
88.18217874693632
 20
113.4732904638473
 30
0.0
 11
73.58498088703769
 21
113.4732904638473
 31
0.0
 70
   160
  3
ONSHAPE-ISO-25$0
100
AcDbAlignedDimension
 13
17.55518792994911
 23
137.0062728251815
 33
0.0
 14
88.18217874693632
 24
137.0062728251815
 34
0.0
100
AcDbRotatedDimension
1001
ACAD
1000
DSTYLE
1002
{
1070
     4
1000
[]
1070
   144
1040
1.0
1070
     3
1000

1070
   288
1070
     1
1002
}
1001
ACAD_DIMASSOC_CALC_DIMLFAC
1040
-1.0
1001
ACAD_DIMASSOC_DIMLFAC
1040
-1.0
1001
ACAD_DIMASSOC_OVERRIDDEN_D
1040
0.0
  0
DIMENSION
  5
196
102
{ACAD_REACTORS
102
}
102
{ACAD_XDICTIONARY
360
197
102
}
330
1F
100
AcDbEntity
  8
ANNOTATION_TEXT
100
AcDbDimension
  2
*D8
 10
283.0631511978982
 20
192.8590883756718
 30
0.0
 11
182.9350721104365
 21
192.8590883756718
 31
0.0
 70
   160
  3
ONSHAPE-ISO-25$0
100
AcDbAlignedDimension
 13
17.55518792994911
 23
190.0062728251815
 33
0.0
 14
283.0631511978982
 24
190.0062728251816
 34
0.0
100
AcDbRotatedDimension
1001
ACAD
1000
DSTYLE
1002
{
1070
     4
1000
[]
1070
   144
1040
1.0
1070
     3
1000

1070
   288
1070
     1
1002
}
1001
ACAD_DIMASSOC_CALC_DIMLFAC
1040
-1.0
1001
ACAD_DIMASSOC_DIMLFAC
1040
-1.0
1001
ACAD_DIMASSOC_OVERRIDDEN_D
1040
0.0
  0
DIMENSION
  5
1A7
102
{ACAD_REACTORS
102
}
102
{ACAD_XDICTIONARY
360
1A8
102
}
330
1F
100
AcDbEntity
  8
ANNOTATION_TEXT
100
AcDbDimension
  2
*D9
 10
245.9242121395362
 20
60.70260714008659
 30
0.0
 11
233.4216400637273
 21
60.70260714008659
 31
0.0
 70
   161
  3
ONSHAPE-ISO-25$0
100
AcDbAlignedDimension
 13
219.4242121395362
 23
67.34931741617689
 33
0.0
 14
245.9242121395362
 24
67.34931741617689
 34
-0.0000000000000036
1001
ACAD
1000
DSTYLE
1002
{
1070
     4
1000
[]
1070
   144
1040
2.0
1070
     3
1000

1070
   288
1070
     1
1002
}
1001
ACAD_DIMASSOC_CALC_DIMLFAC
1040
-2.0
1001
ACAD_DIMASSOC_DIMLFAC
1040
-2.0
1001
ACAD_DIMASSOC_OVERRIDDEN_D
1040
0.0
1001
ONSHAPE_DATA_CUSTOMASSOC
1000
RxBd
1001
KDIM_DIT_INFOIDS
1071
        1
1071
        0
1000
7c16a4f893c59727774109a0
1000
f9cb2954096b3515ac6188b6
1000

1000
RnBD
1000

1000
default
1000
default
  0
DIMENSION
  5
1B8
102
{ACAD_REACTORS
102
}
102
{ACAD_XDICTIONARY
360
1B9
102
}
330
1F
100
AcDbEntity
  8
ANNOTATION_TEXT
100
AcDbDimension
  2
*D10
 10
245.9242121395362
 20
100.3493174161769
 30
0.0
 11
254.3734909438258
 21
100.3493174161769
 31
0.0
 70
   160
  3
ONSHAPE-ISO-25$0
100
AcDbAlignedDimension
 13
232.6742121395362
 23
100.3493174161769
 33
33.25
 14
245.9242121395362
 24
100.415787135527
 34
33.25
100
AcDbRotatedDimension
1001
ACAD
1000
DSTYLE
1002
{
1070
     4
1000
[]
1070
   144
1040
2.0
1070
     3
1000

1070
   288
1070
     1
1002
}
1001
ACAD_DIMASSOC_CALC_DIMLFAC
1040
-2.0
1001
ACAD_DIMASSOC_DIMLFAC
1040
-2.0
1001
ACAD_DIMASSOC_OVERRIDDEN_D
1040
0.0
  0
DIMENSION
  5
1CA
102
{ACAD_REACTORS
102
}
102
{ACAD_XDICTIONARY
360
1CB
102
}
330
1F
100
AcDbEntity
  8
ANNOTATION_TEXT
100
AcDbDimension
  2
*D11
 10
121.8460547375845
 20
183.1171504396878
 30
0.0
 11
148.9601748579046
 21
165.0062728251814
 31
0.0000000000000302
 70
   163
  3
ONSHAPE-ISO-25$3
100
AcDbDiametricDimension
 15
125.1722843902626
 25
180.8953952106752
 35
0.0
 40
0.0
1001
ACAD
1000
DSTYLE
1002
{
1070
     4
1000
[]
1070
   144
1040
1.0
1070
    44
1040
0.523598
1070
     3
1000
%%c<>
1070
   288
1070
     1
1002
}
1001
ACAD_DSTYLE_DIMRADIAL_EXTE
1070
   387
1070
     1
1070
   388
1040
0.0
1070
   390
1040
6.283185307179586
1001
ACAD_DIMASSOC_CALC_DIMLFAC
1040
-1.0
1001
ACAD_DIMASSOC_DIMLFAC
1040
-1.0
1001
ACAD_DIMASSOC_OVERRIDDEN_D
1040
0.0
  0
DIMENSION
  5
1D9
102
{ACAD_REACTORS
102
}
102
{ACAD_XDICTIONARY
360
1DA
102
}
330
1F
100
AcDbEntity
  8
ANNOTATION_TEXT
100
AcDbDimension
  2
*D12
 10
115.7908402212482
 20
137.0062728251815
 30
0.0
 11
115.7908402212482
 21
141.0062728251815
 31
0.0
 70
   160
  3
ONSHAPE-ISO-25$0
100
AcDbAlignedDimension
 13
123.5091695639235
 23
145.0062728251815
 33
0.0
 14
92.10916956392361
 24
137.0062728251815
 34
0.0
 50
90.0
100
AcDbRotatedDimension
1001
ACAD
1000
DSTYLE
1002
{
1070
     4
1000
[]
1070
   144
1040
1.0
1070
     3
1000

1070
   288
1070
     1
1002
}
1001
ACAD_DIMASSOC_CALC_DIMLFAC
1040
-1.0
1001
ACAD_DIMASSOC_DIMLFAC
1040
-1.0
1001
ACAD_DIMASSOC_OVERRIDDEN_D
1040
0.0
  0
DIMENSION
  5
1EA
102
{ACAD_REACTORS
102
}
102
{ACAD_XDICTIONARY
360
1EB
102
}
330
1F
100
AcDbEntity
  8
ANNOTATION_TEXT
100
AcDbDimension
  2
*D13
 10
283.0631511978982
 20
141.0062728251816
 30
0.0
 11
152.4696517582732
 21
141.0062728251816
 31
0.0
 70
   160
  3
ONSHAPE-ISO-25$0
100
AcDbAlignedDimension
 13
177.1091695639236
 23
145.0062728251815
 33
0.0
 14
283.0631511978982
 24
137.0062728251816
 34
0.0
100
AcDbRotatedDimension
1001
ACAD
1000
DSTYLE
1002
{
1070
     4
1000
[]
1070
   144
1040
1.0
1070
     3
1000

1070
   288
1070
     1
1002
}
1001
ACAD_DIMASSOC_CALC_DIMLFAC
1040
-1.0
1001
ACAD_DIMASSOC_DIMLFAC
1040
-1.0
1001
ACAD_DIMASSOC_OVERRIDDEN_D
1040
0.0
  0
DIMENSION
  5
1FC
102
{ACAD_REACTORS
102
}
102
{ACAD_XDICTIONARY
360
1FD
102
}
330
1F
100
AcDbEntity
  8
ANNOTATION_TEXT
100
AcDbDimension
  2
*D14
 10
177.1091695639236
 20
181.8929169759771
 30
0.0
 11
150.3091695639236
 21
181.8929169759771
 31
0.0
 70
   160
  3
ONSHAPE-ISO-25$0
100
AcDbAlignedDimension
 13
123.5091695639235
 23
182.0062728251815
 33
0.0
 14
177.1091695639236
 24
182.0062728251815
 34
0.0
100
AcDbRotatedDimension
1001
ACAD
1000
DSTYLE
1002
{
1070
     4
1000
[]
1070
   144
1040
1.0
1070
     3
1000

1070
   288
1070
     1
1002
}
1001
ACAD_DIMASSOC_CALC_DIMLFAC
1040
-1.0
1001
ACAD_DIMASSOC_DIMLFAC
1040
-1.0
1001
ACAD_DIMASSOC_OVERRIDDEN_D
1040
0.0
  0
MTEXT
  5
20D
102
{ACAD_XDICTIONARY
360
306
102
}
330
1F
100
AcDbEntity
  8
ANNOTATION_TEXT
100
AcDbMText
 10
156.5783255232437
 20
168.8576875669931
 30
0.0
 40
3.5
 41
33.77738990182448
 71
     1
 72
     5
  1
holes for M3 heat inserts
  7
ONSHAPE-STANDARD-NOTESTYLE
1001
ACAD
1000
ACAD_MTEXT_DEFINED_HEIGHT_BEGIN
1070
    46
1040
9.774409627611263
1000
ACAD_MTEXT_DEFINED_HEIGHT_END
  0
DIMENSION
  5
20E
102
{ACAD_REACTORS
102
}
102
{ACAD_XDICTIONARY
360
20F
102
}
330
1F
100
AcDbEntity
  8
ANNOTATION_TEXT
100
AcDbDimension
  2
*D15
 10
130.5283214984244
 20
107.7517964323791
 30
0.0
 11
129.0283214984244
 21
107.7517964323791
 31
0.0
 70
   161
  3
ONSHAPE-ISO-25$0
100
AcDbAlignedDimension
 13
127.5283214984244
 23
104.8493174161769
 33
0.0
 14
130.5283214984244
 24
104.8493174161769
 34
0.0
1001
ACAD
1000
DSTYLE
1002
{
1070
     4
1000
[]
1070
   144
1040
2.0
1070
     3
1000

1070
   288
1070
     1
1002
}
1001
ACAD_DIMASSOC_CALC_DIMLFAC
1040
-2.0
1001
ACAD_DIMASSOC_DIMLFAC
1040
-2.0
1001
ACAD_DIMASSOC_OVERRIDDEN_D
1040
0.0
  0
MTEXT
  5
226
330
1F
100
AcDbEntity
  8
ANNOTATION_TEXT
 62
     7
100
AcDbMText
 10
84.05717874693632
 20
163.5062728251815
 30
0.0
 40
3.5
 41
0.0
 71
     2
 72
     1
  1
{\fNoto Sans;DOWN 90,0 R2,3}
  7
ONSHAPE-STANDARD-DIMENSION
 11
0.0
 21
1.0
 31
0.0
1001
ACAD
1000
ACAD_MTEXT_DEFINED_HEIGHT_BEGIN
1070
    46
1040
4.125
1000
ACAD_MTEXT_DEFINED_HEIGHT_END
  0
MTEXT
  5
22B
330
1F
100
AcDbEntity
  8
ANNOTATION_TEXT
 62
     7
100
AcDbMText
 10
208.3111603809109
 20
163.5062728251815
 30
0.0
 40
3.5
 41
0.0
 71
     2
 72
     1
  1
{\fNoto Sans;DOWN 90,0 R2,3}
  7
ONSHAPE-STANDARD-DIMENSION
 11
-9.652656032967398E-15
 21
1.0
 31
0.0
1001
ACAD
1000
ACAD_MTEXT_DEFINED_HEIGHT_BEGIN
1070
    46
1040
4.125
1000
ACAD_MTEXT_DEFINED_HEIGHT_END
  0
LINE
  5
22F
330
1F
100
AcDbEntity
  8
VISIBLE
100
AcDbLine
 10
127.5283214984244
 20
104.8493174161769
 30
0.0
 11
130.5283214984244
 21
104.8493174161769
 31
0.0
  0
LINE
  5
230
330
1F
100
AcDbEntity
  8
VISIBLE
100
AcDbLine
 10
130.5283214984244
 20
104.8493174161769
 30
0.0
 11
130.5283214984244
 21
71.4993174161769
 31
0.0
  0
LINE
  5
231
330
1F
100
AcDbEntity
  8
TANGENT_LINES
100
AcDbLine
 10
127.5283214984244
 20
71.4993174161769
 30
0.0
 11
130.5283214984244
 21
71.4993174161769
 31
0.0
  0
LINE
  5
232
330
1F
100
AcDbEntity
  8
VISIBLE
100
AcDbLine
 10
127.5283214984244
 20
104.8493174161769
 30
0.0
 11
127.5283214984244
 21
71.4993174161769
 31
0.0
  0
LINE
  5
233
330
1F
100
AcDbEntity
  8
VISIBLE
100
AcDbLine
 10
194.0283214984244
 20
104.8493174161769
 30
0.0
 11
191.0283214984244
 21
104.8493174161769
 31
0.0
  0
LINE
  5
234
330
1F
100
AcDbEntity
  8
TANGENT_LINES
100
AcDbLine
 10
194.0283214984244
 20
71.4993174161769
 30
0.0
 11
191.0283214984244
 21
71.4993174161769
 31
0.0
  0
LINE
  5
235
330
1F
100
AcDbEntity
  8
VISIBLE
100
AcDbLine
 10
191.0283214984244
 20
104.8493174161769
 30
0.0
 11
191.0283214984244
 21
71.4993174161769
 31
0.0
  0
LINE
  5
236
330
1F
100
AcDbEntity
  8
VISIBLE
100
AcDbLine
 10
194.0283214984244
 20
104.8493174161769
 30
0.0
 11
194.0283214984244
 21
71.4993174161769
 31
0.0
  0
ARC
  5
237
330
1F
100
AcDbEntity
  8
VISIBLE
100
AcDbCircle
 10
189.8783214984244
 20
71.4993174161769
 30
0.0
 40
4.15
100
AcDbArc
 50
270.0
 51
0.0
  0
LINE
  5
238
330
1F
100
AcDbEntity
  8
VISIBLE
100
AcDbLine
 10
189.8783214984244
 20
67.34931741617689
 30
0.0
 11
131.6783214984245
 21
67.34931741617689
 31
0.0
  0
LINE
  5
239
330
1F
100
AcDbEntity
  8
VISIBLE
100
AcDbLine
 10
189.8783214984244
 20
70.34931741617689
 30
0.0
 11
131.6783214984245
 21
70.34931741617689
 31
0.0
  0
LINE
  5
23A
330
1F
100
AcDbEntity
  8
TANGENT_LINES
100
AcDbLine
 10
189.8783214984244
 20
67.34931741617689
 30
0.0
 11
189.8783214984244
 21
70.34931741617689
 31
0.0
  0
ARC
  5
23B
330
1F
100
AcDbEntity
  8
VISIBLE
100
AcDbCircle
 10
189.8783214984244
 20
71.4993174161769
 30
0.0
 40
1.15
100
AcDbArc
 50
270.0
 51
0.0
  0
LINE
  5
23C
330
1F
100
AcDbEntity
  8
TANGENT_LINES
100
AcDbLine
 10
131.6783214984245
 20
67.34931741617689
 30
0.0
 11
131.6783214984245
 21
70.34931741617689
 31
0.0
  0
ARC
  5
23D
330
1F
100
AcDbEntity
  8
VISIBLE
100
AcDbCircle
 10
131.6783214984245
 20
71.4993174161769
 30
0.0
 40
4.15
100
AcDbArc
 50
180.0
 51
270.0
  0
ARC
  5
23E
330
1F
100
AcDbEntity
  8
VISIBLE
100
AcDbCircle
 10
131.6783214984245
 20
71.4993174161769
 30
0.0
 40
1.15
100
AcDbArc
 50
180.0
 51
270.0
  0
LINE
  5
242
330
1F
100
AcDbEntity
  8
TANGENT_LINES
100
AcDbLine
 10
53.9927041637888
 20
78.06862916639541
 30
0.0
 11
35.25437446234528
 21
67.25004946910305
 31
0.0
  0
LINE
  5
243
330
1F
100
AcDbEntity
  8
VISIBLE
100
AcDbLine
 10
53.9927041637888
 20
105.2987901403351
 30
0.0
 11
53.9927041637888
 21
78.06862916639541
 31
0.0
  0
LINE
  5
244
330
1F
100
AcDbEntity
  8
TANGENT_LINES
100
AcDbLine
 10
33.13305411878564
 20
68.47479434049464
 30
0.0
 11
35.25437446234528
 21
67.25004946910305
 31
0.0
  0
LINE
  5
245
330
1F
100
AcDbEntity
  8
VISIBLE
100
AcDbLine
 10
51.87138382022916
 20
106.5235350117267
 30
0.0
 11
53.9927041637888
 21
105.2987901403351
 31
0.0
  0
LINE
  5
246
330
1F
100
AcDbEntity
  8
VISIBLE
100
AcDbLine
 10
33.13305411878564
 20
95.7049553144343
 30
0.0
 11
35.25437446234528
 21
94.48021044304271
 31
0.0
  0
LINE
  5
247
330
1F
100
AcDbEntity
  8
VISIBLE
100
AcDbLine
 10
53.9927041637888
 20
105.2987901403351
 30
0.0
 11
35.25437446234528
 21
94.48021044304271
 31
0.0
  0
LINE
  5
248
330
1F
100
AcDbEntity
  8
VISIBLE
100
AcDbLine
 10
35.25437446234528
 20
94.48021044304271
 30
0.0
 11
35.25437446234528
 21
67.25004946910305
 31
0.0
  0
LINE
  5
249
330
1F
100
AcDbEntity
  8
VISIBLE
100
AcDbLine
 10
80.15565506769107
 20
68.55644399858741
 30
0.0
 11
80.15565506769107
 21
41.32628302464774
 31
0.0
  0
LINE
  5
24A
330
1F
100
AcDbEntity
  8
VISIBLE
100
AcDbLine
 10
54.80587696215333
 20
76.66017256429508
 30
0.0
 11
78.03433472413144
 21
63.24921622255718
 31
0.0
  0
LINE
  5
24B
330
1F
100
AcDbEntity
  8
VISIBLE
100
AcDbLine
 10
33.13305411878564
 20
95.7049553144343
 30
0.0
 11
33.13305411878564
 21
68.47479434049464
 31
0.0
  0
LINE
  5
24C
330
1F
100
AcDbEntity
  8
VISIBLE
100
AcDbLine
 10
80.15565506769107
 20
68.55644399858741
 30
0.0
 11
78.03433472413143
 21
69.78118886997899
 31
0.0
  0
LINE
  5
24D
330
1F
100
AcDbEntity
  8
VISIBLE
100
AcDbLine
 10
98.89398476913459
 20
79.37502369587978
 30
0.0
 11
80.15565506769107
 21
68.55644399858741
 31
0.0
  0
LINE
  5
24E
330
1F
100
AcDbEntity
  8
VISIBLE
100
AcDbLine
 10
96.77266442557496
 20
80.59976856727135
 30
0.0
 11
78.03433472413143
 21
69.78118886997899
 31
0.0
  0
LINE
  5
24F
330
1F
100
AcDbEntity
  8
VISIBLE
100
AcDbLine
 10
51.87138382022916
 20
106.5235350117267
 30
0.0
 11
33.13305411878564
 21
95.7049553144343
 31
0.0
  0
LINE
  5
250
330
1F
100
AcDbEntity
  8
VISIBLE
100
AcDbLine
 10
98.89398476913459
 20
52.14486272194011
 30
0.0
 11
98.89398476913459
 21
79.37502369587978
 31
0.0
  0
LINE
  5
251
330
1F
100
AcDbEntity
  8
TANGENT_LINES
100
AcDbLine
 10
80.15565506769107
 20
41.32628302464774
 30
0.0
 11
78.03433472413143
 21
42.55102789603934
 31
0.0
  0
LINE
  5
252
330
1F
100
AcDbEntity
  8
VISIBLE
100
AcDbLine
 10
77.22116192576689
 20
42.08154236200588
 30
0.0
 11
36.0675472607098
 21
65.8415928670027
 31
0.0
  0
LINE
  5
253
330
1F
100
AcDbEntity
  8
VISIBLE
100
AcDbLine
 10
77.22116192576689
 20
39.6320526192227
 30
0.0
 11
36.06754726070981
 21
63.39210312421953
 31
0.0
  0
LINE
  5
254
330
1F
100
AcDbEntity
  8
VISIBLE
100
AcDbLine
 10
98.89398476913459
 20
79.37502369587978
 30
0.0
 11
96.77266442557496
 21
80.59976856727135
 31
0.0
  0
LINE
  5
255
330
1F
100
AcDbEntity
  8
TANGENT_LINES
100
AcDbLine
 10
98.89398476913459
 20
52.14486272194011
 30
0.0
 11
80.15565506769107
 21
41.32628302464774
 31
0.0
  0
LINE
  5
256
330
1F
100
AcDbEntity
  8
TANGENT_LINES
100
AcDbLine
 10
78.03433472413143
 20
42.55102789603934
 30
0.0
 11
77.22116192576689
 21
42.08154236200588
 31
0.0
  0
LINE
  5
257
330
1F
100
AcDbEntity
  8
TANGENT_LINES
100
AcDbLine
 10
54.80587696215333
 20
76.66017256429508
 30
0.0
 11
36.0675472607098
 21
65.8415928670027
 31
0.0
  0
LINE
  5
258
330
1F
100
AcDbEntity
  8
VISIBLE
100
AcDbLine
 10
78.03433472413143
 20
69.78118886997899
 30
0.0
 11
78.03433472413143
 21
42.55102789603934
 31
0.0
  0
LINE
  5
259
330
1F
100
AcDbEntity
  8
VISIBLE
100
AcDbLine
 10
79.2961619257669
 20
39.42650800436736
 30
0.0
 11
98.03449162721043
 21
50.24508770165971
 31
0.0
  0
LINE
  5
25A
330
1F
100
AcDbEntity
  8
TANGENT_LINES
100
AcDbLine
 10
77.22116192576689
 20
39.6320526192227
 30
0.0
 11
77.22116192576689
 21
42.08154236200588
 31
0.0
  0
LINE
  5
25B
330
1F
100
AcDbEntity
  8
TANGENT_LINES
100
AcDbLine
 10
36.06754726070981
 20
63.39210312421953
 30
0.0
 11
36.0675472607098
 21
65.8415928670027
 31
0.0
  0
ELLIPSE
  5
25C
330
1F
100
AcDbEntity
  8
VISIBLE
100
AcDbEllipse
 10
36.06754726070982
 20
66.78056393506961
 30
0.0
 11
-0.5750000000000027
 21
0.9959292143521026
 31
0.0
210
0.0
220
0.0
230
-1.0
 40
0.5773502691896258
 41
3.926990816987235
 42
5.497787143782165
  0
ELLIPSE
  5
25D
330
1F
100
AcDbEntity
  8
VISIBLE
100
AcDbEllipse
 10
36.06754726070982
 20
66.78056393506961
 30
0.0
 11
-2.074999999999999
 21
3.594005425705419
 31
0.0
210
0.0
220
0.0
230
-1.0
 40
0.5773502691896271
 41
3.926990816987238
 42
5.497787143782142
  0
ELLIPSE
  5
25E
330
1F
100
AcDbEntity
  8
VISIBLE
100
AcDbEllipse
 10
54.80587696215333
 20
77.59914363236197
 30
0.0
 11
0.5750000000000027
 21
-0.9959292143521026
 31
0.0
210
0.0
220
0.0
230
1.0
 40
0.5773502691896258
 41
3.926990816987214
 42
5.497787143782134
  0
ELLIPSE
  5
25F
330
1F
100
AcDbEntity
  8
VISIBLE
100
AcDbEllipse
 10
44.62353931306704
 20
96.21526567751413
 30
0.0
 11
-0.5624999999999996
 21
-0.9742785792574934
 31
0.0
210
0.0
220
0.0
230
-1.0
 40
0.577350269189626
 41
0.0
 42
6.283185307179586
  0
ELLIPSE
  5
260
330
1F
100
AcDbEntity
  8
VISIBLE
100
AcDbEllipse
 10
63.07902630203594
 20
68.61768124215698
 30
0.0
 11
1.0
 21
1.073081856240829E-16
 31
0.0
210
0.0
220
0.0
230
-1.0
 40
0.5773502691896258
 41
0.0
 42
6.283185307179586
  0
ELLIPSE
  5
261
330
1F
100
AcDbEntity
  8
VISIBLE
100
AcDbEllipse
 10
77.22116192576689
 20
43.02051343007276
 30
0.0
 11
-2.075000000000003
 21
3.594005425705426
 31
0.0
210
0.0
220
0.0
230
-1.0
 40
0.5773502691896252
 41
2.356194490192345
 42
3.926990816987232
  0
ELLIPSE
  5
262
330
1F
100
AcDbEntity
  8
VISIBLE
100
AcDbEllipse
 10
68.9480125858843
 20
50.12403368414401
 30
0.0
 11
1.0
 21
1.073081856240829E-16
 31
0.0
210
0.0
220
0.0
230
-1.0
 40
0.5773502691896258
 41
0.0
 42
6.283185307179586
  0
ELLIPSE
  5
263
330
1F
100
AcDbEntity
  8
VISIBLE
100
AcDbEllipse
 10
77.22116192576689
 20
43.02051343007276
 30
0.0
 11
-0.5750000000000027
 21
0.9959292143521026
 31
0.0
210
0.0
220
0.0
230
-1.0
 40
0.577350269189629
 41
2.356194490192359
 42
3.926990816987224
  0
ELLIPSE
  5
264
330
1F
100
AcDbEntity
  8
VISIBLE
100
AcDbEllipse
 10
89.52481991841282
 20
70.29149923305883
 30
0.0
 11
0.5624999999999999
 21
0.9742785792574935
 31
0.0
210
0.0
220
0.0
230
1.0
 40
0.5773502691896258
 41
0.0
 42
6.283185307179586
  0
ELLIPSE
  5
265
330
1F
100
AcDbEntity
  8
VISIBLE
100
AcDbEllipse
 10
95.95949162721041
 20
53.83909312736515
 30
0.0
 11
2.075000000000003
 21
-3.594005425705419
 31
0.0
210
0.0
220
0.0
230
1.0
 40
0.5773502691896257
 41
0.0
 42
0.7853981633974485
  0
ELLIPSE
  5
266
330
1F
100
AcDbEntity
  8
VISIBLE
100
AcDbEllipse
 10
49.99755085008481
 20
61.06508786857551
 30
0.0
 11
1.0
 21
1.073081856240829E-16
 31
0.0
210
0.0
220
0.0
230
-1.0
 40
0.5773502691896258
 41
0.0
 42
6.283185307179586
  0
LINE
  5
26A
330
1F
100
AcDbEntity
  8
VISIBLE
100
AcDbLine
 10
219.4242121395362
 20
67.34931741617689
 30
0.0
 11
245.9242121395362
 21
67.34931741617689
 31
0.0
  0
LINE
  5
26B
330
1F
100
AcDbEntity
  8
VISIBLE
100
AcDbLine
 10
219.4242121395362
 20
104.8493174161769
 30
0.0
 11
219.4242121395362
 21
71.4993174161769
 31
0.0
  0
LINE
  5
26C
330
1F
100
AcDbEntity
  8
VISIBLE
100
AcDbLine
 10
219.4242121395362
 20
104.8493174161769
 30
0.0
 11
245.9242121395362
 21
104.8493174161769
 31
0.0
  0
LINE
  5
26D
330
1F
100
AcDbEntity
  8
VISIBLE
100
AcDbLine
 10
245.9242121395362
 20
104.8493174161769
 30
0.0
 11
245.9242121395362
 21
71.4993174161769
 31
0.0
  0
LINE
  5
26E
330
1F
100
AcDbEntity
  8
TANGENT_LINES
100
AcDbLine
 10
219.4242121395362
 20
71.4993174161769
 30
0.0
 11
245.9242121395362
 21
71.4993174161769
 31
0.0
  0
CIRCLE
  5
26F
330
1F
100
AcDbEntity
  8
VISIBLE
100
AcDbCircle
 10
232.6742121395362
 20
100.3493174161769
 30
0.0
 40
1.125
  0
LINE
  5
270
330
1F
100
AcDbEntity
  8
VISIBLE
100
AcDbLine
 10
245.9242121395362
 20
67.34931741617689
 30
0.0
 11
245.9242121395362
 21
71.4993174161769
 31
0.0
  0
LINE
  5
271
330
1F
100
AcDbEntity
  8
VISIBLE
100
AcDbLine
 10
219.4242121395362
 20
71.4993174161769
 30
0.0
 11
219.4242121395362
 21
67.34931741617689
 31
0.0
  0
LINE
  5
276
330
1F
100
AcDbEntity
  8
SHEETMETAL_BEND_LINES_DOWN
100
AcDbLine
 10
88.18217874693632
 20
190.0062728251815
 30
0.0
 11
88.18217874693632
 21
137.0062728251815
 31
0.0
  0
LINE
  5
277
330
1F
100
AcDbEntity
  8
SHEETMETAL_BEND_LINES_DOWN
100
AcDbLine
 10
212.4361603809106
 20
190.0062728251815
 30
0.0
 11
212.4361603809111
 21
137.0062728251815
 31
0.0
  0
CIRCLE
  5
278
330
1F
100
AcDbEntity
  8
VISIBLE
100
AcDbCircle
 10
274.0631511978981
 20
163.5062728251816
 30
0.0
 40
2.25
  0
CIRCLE
  5
279
330
1F
100
AcDbEntity
  8
VISIBLE
100
AcDbCircle
 10
26.55518792994911
 20
163.5062728251815
 30
0.0
 40
2.25
  0
CIRCLE
  5
27A
330
1F
100
AcDbEntity
  8
VISIBLE
100
AcDbCircle
 10
123.5091695639235
 20
182.0062728251815
 30
0.0
 40
2.0
  0
CIRCLE
  5
27B
330
1F
100
AcDbEntity
  8
VISIBLE
100
AcDbCircle
 10
177.1091695639236
 20
182.0062728251815
 30
0.0
 40
2.0
  0
CIRCLE
  5
27C
330
1F
100
AcDbEntity
  8
VISIBLE
100
AcDbCircle
 10
177.1091695639236
 20
145.0062728251815
 30
0.0
 40
2.0
  0
LINE
  5
27D
330
1F
100
AcDbEntity
  8
VISIBLE
100
AcDbLine
 10
92.10916956392361
 20
137.0062728251815
 30
0.0
 11
208.5091695639236
 21
137.0062728251815
 31
0.0
  0
CIRCLE
  5
27E
330
1F
100
AcDbEntity
  8
VISIBLE
100
AcDbCircle
 10
123.5091695639235
 20
145.0062728251815
 30
0.0
 40
2.0
  0
LINE
  5
27F
330
1F
100
AcDbEntity
  8
VISIBLE
100
AcDbLine
 10
17.55518792994911
 20
137.0062728251815
 30
0.0
 11
17.55518792994911
 21
190.0062728251815
 31
0.0
  0
LINE
  5
280
330
1F
100
AcDbEntity
  8
VISIBLE
100
AcDbLine
 10
208.5091695639236
 20
137.0062728251815
 30
0.0
 11
216.3631511978981
 21
137.0062728251816
 31
0.0
  0
LINE
  5
281
330
1F
100
AcDbEntity
  8
VISIBLE
100
AcDbLine
 10
208.5091695639236
 20
190.0062728251815
 30
0.0
 11
92.10916956392361
 21
190.0062728251815
 31
0.0
  0
LINE
  5
282
330
1F
100
AcDbEntity
  8
VISIBLE
100
AcDbLine
 10
216.3631511978981
 20
190.0062728251816
 30
0.0
 11
208.5091695639236
 21
190.0062728251815
 31
0.0
  0
LINE
  5
283
330
1F
100
AcDbEntity
  8
VISIBLE
100
AcDbLine
 10
283.0631511978982
 20
137.0062728251816
 30
0.0
 11
283.0631511978982
 21
190.0062728251816
 31
0.0
  0
LINE
  5
284
330
1F
100
AcDbEntity
  8
VISIBLE
100
AcDbLine
 10
84.25518792994912
 20
137.0062728251815
 30
0.0
 11
92.10916956392361
 21
137.0062728251815
 31
0.0
  0
LINE
  5
285
330
1F
100
AcDbEntity
  8
VISIBLE
100
AcDbLine
 10
216.3631511978981
 20
137.0062728251816
 30
0.0
 11
283.0631511978982
 21
137.0062728251816
 31
0.0
  0
LINE
  5
286
330
1F
100
AcDbEntity
  8
VISIBLE
100
AcDbLine
 10
92.10916956392361
 20
190.0062728251815
 30
0.0
 11
84.25518792994912
 21
190.0062728251815
 31
0.0
  0
LINE
  5
287
330
1F
100
AcDbEntity
  8
VISIBLE
100
AcDbLine
 10
283.0631511978982
 20
190.0062728251816
 30
0.0
 11
216.3631511978981
 21
190.0062728251816
 31
0.0
  0
LINE
  5
288
330
1F
100
AcDbEntity
  8
VISIBLE
100
AcDbLine
 10
17.55518792994911
 20
137.0062728251815
 30
0.0
 11
84.25518792994912
 21
137.0062728251815
 31
0.0
  0
LINE
  5
289
330
1F
100
AcDbEntity
  8
VISIBLE
100
AcDbLine
 10
17.55518792994911
 20
190.0062728251815
 30
0.0
 11
84.25518792994912
 21
190.0062728251815
 31
0.0
  0
ENDSEC
  0
SECTION
  2
OBJECTS
  0
DICTIONARY
  5
C
330
0
100
AcDbDictionary
  3
ACAD_FIELDLIST
350
221
  3
ACAD_GROUP
350
D
  3
ACAD_LAYOUT
350
1A
  3
ACAD_MATERIAL
350
43
  3
ACAD_MLEADERSTYLE
350
6B
  3
ACAD_MLINESTYLE
350
17
  3
ACAD_PLOTSETTINGS
350
19
  3
ACAD_SCALELIST
350
47
  3
ACAD_VISUALSTYLE
350
2A
  3
ACDB_RECOMPOSE_DATA
350
313
  3
ACDBHEADERROUNDTRIPXREC
350
2D1
  3
ACDBVARIABLEDICTIONARY
350
6E
  3
ONSHAPE_DATA
350
28A
  0
DICTIONARY
  5
308
330
8
100
AcDbDictionary
280
     1
  3
ACAD_XREC_ROUNDTRIP
360
309
  0
DICTIONARY
  5
AC
330
AB
100
AcDbDictionary
280
     1
  0
DICTIONARY
  5
B3
330
B2
100
AcDbDictionary
280
     1
  3
ACAD_MTEXT_RT
360
2F8
  0
DICTIONARY
  5
B9
330
B8
100
AcDbDictionary
280
     1
  0
DICTIONARY
  5
BF
330
BE
100
AcDbDictionary
280
     1
  0
DICTIONARY
  5
2F9
330
CB
100
AcDbDictionary
280
     1
  3
ACAD_MTEXT_RT
360
2FA
  0
DICTIONARY
  5
D9
330
D8
100
AcDbDictionary
280
     1
  3
ACAD_MTEXT_RT
360
2FB
  0
DICTIONARY
  5
DB
330
DA
100
AcDbDictionary
280
     1
  3
ACAD_MTEXT_RT
360
2FC
  0
DICTIONARY
  5
DE
330
DD
100
AcDbDictionary
280
     1
  0
DICTIONARY
  5
E5
330
E4
100
AcDbDictionary
280
     1
  0
DICTIONARY
  5
EC
330
EB
100
AcDbDictionary
280
     1
  0
DICTIONARY
  5
F3
330
F2
100
AcDbDictionary
280
     1
  3
ACAD_MTEXT_RT
360
2FD
  0
DICTIONARY
  5
FB
330
FA
100
AcDbDictionary
280
     1
  0
DICTIONARY
  5
101
330
100
100
AcDbDictionary
280
     1
  3
ONSHAPE_VIEW_ID
360
102
  0
DICTIONARY
  5
106
330
105
100
AcDbDictionary
280
     1
  3
ONSHAPE_VIEW_ID
360
107
  0
DICTIONARY
  5
109
330
108
100
AcDbDictionary
280
     1
  3
OS_DIM_DISPLAY_FLAG_DATA
360
10C
  0
DICTIONARY
  5
120
330
11F
100
AcDbDictionary
280
     1
  3
OS_DIM_DISPLAY_FLAG_DATA
360
124
  0
DICTIONARY
  5
2FE
330
131
100
AcDbDictionary
280
     1
  3
ACAD_MTEXT_RT
360
2FF
  0
DICTIONARY
  5
134
330
133
100
AcDbDictionary
280
     1
  3
ONSHAPE_VIEW_ID
360
135
  0
DICTIONARY
  5
137
330
136
100
AcDbDictionary
280
     1
  3
OS_DIM_DISPLAY_FLAG_DATA
360
139
  0
DICTIONARY
  5
148
330
147
100
AcDbDictionary
280
     1
  3
OS_DIM_DISPLAY_FLAG_DATA
360
14B
  0
DICTIONARY
  5
300
330
15B
100
AcDbDictionary
280
     1
  3
ACAD_MTEXT_RT
360
301
  0
DICTIONARY
  5
15D
330
15C
100
AcDbDictionary
280
     1
  3
ONSHAPE_VIEW_ID
360
15E
  0
DICTIONARY
  5
302
330
15F
100
AcDbDictionary
280
     1
  3
ACAD_MTEXT_RT
360
303
  0
DICTIONARY
  5
304
330
160
100
AcDbDictionary
280
     1
  3
ACAD_MTEXT_RT
360
305
  0
DICTIONARY
  5
162
330
161
100
AcDbDictionary
280
     1
  3
OS_DIM_DISPLAY_FLAG_DATA
360
165
  0
DICTIONARY
  5
175
330
174
100
AcDbDictionary
280
     1
  3
OS_DIM_DISPLAY_FLAG_DATA
360
178
  0
DICTIONARY
  5
186
330
185
100
AcDbDictionary
280
     1
  3
OS_DIM_DISPLAY_FLAG_DATA
360
189
  0
DICTIONARY
  5
197
330
196
100
AcDbDictionary
280
     1
  3
OS_DIM_DISPLAY_FLAG_DATA
360
19A
  0
DICTIONARY
  5
1A8
330
1A7
100
AcDbDictionary
280
     1
  3
OS_DIM_DISPLAY_FLAG_DATA
360
1AB
  0
DICTIONARY
  5
1B9
330
1B8
100
AcDbDictionary
280
     1
  3
OS_DIM_DISPLAY_FLAG_DATA
360
1BC
  0
DICTIONARY
  5
1CB
330
1CA
100
AcDbDictionary
280
     1
  3
OS_DIM_DISPLAY_FLAG_DATA
360
1CD
  0
DICTIONARY
  5
1DA
330
1D9
100
AcDbDictionary
280
     1
  3
OS_DIM_DISPLAY_FLAG_DATA
360
1DD
  0
DICTIONARY
  5
1EB
330
1EA
100
AcDbDictionary
280
     1
  3
OS_DIM_DISPLAY_FLAG_DATA
360
1EE
  0
DICTIONARY
  5
1FD
330
1FC
100
AcDbDictionary
280
     1
  3
OS_DIM_DISPLAY_FLAG_DATA
360
200
  0
DICTIONARY
  5
306
330
20D
100
AcDbDictionary
280
     1
  3
ACAD_MTEXT_RT
360
307
  0
DICTIONARY
  5
20F
330
20E
100
AcDbDictionary
280
     1
  3
OS_DIM_DISPLAY_FLAG_DATA
360
212
  0
ACAD_PROXY_OBJECT
  5
221
102
{ACAD_REACTORS
330
C
102
}
330
C
100
AcDbProxyObject
 90
      499
 91
      510
 93
       11
310
43C0
330
AF
330
B0
330
BC
330
BD
330
C2
330
C3
330
E1
330
E2
330
E8
330
E9
330
EF
330
F0
330
F6
330
FE
330
FF
 94
        0
  0
DICTIONARY
  5
D
102
{ACAD_REACTORS
330
C
102
}
330
C
100
AcDbDictionary
  0
DICTIONARY
  5
1A
102
{ACAD_REACTORS
330
C
102
}
330
C
100
AcDbDictionary
  0
DICTIONARY
  5
43
102
{ACAD_REACTORS
330
C
102
}
330
C
100
AcDbDictionary
  3
BYBLOCK
350
45
  3
BYLAYER
350
44
  3
GLOBAL
350
46
  0
DICTIONARY
  5
6B
102
{ACAD_REACTORS
330
C
102
}
330
C
100
AcDbDictionary
  3
STANDARD
350
6C
  0
DICTIONARY
  5
17
102
{ACAD_REACTORS
330
C
102
}
330
C
100
AcDbDictionary
  3
STANDARD
350
18
  0
DICTIONARY
  5
19
102
{ACAD_REACTORS
330
C
102
}
330
C
100
AcDbDictionary
  0
DICTIONARY
  5
47
102
{ACAD_REACTORS
330
C
102
}
330
C
100
AcDbDictionary
  3
A0
350
48
  3
A1
350
49
  3
A2
350
4A
  3
A3
350
4B
  3
A4
350
4C
  3
A5
350
4D
  3
A6
350
4E
  3
A7
350
4F
  3
A8
350
50
  3
A9
350
51
  3
B0
350
52
  3
B1
350
53
  3
B2
350
54
  3
B3
350
55
  3
B4
350
56
  3
B5
350
57
  3
B6
350
58
  3
B7
350
59
  3
B8
350
5A
  3
B9
350
5B
  3
C0
350
5C
  3
C1
350
5D
  3
C2
350
5E
  3
C3
350
5F
  3
C4
350
60
  3
C5
350
61
  3
C6
350
62
  3
C7
350
63
  3
C8
350
64
  3
C9
350
65
  3
D0
350
66
  3
D1
350
67
  3
D2
350
68
  0
DICTIONARY
  5
2A
102
{ACAD_REACTORS
330
C
102
}
330
C
100
AcDbDictionary
  3
2DWIREFRAME
350
2F
  3
BASIC
350
32
  3
BRIGHTEN
350
36
  3
COLORCHANGE
350
3A
  3
CONCEPTUAL
350
34
  3
DIM
350
35
  3
EDGECOLOROFF
350
3D
  3
FACEPATTERN
350
39
  3
FLAT
350
2B
  3
FLATWITHEDGES
350
2C
  3
GOURAUD
350
2D
  3
GOURAUDWITHEDGES
350
2E
  3
HIDDEN
350
31
  3
JITTEROFF
350
3B
  3
LINEPATTERN
350
38
  3
OVERHANGOFF
350
3C
  3
REALISTIC
350
33
  3
SHADED
350
42
  3
SHADED_WITH_EDGES
350
41
  3
SHADES_OF_GRAY
350
3E
  3
SKETCHY
350
3F
  3
THICKEN
350
37
  3
WIREFRAME
350
30
  3
X-RAY
350
40
  0
XRECORD
  5
313
102
{ACAD_REACTORS
330
C
102
}
330
C
100
AcDbXrecord
 90
        1
330
B2
330
CB
330
D8
330
DA
330
F2
330
131
330
15B
330
160
330
15F
330
20D
  0
DICTIONARY
  5
2D1
102
{ACAD_REACTORS
330
C
102
}
330
C
100
AcDbDictionary
  3
CEPSNID
350
2DB
  3
CEPSNTYPE
350
2DA
  3
DIMSTYLEDATA
350
2F1
  3
FINGERPRINTGUID
350
2DC
  3
HYPERLINKBASE
350
2D4
  3
INSUNITS
350
2D9
  3
LAYOUTDICT
350
2D6
  3
LWETCUNION
350
2D8
  3
PLOTSETDICT
350
2D7
  3
PSVPSCALE
350
2DE
  3
PUCSBASE
350
2E1
  3
PUCSORGBACK
350
2E7
  3
PUCSORGBOTTOM
350
2E3
  3
PUCSORGFRONT
350
2E6
  3
PUCSORGLEFT
350
2E4
  3
PUCSORGRIGHT
350
2E5
  3
PUCSORGTOP
350
2E2
  3
PUCSORTHOREF
350
2DF
  3
PUCSORTHOVIEW
350
2E0
  3
STYLESHEET
350
2D5
  3
TSTACKALIGN
350
2D2
  3
TSTACKSIZE
350
2D3
  3
UCSBASE
350
2EA
  3
UCSORGBACK
350
2F0
  3
UCSORGBOTTOM
350
2EC
  3
UCSORGFRONT
350
2EF
  3
UCSORGLEFT
350
2ED
  3
UCSORGRIGHT
350
2EE
  3
UCSORGTOP
350
2EB
  3
UCSORTHOREF
350
2E8
  3
UCSORTHOVIEW
350
2E9
  3
VERSIONGUID
350
2DD
  0
DICTIONARY
  5
6E
102
{ACAD_REACTORS
330
C
102
}
330
C
100
AcDbDictionary
  3
CANNOSCALE
350
30A
  3
CMLEADERSTYLE
350
2F3
  3
CTABLESTYLE
350
2F2
  3
DIMASSOC
350
2F6
  3
HIDETEXT
350
2F7
  3
MSLTSCALE
350
30B
  3
OLEFRAME
350
6F
  0
DICTIONARY
  5
28A
102
{ACAD_REACTORS
330
C
102
}
330
C
100
AcDbDictionary
280
     1
  3
DIM_UNITS
360
28B
  3
ONSHAPE_ANG_TOL_PRECISION
360
28E
  3
ONSHAPE_VSHARP_EXTENSION
360
28D
  3
ONSHAPE_WELD_STANDARD
360
28C
  0
XRECORD
  5
309
102
{ACAD_REACTORS
330
308
102
}
330
308
100
AcDbXrecord
102
VTR_0.000_0.000_1.000_1.000_VISUALSTYLE
340
2F
102
VTR_0.000_0.000_1.000_1.000_GRIDDISPLAY
 70
     3
102
VTR_0.000_0.000_1.000_1.000_GRIDMAJOR
 70
     5
102
VTR_0.000_0.000_1.000_1.000_DEFAULTLIGHTING
280
     1
102
VTR_0.000_0.000_1.000_1.000_DEFAULTLIGHTINGTYPE
 70
     1
102
VTR_0.000_0.000_1.000_1.000_BRIGHTNESS
141
0.0
102
VTR_0.000_0.000_1.000_1.000_CONTRAST
142
0.0
  0
XRECORD
  5
2F8
102
{ACAD_REACTORS
330
B3
102
}
330
B3
100
AcDbXrecord
 40
2681.0
  1
{\pxqc;2020-02-24}
  0
XRECORD
  5
2FA
102
{ACAD_REACTORS
330
2F9
102
}
330
2F9
100
AcDbXrecord
 40
34160.0
  1
{\pxqc;(blue) PVC or PMMA sheet 6mm }
  0
XRECORD
  5
2FB
102
{ACAD_REACTORS
330
D9
102
}
330
D9
100
AcDbXrecord
 40
53186.0
  1
{\pxqc;Stand for 4x multiple_cap_holder}
  0
XRECORD
  5
2FC
102
{ACAD_REACTORS
330
DB
102
}
330
DB
100
AcDbXrecord
 40
283752.0
  1
{\pxqc;to be cut, drilled (or laser cut) \Pand bent}
  0
XRECORD
  5
2FD
102
{ACAD_REACTORS
330
F3
102
}
330
F3
100
AcDbXrecord
 40
3059.0
  1
{\pxqc;1:2 [mm]}
  0
XRECORD
  5
102
102
{ACAD_REACTORS
330
101
102
}
330
101
100
AcDbXrecord
330
0
  0
XRECORD
  5
107
102
{ACAD_REACTORS
330
106
102
}
330
106
100
AcDbXrecord
330
0
  0
XRECORD
  5
10C
102
{ACAD_REACTORS
330
109
102
}
330
109
100
AcDbXrecord
 90
        1
 90
        0
  0
XRECORD
  5
124
102
{ACAD_REACTORS
330
120
102
}
330
120
100
AcDbXrecord
 90
        1
 90
        0
  0
XRECORD
  5
2FF
102
{ACAD_REACTORS
330
2FE
102
}
330
2FE
100
AcDbXrecord
 40
26312.0
  1
{\pxql;Front - after bending 1:2}
  0
XRECORD
  5
135
102
{ACAD_REACTORS
330
134
102
}
330
134
100
AcDbXrecord
330
0
  0
XRECORD
  5
139
102
{ACAD_REACTORS
330
137
102
}
330
137
100
AcDbXrecord
 90
        1
 90
        0
  0
XRECORD
  5
14B
102
{ACAD_REACTORS
330
148
102
}
330
148
100
AcDbXrecord
 90
        1
 90
        0
  0
XRECORD
  5
301
102
{ACAD_REACTORS
330
300
102
}
330
300
100
AcDbXrecord
 40
2257.0
  1
{\pxql;Side 1:2}
  0
XRECORD
  5
15E
102
{ACAD_REACTORS
330
15D
102
}
330
15D
100
AcDbXrecord
330
0
  0
XRECORD
  5
303
102
{ACAD_REACTORS
330
302
102
}
330
302
100
AcDbXrecord
 40
27012.0
  1
{\pxql;Top view of Sheet, scale}
  0
XRECORD
  5
305
102
{ACAD_REACTORS
330
304
102
}
330
304
100
AcDbXrecord
 40
23093.0
  1
{\pxql;Screw clearance\Phole}
  0
XRECORD
  5
165
102
{ACAD_REACTORS
330
162
102
}
330
162
100
AcDbXrecord
 90
        1
 90
        0
  0
XRECORD
  5
178
102
{ACAD_REACTORS
330
175
102
}
330
175
100
AcDbXrecord
 90
        1
 90
        0
  0
XRECORD
  5
189
102
{ACAD_REACTORS
330
186
102
}
330
186
100
AcDbXrecord
 90
        1
 90
        0
  0
XRECORD
  5
19A
102
{ACAD_REACTORS
330
197
102
}
330
197
100
AcDbXrecord
 90
        1
 90
        0
  0
XRECORD
  5
1AB
102
{ACAD_REACTORS
330
1A8
102
}
330
1A8
100
AcDbXrecord
 90
        1
 90
        0
  0
XRECORD
  5
1BC
102
{ACAD_REACTORS
330
1B9
102
}
330
1B9
100
AcDbXrecord
 90
        1
 90
        0
  0
XRECORD
  5
1CD
102
{ACAD_REACTORS
330
1CB
102
}
330
1CB
100
AcDbXrecord
 90
        1
 90
        0
  0
XRECORD
  5
1DD
102
{ACAD_REACTORS
330
1DA
102
}
330
1DA
100
AcDbXrecord
 90
        1
 90
        0
  0
XRECORD
  5
1EE
102
{ACAD_REACTORS
330
1EB
102
}
330
1EB
100
AcDbXrecord
 90
        1
 90
        0
  0
XRECORD
  5
200
102
{ACAD_REACTORS
330
1FD
102
}
330
1FD
100
AcDbXrecord
 90
        1
 90
        0
  0
XRECORD
  5
307
102
{ACAD_REACTORS
330
306
102
}
330
306
100
AcDbXrecord
 40
30828.0
  1
{\pxql;holes for M3 heat inserts}
  0
XRECORD
  5
212
102
{ACAD_REACTORS
330
20F
102
}
330
20F
100
AcDbXrecord
 90
        1
 90
        0
  0
MATERIAL
  5
45
102
{ACAD_REACTORS
330
43
102
}
102
{ACAD_XDICTIONARY
360
30E
102
}
330
43
100
AcDbMaterial
  1
BYBLOCK
  0
MATERIAL
  5
44
102
{ACAD_REACTORS
330
43
102
}
102
{ACAD_XDICTIONARY
360
30C
102
}
330
43
100
AcDbMaterial
  1
BYLAYER
  0
MATERIAL
  5
46
102
{ACAD_REACTORS
330
43
102
}
102
{ACAD_XDICTIONARY
360
310
102
}
330
43
100
AcDbMaterial
  1
GLOBAL
  0
ACAD_PROXY_OBJECT
  5
6C
102
{ACAD_REACTORS
330
6B
102
}
330
6B
100
AcDbProxyObject
 90
      499
 91
      505
 93
      610
310
40901902A4063FBFFFFFE056BD1B81E855B9FC0AD7A3703D0AD73F4214DD185B99185C9900AD7A3703D0AC73F90140501A02B5E8DC0F42B1CFC02B5E8DC0F42B1CFE5764000000000000300FC0
340
14
340
0
340
11
340
0
 94
        0
1001
ACAD_MLEADERVER
1070
     2
  0
MLINESTYLE
  5
18
102
{ACAD_REACTORS
330
17
102
}
330
17
100
AcDbMlineStyle
  2
Standard
 70
     0
  3

 62
   256
 51
90.0
 52
90.0
 71
     2
 49
0.5
 62
   256
  6
BYLAYER
 49
-0.5
 62
   256
  6
BYLAYER
  0
ACAD_PROXY_OBJECT
  5
48
102
{ACAD_REACTORS
330
47
102
}
330
47
100
AcDbProxyObject
 90
      499
 91
      503
 93
       41
310
903313A31580
  0
ACAD_PROXY_OBJECT
  5
49
102
{ACAD_REACTORS
330
47
102
}
330
47
100
AcDbProxyObject
 90
      499
 91
      503
 93
      105
310
903313A324000000000000004000
  0
ACAD_PROXY_OBJECT
  5
4A
102
{ACAD_REACTORS
330
47
102
}
330
47
100
AcDbProxyObject
 90
      499
 91
      503
 93
      105
310
903313A344000000000000104000
  0
ACAD_PROXY_OBJECT
  5
4B
102
{ACAD_REACTORS
330
47
102
}
330
47
100
AcDbProxyObject
 90
      499
 91
      503
 93
      105
310
903313A354000000000000144000
  0
ACAD_PROXY_OBJECT
  5
4C
102
{ACAD_REACTORS
330
47
102
}
330
47
100
AcDbProxyObject
 90
      499
 91
      503
 93
      105
310
903313A384000000000000204000
  0
ACAD_PROXY_OBJECT
  5
4D
102
{ACAD_REACTORS
330
47
102
}
330
47
100
AcDbProxyObject
 90
      499
 91
      503
 93
      113
310
904313A31304000000000000244000
  0
ACAD_PROXY_OBJECT
  5
4E
102
{ACAD_REACTORS
330
47
102
}
330
47
100
AcDbProxyObject
 90
      499
 91
      503
 93
      113
310
904313A31364000000000000304000
  0
ACAD_PROXY_OBJECT
  5
4F
102
{ACAD_REACTORS
330
47
102
}
330
47
100
AcDbProxyObject
 90
      499
 91
      503
 93
      113
310
904313A32304000000000000344000
  0
ACAD_PROXY_OBJECT
  5
50
102
{ACAD_REACTORS
330
47
102
}
330
47
100
AcDbProxyObject
 90
      499
 91
      503
 93
      113
310
904313A333040000000000003E4000
  0
ACAD_PROXY_OBJECT
  5
51
102
{ACAD_REACTORS
330
47
102
}
330
47
100
AcDbProxyObject
 90
      499
 91
      503
 93
      113
310
904313A34304000000000000444000
  0
ACAD_PROXY_OBJECT
  5
52
102
{ACAD_REACTORS
330
47
102
}
330
47
100
AcDbProxyObject
 90
      499
 91
      503
 93
      113
310
904313A35304000000000000494000
  0
ACAD_PROXY_OBJECT
  5
53
102
{ACAD_REACTORS
330
47
102
}
330
47
100
AcDbProxyObject
 90
      499
 91
      503
 93
      121
310
905313A3130304000000000000594000
  0
ACAD_PROXY_OBJECT
  5
54
102
{ACAD_REACTORS
330
47
102
}
330
47
100
AcDbProxyObject
 90
      499
 91
      503
 93
      105
310
903323A310000000000000010100
  0
ACAD_PROXY_OBJECT
  5
55
102
{ACAD_REACTORS
330
47
102
}
330
47
100
AcDbProxyObject
 90
      499
 91
      503
 93
      105
310
903343A310000000000000410100
  0
ACAD_PROXY_OBJECT
  5
56
102
{ACAD_REACTORS
330
47
102
}
330
47
100
AcDbProxyObject
 90
      499
 91
      503
 93
      105
310
903383A310000000000000810100
  0
ACAD_PROXY_OBJECT
  5
57
102
{ACAD_REACTORS
330
47
102
}
330
47
100
AcDbProxyObject
 90
      499
 91
      503
 93
      113
310
90431303A310000000000000910100
  0
ACAD_PROXY_OBJECT
  5
58
102
{ACAD_REACTORS
330
47
102
}
330
47
100
AcDbProxyObject
 90
      499
 91
      503
 93
      121
310
9053130303A310000000000001650100
  0
ACAD_PROXY_OBJECT
  5
59
102
{ACAD_REACTORS
330
47
102
}
330
47
100
AcDbProxyObject
 90
      499
 91
      503
 93
      257
310
90E312F31323822203D2031272D3022000000000000200FC000000000000284000
  0
ACAD_PROXY_OBJECT
  5
5A
102
{ACAD_REACTORS
330
47
102
}
330
47
100
AcDbProxyObject
 90
      499
 91
      503
 93
      249
310
90D312F363422203D2031272D3022000000000000240FC000000000000284000
  0
ACAD_PROXY_OBJECT
  5
5B
102
{ACAD_REACTORS
330
47
102
}
330
47
100
AcDbProxyObject
 90
      499
 91
      503
 93
      249
310
90D312F333222203D2031272D3022000000000000280FC000000000000284000
  0
ACAD_PROXY_OBJECT
  5
5C
102
{ACAD_REACTORS
330
47
102
}
330
47
100
AcDbProxyObject
 90
      499
 91
      503
 93
      249
310
90D312F313622203D2031272D30220000000000002C0FC000000000000284000
  0
ACAD_PROXY_OBJECT
  5
5D
102
{ACAD_REACTORS
330
47
102
}
330
47
100
AcDbProxyObject
 90
      499
 91
      503
 93
      249
310
90D332F333222203D2031272D30220000000000002E0FC000000000000284000
  0
ACAD_PROXY_OBJECT
  5
5E
102
{ACAD_REACTORS
330
47
102
}
330
47
100
AcDbProxyObject
 90
      499
 91
      503
 93
      241
310
90C312F3822203D2031272D3022000000000000300FC000000000000284000
  0
ACAD_PROXY_OBJECT
  5
5F
102
{ACAD_REACTORS
330
47
102
}
330
47
100
AcDbProxyObject
 90
      499
 91
      503
 93
      249
310
90D332F313622203D2031272D3022000000000000320FC000000000000284000
  0
ACAD_PROXY_OBJECT
  5
60
102
{ACAD_REACTORS
330
47
102
}
330
47
100
AcDbProxyObject
 90
      499
 91
      503
 93
      241
310
90C312F3422203D2031272D3022000000000000340FC000000000000284000
  0
ACAD_PROXY_OBJECT
  5
61
102
{ACAD_REACTORS
330
47
102
}
330
47
100
AcDbProxyObject
 90
      499
 91
      503
 93
      241
310
90C332F3822203D2031272D3022000000000000360FC000000000000284000
  0
ACAD_PROXY_OBJECT
  5
62
102
{ACAD_REACTORS
330
47
102
}
330
47
100
AcDbProxyObject
 90
      499
 91
      503
 93
      241
310
90C312F3222203D2031272D3022000000000000380FC000000000000284000
  0
ACAD_PROXY_OBJECT
  5
63
102
{ACAD_REACTORS
330
47
102
}
330
47
100
AcDbProxyObject
 90
      499
 91
      503
 93
      241
310
90C332F3422203D2031272D30220000000000003A0FC000000000000284000
  0
ACAD_PROXY_OBJECT
  5
64
102
{ACAD_REACTORS
330
47
102
}
330
47
100
AcDbProxyObject
 90
      499
 91
      503
 93
      161
310
90A3122203D2031272D30224000000000000284000
  0
ACAD_PROXY_OBJECT
  5
65
102
{ACAD_REACTORS
330
47
102
}
330
47
100
AcDbProxyObject
 90
      499
 91
      503
 93
      257
310
90E312D312F3222203D2031272D30220000000000003E0FC000000000000284000
  0
ACAD_PROXY_OBJECT
  5
66
102
{ACAD_REACTORS
330
47
102
}
330
47
100
AcDbProxyObject
 90
      499
 91
      503
 93
      225
310
90A3322203D2031272D302200000000000002100000000000000284000
  0
ACAD_PROXY_OBJECT
  5
67
102
{ACAD_REACTORS
330
47
102
}
330
47
100
AcDbProxyObject
 90
      499
 91
      503
 93
      225
310
90A3622203D2031272D302200000000000006100000000000000284000
  0
ACAD_PROXY_OBJECT
  5
68
102
{ACAD_REACTORS
330
47
102
}
330
47
100
AcDbProxyObject
 90
      499
 91
      503
 93
      249
310
90D31272D3022203D2031272D30220000000000000A100000000000000284000
  0
ACAD_PROXY_OBJECT
  5
2F
102
{ACAD_REACTORS
330
2A
102
}
330
2A
100
AcDbProxyObject
 90
      499
 91
      501
 93
      436
310
42CC9915DA5C99599C985B595049028333333333333E33F0000000000000F90107901411070040501600405405064090741402480A0340
1001
ACAD
1000
AcDbSavedByObjectVersion
1070
     0
  0
ACAD_PROXY_OBJECT
  5
32
102
{ACAD_REACTORS
330
2A
102
}
330
2A
100
AcDbProxyObject
 90
      499
 91
      501
 93
      388
310
4150985CDA58D07406404333333333333E33F0000000000000F90107A41107004050150841D405064090741402480A0350
1001
ACAD
1000
AcDbSavedByObjectVersion
1070
     0
  0
ACAD_PROXY_OBJECT
  5
36
102
{ACAD_REACTORS
330
2A
102
}
330
2A
100
AcDbProxyObject
 90
      499
 91
      501
 93
      428
310
42109C9A59DA1D195B90C409028333333333333E33F0000000000000F9010790141107004050150841D405064090741402480A029950
1001
ACAD
1000
AcDbSavedByObjectVersion
1070
     0
  0
ACAD_PROXY_OBJECT
  5
3A
102
{ACAD_REACTORS
330
2A
102
}
330
2A
100
AcDbProxyObject
 90
      499
 91
      501
 93
      452
310
42D0DBDB1BDC90DA185B99D95104090240C333333333333E33F0000000000000F90108901411070040501508421405064090741402480A0350
1001
ACAD
1000
AcDbSavedByObjectVersion
1070
     0
  0
ACAD_PROXY_OBJECT
  5
34
102
{ACAD_REACTORS
330
2A
102
}
330
2A
100
AcDbProxyObject
 90
      499
 91
      501
 93
      500
310
4290DBDB98D95C1D1D585B10940D028333333333333E33F0000000000000F90107902409070040501000000000018199010841D405064090740C02480A0340
1001
ACAD
1000
AcDbSavedByObjectVersion
1070
     0
  0
ACAD_PROXY_OBJECT
  5
35
102
{ACAD_REACTORS
330
2A
102
}
330
2A
100
AcDbProxyObject
 90
      499
 91
      501
 93
      412
310
40D11A5B50B409028333333333333E33F0000000000000F9010790141107004050150841D405064090741402480A02677FFFFFD0
1001
ACAD
1000
AcDbSavedByObjectVersion
1070
     0
  0
ACAD_PROXY_OBJECT
  5
3D
102
{ACAD_REACTORS
330
2A
102
}
330
2A
100
AcDbProxyObject
 90
      499
 91
      501
 93
      452
310
43115919D950DBDB1BDC93D999916409028333333333333E33F0000000000000F9010790141107004050150841D405064090741402480A0350
1001
ACAD
1000
AcDbSavedByObjectVersion
1070
     0
  0
ACAD_PROXY_OBJECT
  5
39
102
{ACAD_REACTORS
330
2A
102
}
330
2A
100
AcDbProxyObject
 90
      499
 91
      501
 93
      444
310
42D19858D95C185D1D195C9B90F409028333333333333E33F0000000000000F9010790141107004050150841D405064090741402480A0350
1001
ACAD
1000
AcDbSavedByObjectVersion
1070
     0
  0
ACAD_PROXY_OBJECT
  5
2B
102
{ACAD_REACTORS
330
2A
102
}
330
2A
100
AcDbProxyObject
 90
      499
 91
      501
 93
      380
310
41119B185D240901404333333333333E33F0000000000000F9010740A907004050150841D405064090741402480A1B50
1001
ACAD
1000
AcDbSavedByObjectVersion
1070
     0
  0
ACAD_PROXY_OBJECT
  5
2C
102
{ACAD_REACTORS
330
2A
102
}
330
2A
100
AcDbProxyObject
 90
      499
 91
      501
 93
      468
310
43519B185D15DA5D1A115919D95CD0140901404333333333333E33F0000000000000F90107409019070040501600405405064090741402480A1B50
1001
ACAD
1000
AcDbSavedByObjectVersion
1070
     0
  0
ACAD_PROXY_OBJECT
  5
2D
102
{ACAD_REACTORS
330
2A
102
}
330
2A
100
AcDbProxyObject
 90
      499
 91
      501
 93
      404
310
41D1DBDD5C985D5910240902404333333333333E33F0000000000000F9010740A9070040501641D405064090741402480A1B50
1001
ACAD
1000
AcDbSavedByObjectVersion
1070
     0
  0
ACAD_PROXY_OBJECT
  5
2E
102
{ACAD_REACTORS
330
2A
102
}
330
2A
100
AcDbProxyObject
 90
      499
 91
      501
 93
      492
310
4411DBDD5C985D5915DA5D1A115919D95CD0340902404333333333333E33F0000000000000F90107409019070040501600405405064090741402480A1B50
1001
ACAD
1000
AcDbSavedByObjectVersion
1070
     0
  0
ACAD_PROXY_OBJECT
  5
31
102
{ACAD_REACTORS
330
2A
102
}
330
2A
100
AcDbProxyObject
 90
      499
 91
      501
 93
      476
310
41921A5919195B90640502408333333333333E33F0000000000000F901079024090700405020000000000001110200405405064090740C02480A0340
1001
ACAD
1000
AcDbSavedByObjectVersion
1070
     0
  0
ACAD_PROXY_OBJECT
  5
3B
102
{ACAD_REACTORS
330
2A
102
}
330
2A
100
AcDbProxyObject
 90
      499
 91
      501
 93
      428
310
42529A5D1D195C93D999914409028333333333333E33F0000000000000F9010790141107004050150A41D405064090741402480A0350
1001
ACAD
1000
AcDbSavedByObjectVersion
1070
     0
  0
ACAD_PROXY_OBJECT
  5
38
102
{ACAD_REACTORS
330
2A
102
}
330
2A
100
AcDbProxyObject
 90
      499
 91
      501
 93
      444
310
42D31A5B995C185D1D195C9B90E409028333333333333E33F0000000000000F9010790141107004050750841D405064090741402483A0350
1001
ACAD
1000
AcDbSavedByObjectVersion
1070
     0
  0
ACAD_PROXY_OBJECT
  5
3C
102
{ACAD_REACTORS
330
2A
102
}
330
2A
100
AcDbProxyObject
 90
      499
 91
      501
 93
      444
310
42D3DD995C9A185B99D3D999915409028333333333333E33F0000000000000F9010790141107004050150941D405064090741402480A0350
1001
ACAD
1000
AcDbSavedByObjectVersion
1070
     0
  0
ACAD_PROXY_OBJECT
  5
33
102
{ACAD_REACTORS
330
2A
102
}
330
2A
100
AcDbProxyObject
 90
      499
 91
      501
 93
      428
310
425499585B1A5CDD1A58D08409038333333333333E33F0000000000000F9010740A907004050150800405405064090740C02480A1B40
1001
ACAD
1000
AcDbSavedByObjectVersion
1070
     0
  0
ACAD_PROXY_OBJECT
  5
42
102
{ACAD_REACTORS
330
2A
102
}
330
2A
100
AcDbProxyObject
 90
      499
 91
      501
 93
      420
310
4194DA1859195911B40902404333333333333E33F0000000000000F9010740A41107004050150800405405064090840C02480A0B40
1001
ACAD
1000
AcDbSavedByObjectVersion
1070
     0
  0
ACAD_PROXY_OBJECT
  5
41
102
{ACAD_REACTORS
330
2A
102
}
330
2A
100
AcDbProxyObject
 90
      499
 91
      501
 93
      516
310
4454DA18591959081DDA5D1A08195919D95CD1A40902404333333333333E33F0000000000000F901074090142907004050250800405405064090740C02480A0B40
1001
ACAD
1000
AcDbSavedByObjectVersion
1070
     0
  0
ACAD_PROXY_OBJECT
  5
3E
102
{ACAD_REACTORS
330
2A
102
}
330
2A
100
AcDbProxyObject
 90
      499
 91
      501
 93
      532
310
4394DA1859195CC81BD98811DC985E5174090240C333333333333E33F0000000000000F901079024090741D01000000000000111010841D405064090740C02480A0340
1001
ACAD
1000
AcDbSavedByObjectVersion
1070
     0
  0
ACAD_PROXY_OBJECT
  5
3F
102
{ACAD_REACTORS
330
2A
102
}
330
2A
100
AcDbProxyObject
 90
      499
 91
      501
 93
      476
310
41D4DAD95D18DA1E51840502408333333333333E33F0000000000000F901079024090741D01000000000000111010B41D405064090741802480A0340
1001
ACAD
1000
AcDbSavedByObjectVersion
1070
     0
  0
ACAD_PROXY_OBJECT
  5
37
102
{ACAD_REACTORS
330
2A
102
}
330
2A
100
AcDbProxyObject
 90
      499
 91
      501
 93
      412
310
41D51A1A58DAD95B90D409028333333333333E33F0000000000000F9010790141107004050150C41D405064090741402480A0350
1001
ACAD
1000
AcDbSavedByObjectVersion
1070
     0
  0
ACAD_PROXY_OBJECT
  5
30
102
{ACAD_REACTORS
330
2A
102
}
330
2A
100
AcDbProxyObject
 90
      499
 91
      501
 93
      420
310
4255DA5C99599C985B595059028333333333333E33F0000000000000F90107901411070040501600405405064090740C02480A0340
1001
ACAD
1000
AcDbSavedByObjectVersion
1070
     0
  0
ACAD_PROXY_OBJECT
  5
40
102
{ACAD_REACTORS
330
2A
102
}
330
2A
100
AcDbProxyObject
 90
      499
 91
      501
 93
      404
310
41560B54985E51940902404000000000000E03F0000000000000F9010740501907004050150841D405064090740C02480A1B40
1001
ACAD
1000
AcDbSavedByObjectVersion
1070
     0
  0
XRECORD
  5
2DB
102
{ACAD_REACTORS
330
2D1
102
}
330
2D1
100
AcDbXrecord
340
0
  0
XRECORD
  5
2DA
102
{ACAD_REACTORS
330
2D1
102
}
330
2D1
100
AcDbXrecord
 90
        0
  0
XRECORD
  5
2F1
102
{ACAD_REACTORS
330
2D1
102
}
330
2D1
100
AcDbXrecord
1000
DSTYLE
1002
{
1070
   179
 70
     1
1070
   171
 70
     3
1070
   274
 70
     3
1070
   285
 70
     8
1070
    41
 40
2.5
1070
   141
 40
2.5
1070
   176
 70
     7
1070
   177
 70
     7
1070
   178
 70
     7
1070
   271
 70
     2
1070
    43
 40
3.75
1070
   278
 70
    44
1070
    44
 40
1.25
1070
    42
 40
0.625
1070
   147
 40
0.625
1070
   144
 40
2.0
1070
   371
 70
    13
1070
   372
 70
    13
1070
    77
 70
     1
1070
   272
 70
     2
1070
    73
 70
     0
1070
   172
 70
     1
1070
    74
 70
     0
1070
   283
 70
     0
1070
   340
340
73
1070
   140
 40
3.5
1070
   284
 70
     8
1070
   288
 70
     1
1070
    78
 70
     8
1002
}
  0
XRECORD
  5
2DC
102
{ACAD_REACTORS
330
2D1
102
}
330
2D1
100
AcDbXrecord
  1
{37717270-6330-3361-b076-7630e6b26464}
  0
XRECORD
  5
2D4
102
{ACAD_REACTORS
330
2D1
102
}
330
2D1
100
AcDbXrecord
  1

  0
XRECORD
  5
2D9
102
{ACAD_REACTORS
330
2D1
102
}
330
2D1
100
AcDbXrecord
 90
        1
  0
XRECORD
  5
2D6
102
{ACAD_REACTORS
330
2D1
102
}
330
2D1
100
AcDbXrecord
340
1A
  0
XRECORD
  5
2D8
102
{ACAD_REACTORS
330
2D1
102
}
330
2D1
100
AcDbXrecord
 90
    10269
  0
XRECORD
  5
2D7
102
{ACAD_REACTORS
330
2D1
102
}
330
2D1
100
AcDbXrecord
340
19
  0
XRECORD
  5
2DE
102
{ACAD_REACTORS
330
2D1
102
}
330
2D1
100
AcDbXrecord
 40
0.0
  0
XRECORD
  5
2E1
102
{ACAD_REACTORS
330
2D1
102
}
330
2D1
100
AcDbXrecord
340
0
  0
XRECORD
  5
2E7
102
{ACAD_REACTORS
330
2D1
102
}
330
2D1
100
AcDbXrecord
 10
0.0
 20
0.0
 30
0.0
  0
XRECORD
  5
2E3
102
{ACAD_REACTORS
330
2D1
102
}
330
2D1
100
AcDbXrecord
 10
0.0
 20
0.0
 30
0.0
  0
XRECORD
  5
2E6
102
{ACAD_REACTORS
330
2D1
102
}
330
2D1
100
AcDbXrecord
 10
0.0
 20
0.0
 30
0.0
  0
XRECORD
  5
2E4
102
{ACAD_REACTORS
330
2D1
102
}
330
2D1
100
AcDbXrecord
 10
0.0
 20
0.0
 30
0.0
  0
XRECORD
  5
2E5
102
{ACAD_REACTORS
330
2D1
102
}
330
2D1
100
AcDbXrecord
 10
0.0
 20
0.0
 30
0.0
  0
XRECORD
  5
2E2
102
{ACAD_REACTORS
330
2D1
102
}
330
2D1
100
AcDbXrecord
 10
0.0
 20
0.0
 30
0.0
  0
XRECORD
  5
2DF
102
{ACAD_REACTORS
330
2D1
102
}
330
2D1
100
AcDbXrecord
340
0
  0
XRECORD
  5
2E0
102
{ACAD_REACTORS
330
2D1
102
}
330
2D1
100
AcDbXrecord
 70
     0
  0
XRECORD
  5
2D5
102
{ACAD_REACTORS
330
2D1
102
}
330
2D1
100
AcDbXrecord
  1

  0
XRECORD
  5
2D2
102
{ACAD_REACTORS
330
2D1
102
}
330
2D1
100
AcDbXrecord
 90
        1
  0
XRECORD
  5
2D3
102
{ACAD_REACTORS
330
2D1
102
}
330
2D1
100
AcDbXrecord
 90
       70
  0
XRECORD
  5
2EA
102
{ACAD_REACTORS
330
2D1
102
}
330
2D1
100
AcDbXrecord
340
0
  0
XRECORD
  5
2F0
102
{ACAD_REACTORS
330
2D1
102
}
330
2D1
100
AcDbXrecord
 10
0.0
 20
0.0
 30
0.0
  0
XRECORD
  5
2EC
102
{ACAD_REACTORS
330
2D1
102
}
330
2D1
100
AcDbXrecord
 10
0.0
 20
0.0
 30
0.0
  0
XRECORD
  5
2EF
102
{ACAD_REACTORS
330
2D1
102
}
330
2D1
100
AcDbXrecord
 10
0.0
 20
0.0
 30
0.0
  0
XRECORD
  5
2ED
102
{ACAD_REACTORS
330
2D1
102
}
330
2D1
100
AcDbXrecord
 10
0.0
 20
0.0
 30
0.0
  0
XRECORD
  5
2EE
102
{ACAD_REACTORS
330
2D1
102
}
330
2D1
100
AcDbXrecord
 10
0.0
 20
0.0
 30
0.0
  0
XRECORD
  5
2EB
102
{ACAD_REACTORS
330
2D1
102
}
330
2D1
100
AcDbXrecord
 10
0.0
 20
0.0
 30
0.0
  0
XRECORD
  5
2E8
102
{ACAD_REACTORS
330
2D1
102
}
330
2D1
100
AcDbXrecord
340
0
  0
XRECORD
  5
2E9
102
{ACAD_REACTORS
330
2D1
102
}
330
2D1
100
AcDbXrecord
 70
     0
  0
XRECORD
  5
2DD
102
{ACAD_REACTORS
330
2D1
102
}
330
2D1
100
AcDbXrecord
  1
{FAEB1C32-E019-11D5-929B-00C0DF256EC4}
  0
DICTIONARYVAR
  5
30A
102
{ACAD_REACTORS
330
6E
102
}
330
6E
100
DictionaryVariables
280
     0
  1
1:1
  0
DICTIONARYVAR
  5
2F3
102
{ACAD_REACTORS
330
6E
102
}
330
6E
100
DictionaryVariables
280
     0
  1
Standard
  0
DICTIONARYVAR
  5
2F2
102
{ACAD_REACTORS
330
6E
102
}
330
6E
100
DictionaryVariables
280
     0
  1
Onshape-Standard
  0
DICTIONARYVAR
  5
2F6
102
{ACAD_REACTORS
330
6E
102
}
330
6E
100
DictionaryVariables
280
     0
  1
2
  0
DICTIONARYVAR
  5
2F7
102
{ACAD_REACTORS
330
6E
102
}
330
6E
100
DictionaryVariables
280
     0
  1
1
  0
DICTIONARYVAR
  5
30B
102
{ACAD_REACTORS
330
6E
102
}
330
6E
100
DictionaryVariables
280
     0
  1
1
  0
DICTIONARYVAR
  5
6F
102
{ACAD_REACTORS
330
6E
102
}
330
6E
100
DictionaryVariables
280
     0
  1
0
  0
XRECORD
  5
28B
102
{ACAD_REACTORS
330
28A
102
}
330
28A
100
AcDbXrecord
 70
     4
  0
XRECORD
  5
28E
102
{ACAD_REACTORS
330
28A
102
}
330
28A
100
AcDbXrecord
 90
        0
  0
XRECORD
  5
28D
102
{ACAD_REACTORS
330
28A
102
}
330
28A
100
AcDbXrecord
 90
        0
  0
XRECORD
  5
28C
102
{ACAD_REACTORS
330
28A
102
}
330
28A
100
AcDbXrecord
 90
        1
  0
DICTIONARY
  5
30E
330
45
100
AcDbDictionary
280
     1
  3
ACAD_XREC_ROUNDTRIP
360
30F
  0
DICTIONARY
  5
30C
330
44
100
AcDbDictionary
280
     1
  3
ACAD_XREC_ROUNDTRIP
360
30D
  0
DICTIONARY
  5
310
330
46
100
AcDbDictionary
280
     1
  3
ACAD_XREC_ROUNDTRIP
360
311
  0
XRECORD
  5
30F
102
{ACAD_REACTORS
330
30E
102
}
330
30E
100
AcDbXrecord
102
MATERIAL
148
0.0
149
0.0
149
0.0
 93
        0
 94
      127
282
     0
 72
     1
 77
     1
171
     1
175
     1
179
     1
273
     0
  0
XRECORD
  5
30D
102
{ACAD_REACTORS
330
30C
102
}
330
30C
100
AcDbXrecord
102
MATERIAL
148
0.0
149
0.0
149
0.0
 93
        0
 94
      127
282
     0
 72
     1
 77
     1
171
     1
175
     1
179
     1
273
     0
  0
XRECORD
  5
311
102
{ACAD_REACTORS
330
310
102
}
330
310
100
AcDbXrecord
102
MATERIAL
148
0.0
149
0.0
149
0.0
 93
        0
 94
      127
282
     0
 72
     1
 77
     1
171
     1
175
     1
179
     1
273
     0
  0
ENDSEC
  0
EOF
